<ttFont>
<head>
    <!-- Most of this table will be recalculated by the compiler -->
    <tableVersion value="1.0"/>
    <fontRevision value="1.301"/>
    <checkSumAdjustment value="0x73691b55"/>
    <magicNumber value="0x5f0f3cf5"/>
    <flags value="00000000 00001011"/>
    <unitsPerEm value="1000"/>
    <created value="Tue Oct  2 22:59:00 2007"/>
    <modified value="Thu Mar  6 18:36:02 2014"/>
    <xMin value="-89"/>
    <yMin value="-251"/>
    <xMax value="733"/>
    <yMax value="1031"/>
    <macStyle value="00000000 00000010"/>
    <lowestRecPPEM value="9"/>
    <fontDirectionHint value="2"/>
    <indexToLocFormat value="0"/>
    <glyphDataFormat value="0"/>
  </head>
    <TTGlyph name="A" xMin="-34" yMin="0" xMax="346" yMax="740">
      <contour>
        <pt x="276" y="0" on="1"/>
        <pt x="271" y="187" on="1"/>
        <pt x="111" y="187" on="1"/>
        <pt x="36" y="0" on="1"/>
        <pt x="-34" y="0" on="1"/>
        <pt x="274" y="740" on="1"/>
        <pt x="310" y="740" on="1"/>
        <pt x="346" y="0" on="1"/>
      </contour>
      <contour>
        <pt x="260" y="562" on="1"/>
        <pt x="136" y="250" on="1"/>
        <pt x="269" y="250" on="1"/>
      </contour>
    </TTGlyph>
    <TTGlyph name="AE" xMin="-40" yMin="0" xMax="610" yMax="733">
      <contour>
        <pt x="598" y="667" on="1"/>
        <pt x="410" y="667" on="1"/>
        <pt x="365" y="410" on="1"/>
        <pt x="541" y="410" on="1"/>
        <pt x="529" y="344" on="1"/>
        <pt x="353" y="344" on="1"/>
        <pt x="304" y="66" on="1"/>
        <pt x="492" y="66" on="1"/>
        <pt x="481" y="0" on="1"/>
        <pt x="223" y="0" on="1"/>
        <pt x="256" y="187" on="1"/>
        <pt x="123" y="187" on="1"/>
        <pt x="30" y="0" on="1"/>
        <pt x="-40" y="0" on="1"/>
        <pt x="329" y="733" on="1"/>
        <pt x="610" y="733" on="1"/>
      </contour>
      <contour>
        <pt x="332" y="621" on="1"/>
        <pt x="154" y="250" on="1"/>
        <pt x="267" y="250" on="1"/>
      </contour>
    </TTGlyph>
    <TTGlyph name="AEacute" xMin="-40" yMin="0" xMax="610" yMax="900">
      <component glyphName="AE" x="0" y="0" flags="0x204"/>
      <component glyphName="acute" x="228" y="280" flags="0x4"/>
    </TTGlyph>
    <TTGlyph name="Aacute" xMin="-34" yMin="0" xMax="432" yMax="910">
      <component glyphName="A" x="0" y="0" flags="0x204"/>
      <component glyphName="acute" x="101" y="290" flags="0x4"/>
    </TTGlyph>
    <TTGlyph name="Abreve" xMin="-34" yMin="0" xMax="411" yMax="880">
      <component glyphName="A" x="0" y="0" flags="0x204"/>
      <component glyphName="breve" x="54" y="290" flags="0x4"/>
    </TTGlyph>
    <TTGlyph name="Acircumflex" xMin="-34" yMin="0" xMax="408" yMax="909">
      <component glyphName="A" x="0" y="0" flags="0x204"/>
      <component glyphName="circumflex" x="45" y="290" flags="0x4"/>
    </TTGlyph>
    <TTGlyph name="Adieresis" xMin="-34" yMin="0" xMax="406" yMax="865">
      <component glyphName="A" x="0" y="0" flags="0x204"/>
      <component glyphName="dieresis" x="53" y="290" flags="0x4"/>
    </TTGlyph>
    <TTGlyph name="Agrave" xMin="-34" yMin="0" xMax="347" yMax="910">
      <component glyphName="A" x="0" y="0" flags="0x204"/>
      <component glyphName="grave" x="-10" y="290" flags="0x4"/>
    </TTGlyph>
    <TTGlyph name="Amacron" xMin="-34" yMin="0" xMax="414" yMax="840">
      <component glyphName="A" x="0" y="0" flags="0x204"/>
      <component glyphName="macron" x="52" y="290" flags="0x4"/>
    </TTGlyph>
    <TTGlyph name="Aogonek" xMin="-34" yMin="-188" xMax="346" yMax="740">
      <contour>
        <pt x="319" y="-165" on="1"/>
        <pt x="306" y="-176" on="0"/>
        <pt x="278" y="-188" on="0"/>
        <pt x="259" y="-188" on="1"/>
        <pt x="233" y="-188" on="0"/>
        <pt x="203" y="-157" on="0"/>
        <pt x="203" y="-131" on="1"/>
        <pt x="203" y="-94" on="0"/>
        <pt x="242" y="-31" on="0"/>
        <pt x="276" y="1" on="1"/>
        <pt x="271" y="187" on="1"/>
        <pt x="111" y="187" on="1"/>
        <pt x="36" y="0" on="1"/>
        <pt x="-34" y="0" on="1"/>
        <pt x="274" y="740" on="1"/>
        <pt x="310" y="740" on="1"/>
        <pt x="346" y="0" on="1"/>
        <pt x="318" y="0" on="1"/>
        <pt x="293" y="-26" on="0"/>
        <pt x="255" y="-85" on="0"/>
        <pt x="255" y="-116" on="1"/>
        <pt x="255" y="-141" on="0"/>
        <pt x="276" y="-141" on="1"/>
        <pt x="284" y="-141" on="0"/>
        <pt x="301" y="-135" on="0"/>
        <pt x="307" y="-130" on="1"/>
      </contour>
      <contour>
        <pt x="260" y="562" on="1"/>
        <pt x="136" y="250" on="1"/>
        <pt x="269" y="250" on="1"/>
      </contour>
    </TTGlyph>
    <TTGlyph name="Aring" xMin="-34" yMin="0" xMax="388" yMax="868">
      <contour>
        <pt x="388" y="795" on="1"/>
        <pt x="388" y="763" on="0"/>
        <pt x="347" y="709" on="0"/>
        <pt x="311" y="702" on="1"/>
        <pt x="346" y="0" on="1"/>
        <pt x="276" y="0" on="1"/>
        <pt x="271" y="187" on="1"/>
        <pt x="111" y="187" on="1"/>
        <pt x="36" y="0" on="1"/>
        <pt x="-34" y="0" on="1"/>
        <pt x="260" y="705" on="1"/>
        <pt x="237" y="713" on="0"/>
        <pt x="211" y="750" on="0"/>
        <pt x="211" y="773" on="1"/>
        <pt x="211" y="791" on="0"/>
        <pt x="224" y="825" on="0"/>
        <pt x="250" y="852" on="0"/>
        <pt x="285" y="868" on="0"/>
        <pt x="308" y="868" on="1"/>
        <pt x="343" y="868" on="0"/>
        <pt x="388" y="824" on="0"/>
      </contour>
      <contour>
        <pt x="260" y="562" on="1"/>
        <pt x="136" y="250" on="1"/>
        <pt x="269" y="250" on="1"/>
      </contour>
      <contour>
        <pt x="343" y="791" on="1"/>
        <pt x="343" y="809" on="0"/>
        <pt x="323" y="830" on="0"/>
        <pt x="306" y="830" on="1"/>
        <pt x="285" y="830" on="0"/>
        <pt x="256" y="801" on="0"/>
        <pt x="256" y="778" on="1"/>
        <pt x="256" y="760" on="0"/>
        <pt x="276" y="738" on="0"/>
        <pt x="293" y="738" on="1"/>
        <pt x="314" y="738" on="0"/>
        <pt x="343" y="768" on="0"/>
      </contour>
    </TTGlyph>
    <TTGlyph name="Aringacute" xMin="-34" yMin="0" xMax="452" yMax="1031">
      <component glyphName="acute" x="121" y="411" flags="0x4"/>
      <component glyphName="Aring" x="0" y="0" flags="0x4"/>
    </TTGlyph>
    <TTGlyph name="Atilde" xMin="-34" yMin="0" xMax="421" yMax="866">
      <component glyphName="A" x="0" y="0" flags="0x204"/>
      <component glyphName="tilde" x="49" y="290" flags="0x4"/>
    </TTGlyph>
    <TTGlyph name="B" xMin="8" yMin="-7" xMax="402" yMax="740">
      <contour>
        <pt x="402" y="573" on="1"/>
        <pt x="402" y="532" on="0"/>
        <pt x="379" y="466" on="0"/>
        <pt x="341" y="417" on="0"/>
        <pt x="295" y="384" on="0"/>
        <pt x="272" y="376" on="1"/>
        <pt x="293" y="366" on="0"/>
        <pt x="325" y="334" on="0"/>
        <pt x="346" y="295" on="0"/>
        <pt x="357" y="252" on="0"/>
        <pt x="357" y="231" on="1"/>
        <pt x="357" y="178" on="0"/>
        <pt x="322" y="91" on="0"/>
        <pt x="258" y="28" on="0"/>
        <pt x="167" y="-7" on="0"/>
        <pt x="112" y="-7" on="1"/>
        <pt x="100" y="-7" on="0"/>
        <pt x="69" y="-4" on="0"/>
        <pt x="40" y="0" on="0"/>
        <pt x="15" y="4" on="0"/>
        <pt x="8" y="6" on="1"/>
        <pt x="136" y="731" on="1"/>
        <pt x="162" y="736" on="0"/>
        <pt x="202" y="740" on="0"/>
        <pt x="225" y="740" on="1"/>
        <pt x="274" y="740" on="0"/>
        <pt x="341" y="709" on="0"/>
        <pt x="383" y="661" on="0"/>
        <pt x="402" y="601" on="0"/>
      </contour>
      <contour>
        <pt x="330" y="566" on="1"/>
        <pt x="330" y="620" on="0"/>
        <pt x="274" y="677" on="0"/>
        <pt x="225" y="677" on="1"/>
        <pt x="216" y="677" on="0"/>
        <pt x="203" y="676" on="0"/>
        <pt x="195" y="675" on="1"/>
        <pt x="148" y="408" on="1"/>
        <pt x="154" y="407" on="0"/>
        <pt x="170" y="406" on="0"/>
        <pt x="189" y="406" on="1"/>
        <pt x="219" y="406" on="0"/>
        <pt x="270" y="428" on="0"/>
        <pt x="308" y="469" on="0"/>
        <pt x="330" y="528" on="0"/>
      </contour>
      <contour>
        <pt x="286" y="223" on="1"/>
        <pt x="286" y="280" on="0"/>
        <pt x="225" y="351" on="0"/>
        <pt x="168" y="351" on="1"/>
        <pt x="166" y="351" on="0"/>
        <pt x="144" y="351" on="0"/>
        <pt x="138" y="350" on="1"/>
        <pt x="87" y="62" on="1"/>
        <pt x="95" y="60" on="0"/>
        <pt x="123" y="57" on="0"/>
        <pt x="133" y="57" on="1"/>
        <pt x="167" y="57" on="0"/>
        <pt x="223" y="82" on="0"/>
        <pt x="263" y="126" on="0"/>
        <pt x="286" y="187" on="0"/>
      </contour>
    </TTGlyph>
    <TTGlyph name="C" xMin="42" yMin="-11" xMax="425" yMax="744">
      <contour>
        <pt x="388" y="642" on="1"/>
        <pt x="371" y="657" on="0"/>
        <pt x="336" y="679" on="0"/>
        <pt x="310" y="679" on="1"/>
        <pt x="283" y="679" on="0"/>
        <pt x="233" y="642" on="0"/>
        <pt x="189" y="578" on="0"/>
        <pt x="154" y="492" on="0"/>
        <pt x="128" y="394" on="0"/>
        <pt x="114" y="290" on="0"/>
        <pt x="114" y="240" on="1"/>
        <pt x="114" y="147" on="0"/>
        <pt x="168" y="54" on="0"/>
        <pt x="213" y="54" on="1"/>
        <pt x="238" y="54" on="0"/>
        <pt x="279" y="71" on="0"/>
        <pt x="291" y="79" on="1"/>
        <pt x="308" y="18" on="1"/>
        <pt x="283" y="1" on="0"/>
        <pt x="228" y="-11" on="0"/>
        <pt x="214" y="-11" on="1"/>
        <pt x="127" y="-11" on="0"/>
        <pt x="42" y="120" on="0"/>
        <pt x="42" y="244" on="1"/>
        <pt x="42" y="299" on="0"/>
        <pt x="59" y="416" on="0"/>
        <pt x="92" y="527" on="0"/>
        <pt x="139" y="626" on="0"/>
        <pt x="200" y="701" on="0"/>
        <pt x="273" y="744" on="0"/>
        <pt x="316" y="744" on="1"/>
        <pt x="348" y="744" on="0"/>
        <pt x="401" y="721" on="0"/>
        <pt x="425" y="698" on="1"/>
      </contour>
    </TTGlyph>
    <TTGlyph name="Cacute" xMin="42" yMin="-11" xMax="449" yMax="910">
      <component glyphName="C" x="0" y="0" flags="0x204"/>
      <component glyphName="acute" x="118" y="290" flags="0x4"/>
    </TTGlyph>
    <TTGlyph name="Ccaron" xMin="42" yMin="-11" xMax="453" yMax="904">
      <component glyphName="C" x="0" y="0" flags="0x204"/>
      <component glyphName="caron" x="73" y="290" flags="0x4"/>
    </TTGlyph>
    <TTGlyph name="Ccedilla" xMin="42" yMin="-179" xMax="425" yMax="744">
      <contour>
        <pt x="239" y="-104" on="1"/>
        <pt x="239" y="-137" on="0"/>
        <pt x="194" y="-179" on="0"/>
        <pt x="157" y="-179" on="1"/>
        <pt x="115" y="-179" on="0"/>
        <pt x="74" y="-153" on="1"/>
        <pt x="96" y="-117" on="1"/>
        <pt x="113" y="-129" on="0"/>
        <pt x="144" y="-139" on="0"/>
        <pt x="159" y="-139" on="1"/>
        <pt x="174" y="-139" on="0"/>
        <pt x="194" y="-121" on="0"/>
        <pt x="194" y="-108" on="1"/>
        <pt x="194" y="-94" on="0"/>
        <pt x="161" y="-72" on="0"/>
        <pt x="123" y="-70" on="1"/>
        <pt x="122" y="-64" on="1"/>
        <pt x="148" y="1" on="1"/>
        <pt x="94" y="24" on="0"/>
        <pt x="42" y="147" on="0"/>
        <pt x="42" y="244" on="1"/>
        <pt x="42" y="299" on="0"/>
        <pt x="59" y="416" on="0"/>
        <pt x="92" y="527" on="0"/>
        <pt x="139" y="626" on="0"/>
        <pt x="200" y="701" on="0"/>
        <pt x="273" y="744" on="0"/>
        <pt x="316" y="744" on="1"/>
        <pt x="348" y="744" on="0"/>
        <pt x="401" y="721" on="0"/>
        <pt x="425" y="698" on="1"/>
        <pt x="388" y="642" on="1"/>
        <pt x="371" y="657" on="0"/>
        <pt x="336" y="679" on="0"/>
        <pt x="310" y="679" on="1"/>
        <pt x="283" y="679" on="0"/>
        <pt x="233" y="642" on="0"/>
        <pt x="189" y="578" on="0"/>
        <pt x="154" y="492" on="0"/>
        <pt x="128" y="394" on="0"/>
        <pt x="114" y="290" on="0"/>
        <pt x="114" y="240" on="1"/>
        <pt x="114" y="147" on="0"/>
        <pt x="168" y="54" on="0"/>
        <pt x="213" y="54" on="1"/>
        <pt x="238" y="54" on="0"/>
        <pt x="279" y="71" on="0"/>
        <pt x="291" y="79" on="1"/>
        <pt x="308" y="18" on="1"/>
        <pt x="283" y="1" on="0"/>
        <pt x="228" y="-11" on="0"/>
        <pt x="214" y="-11" on="1"/>
        <pt x="206" y="-11" on="0"/>
        <pt x="191" y="-10" on="0"/>
        <pt x="183" y="-9" on="1"/>
        <pt x="172" y="-37" on="1"/>
        <pt x="211" y="-45" on="0"/>
        <pt x="239" y="-84" on="0"/>
      </contour>
    </TTGlyph>
    <TTGlyph name="Cdotaccent" xMin="42" yMin="-11" xMax="425" yMax="865">
      <component glyphName="C" x="0" y="0" flags="0x204"/>
      <component glyphName="dotaccent" x="70" y="290" flags="0x4"/>
    </TTGlyph>
    <TTGlyph name="D" xMin="16" yMin="-7" xMax="434" yMax="740">
      <contour>
        <pt x="97" y="-7" on="1"/>
        <pt x="73" y="-7" on="0"/>
        <pt x="27" y="1" on="0"/>
        <pt x="16" y="6" on="1"/>
        <pt x="145" y="734" on="1"/>
        <pt x="150" y="736" on="0"/>
        <pt x="188" y="740" on="0"/>
        <pt x="205" y="740" on="1"/>
        <pt x="251" y="740" on="0"/>
        <pt x="330" y="713" on="0"/>
        <pt x="362" y="681" on="1"/>
        <pt x="400" y="643" on="0"/>
        <pt x="434" y="526" on="0"/>
        <pt x="434" y="456" on="1"/>
        <pt x="434" y="369" on="0"/>
        <pt x="389" y="203" on="0"/>
        <pt x="302" y="73" on="0"/>
        <pt x="177" y="-7" on="0"/>
      </contour>
      <contour>
        <pt x="216" y="676" on="1"/>
        <pt x="209" y="676" on="0"/>
        <pt x="205" y="675" on="1"/>
        <pt x="95" y="60" on="1"/>
        <pt x="102" y="57" on="0"/>
        <pt x="116" y="57" on="1"/>
        <pt x="173" y="57" on="0"/>
        <pt x="264" y="129" on="0"/>
        <pt x="328" y="243" on="0"/>
        <pt x="362" y="384" on="0"/>
        <pt x="362" y="453" on="1"/>
        <pt x="362" y="518" on="0"/>
        <pt x="336" y="612" on="0"/>
        <pt x="307" y="641" on="1"/>
        <pt x="287" y="661" on="0"/>
        <pt x="241" y="676" on="0"/>
      </contour>
    </TTGlyph>
    <TTGlyph name="Dcaron" xMin="16" yMin="-7" xMax="434" yMax="894">
      <component glyphName="D" x="0" y="0" flags="0x204"/>
      <component glyphName="caron" x="32" y="280" flags="0x4"/>
    </TTGlyph>
    <TTGlyph name="Dcroat" xMin="26" yMin="-7" xMax="444" yMax="740">
      <component glyphName="Eth" x="0" y="0" flags="0x204"/>
    </TTGlyph>
    <TTGlyph name="E" xMin="16" yMin="0" xMax="403" yMax="733">
      <contour>
        <pt x="391" y="667" on="1"/>
        <pt x="203" y="667" on="1"/>
        <pt x="158" y="410" on="1"/>
        <pt x="334" y="410" on="1"/>
        <pt x="322" y="344" on="1"/>
        <pt x="146" y="344" on="1"/>
        <pt x="97" y="66" on="1"/>
        <pt x="285" y="66" on="1"/>
        <pt x="274" y="0" on="1"/>
        <pt x="16" y="0" on="1"/>
        <pt x="145" y="733" on="1"/>
        <pt x="403" y="733" on="1"/>
      </contour>
    </TTGlyph>
    <TTGlyph name="Eacute" xMin="16" yMin="0" xMax="413" yMax="900">
      <component glyphName="E" x="0" y="0" flags="0x204"/>
      <component glyphName="acute" x="82" y="280" flags="0x4"/>
    </TTGlyph>
    <TTGlyph name="Ebreve" xMin="16" yMin="0" xMax="403" yMax="870">
      <component glyphName="E" x="0" y="0" flags="0x204"/>
      <component glyphName="breve" x="35" y="280" flags="0x4"/>
    </TTGlyph>
    <TTGlyph name="Ecaron" xMin="16" yMin="0" xMax="416" yMax="894">
      <component glyphName="E" x="0" y="0" flags="0x204"/>
      <component glyphName="caron" x="36" y="280" flags="0x4"/>
    </TTGlyph>
    <TTGlyph name="Ecircumflex" xMin="16" yMin="0" xMax="403" yMax="899">
      <component glyphName="E" x="0" y="0" flags="0x204"/>
      <component glyphName="circumflex" x="26" y="280" flags="0x4"/>
    </TTGlyph>
    <TTGlyph name="Edieresis" xMin="16" yMin="0" xMax="403" yMax="855">
      <component glyphName="E" x="0" y="0" flags="0x204"/>
      <component glyphName="dieresis" x="34" y="280" flags="0x4"/>
    </TTGlyph>
    <TTGlyph name="Edotaccent" xMin="16" yMin="0" xMax="403" yMax="855">
      <component glyphName="E" x="0" y="0" flags="0x204"/>
      <component glyphName="dotaccent" x="33" y="280" flags="0x4"/>
    </TTGlyph>
    <TTGlyph name="Egrave" xMin="16" yMin="0" xMax="403" yMax="900">
      <component glyphName="E" x="0" y="0" flags="0x204"/>
      <component glyphName="grave" x="-29" y="280" flags="0x4"/>
    </TTGlyph>
    <TTGlyph name="Emacron" xMin="16" yMin="0" xMax="403" yMax="830">
      <component glyphName="E" x="0" y="0" flags="0x204"/>
      <component glyphName="macron" x="33" y="280" flags="0x4"/>
    </TTGlyph>
    <TTGlyph name="Eogonek" xMin="16" yMin="-188" xMax="403" yMax="733">
      <contour>
        <pt x="245" y="-165" on="1"/>
        <pt x="232" y="-176" on="0"/>
        <pt x="204" y="-188" on="0"/>
        <pt x="185" y="-188" on="1"/>
        <pt x="159" y="-188" on="0"/>
        <pt x="129" y="-157" on="0"/>
        <pt x="129" y="-131" on="1"/>
        <pt x="129" y="-94" on="0"/>
        <pt x="168" y="-32" on="0"/>
        <pt x="200" y="0" on="1"/>
        <pt x="16" y="0" on="1"/>
        <pt x="145" y="733" on="1"/>
        <pt x="403" y="733" on="1"/>
        <pt x="391" y="667" on="1"/>
        <pt x="203" y="667" on="1"/>
        <pt x="158" y="410" on="1"/>
        <pt x="334" y="410" on="1"/>
        <pt x="322" y="344" on="1"/>
        <pt x="146" y="344" on="1"/>
        <pt x="97" y="66" on="1"/>
        <pt x="285" y="66" on="1"/>
        <pt x="274" y="0" on="1"/>
        <pt x="244" y="0" on="1"/>
        <pt x="219" y="-26" on="0"/>
        <pt x="181" y="-85" on="0"/>
        <pt x="181" y="-116" on="1"/>
        <pt x="181" y="-141" on="0"/>
        <pt x="202" y="-141" on="1"/>
        <pt x="210" y="-141" on="0"/>
        <pt x="227" y="-135" on="0"/>
        <pt x="233" y="-130" on="1"/>
        <pt x="245" y="-165" on="1"/>
      </contour>
    </TTGlyph>
    <TTGlyph name="Eth" xMin="26" yMin="-7" xMax="444" yMax="740">
      <contour>
        <pt x="444" y="456" on="1"/>
        <pt x="444" y="369" on="0"/>
        <pt x="399" y="203" on="0"/>
        <pt x="312" y="73" on="0"/>
        <pt x="187" y="-7" on="0"/>
        <pt x="107" y="-7" on="1"/>
        <pt x="83" y="-7" on="0"/>
        <pt x="37" y="1" on="0"/>
        <pt x="26" y="6" on="1"/>
        <pt x="85" y="340" on="1"/>
        <pt x="50" y="340" on="1"/>
        <pt x="61" y="404" on="1"/>
        <pt x="96" y="404" on="1"/>
        <pt x="155" y="734" on="1"/>
        <pt x="160" y="736" on="0"/>
        <pt x="198" y="740" on="0"/>
        <pt x="215" y="740" on="1"/>
        <pt x="261" y="740" on="0"/>
        <pt x="340" y="713" on="0"/>
        <pt x="372" y="681" on="1"/>
        <pt x="410" y="643" on="0"/>
        <pt x="444" y="526" on="0"/>
      </contour>
      <contour>
        <pt x="372" y="453" on="1"/>
        <pt x="372" y="518" on="0"/>
        <pt x="346" y="612" on="0"/>
        <pt x="317" y="641" on="1"/>
        <pt x="297" y="661" on="0"/>
        <pt x="251" y="676" on="0"/>
        <pt x="226" y="676" on="1"/>
        <pt x="219" y="676" on="0"/>
        <pt x="215" y="675" on="1"/>
        <pt x="166" y="404" on="1"/>
        <pt x="261" y="404" on="1"/>
        <pt x="250" y="340" on="1"/>
        <pt x="155" y="340" on="1"/>
        <pt x="105" y="60" on="1"/>
        <pt x="112" y="57" on="0"/>
        <pt x="126" y="57" on="1"/>
        <pt x="183" y="57" on="0"/>
        <pt x="274" y="129" on="0"/>
        <pt x="338" y="243" on="0"/>
        <pt x="372" y="384" on="0"/>
      </contour>
    </TTGlyph>
    <TTGlyph name="Euro" xMin="11" yMin="-11" xMax="449" yMax="730">
      <contour>
        <pt x="71" y="304" on="1"/>
        <pt x="73" y="331" on="0"/>
        <pt x="81" y="385" on="0"/>
        <pt x="87" y="412" on="1"/>
        <pt x="40" y="412" on="1"/>
        <pt x="50" y="470" on="1"/>
        <pt x="102" y="470" on="1"/>
        <pt x="118" y="524" on="0"/>
        <pt x="165" y="618" on="0"/>
        <pt x="225" y="689" on="0"/>
        <pt x="298" y="730" on="0"/>
        <pt x="340" y="730" on="1"/>
        <pt x="372" y="730" on="0"/>
        <pt x="425" y="707" on="0"/>
        <pt x="449" y="684" on="1"/>
        <pt x="412" y="628" on="1"/>
        <pt x="395" y="643" on="0"/>
        <pt x="359" y="665" on="0"/>
        <pt x="333" y="665" on="1"/>
        <pt x="309" y="665" on="0"/>
        <pt x="263" y="635" on="0"/>
        <pt x="222" y="582" on="0"/>
        <pt x="188" y="511" on="0"/>
        <pt x="175" y="470" on="1"/>
        <pt x="358" y="470" on="1"/>
        <pt x="348" y="412" on="1"/>
        <pt x="159" y="412" on="1"/>
        <pt x="153" y="386" on="0"/>
        <pt x="144" y="331" on="0"/>
        <pt x="141" y="304" on="1"/>
        <pt x="329" y="304" on="1"/>
        <pt x="319" y="246" on="1"/>
        <pt x="138" y="246" on="1"/>
        <pt x="138" y="233" on="1"/>
        <pt x="138" y="143" on="0"/>
        <pt x="191" y="54" on="0"/>
        <pt x="239" y="54" on="1"/>
        <pt x="261" y="54" on="0"/>
        <pt x="303" y="71" on="0"/>
        <pt x="315" y="79" on="1"/>
        <pt x="332" y="18" on="1"/>
        <pt x="307" y="1" on="0"/>
        <pt x="252" y="-11" on="0"/>
        <pt x="236" y="-11" on="1"/>
        <pt x="152" y="-11" on="0"/>
        <pt x="68" y="121" on="0"/>
        <pt x="68" y="238" on="1"/>
        <pt x="68" y="246" on="1"/>
        <pt x="11" y="246" on="1"/>
        <pt x="21" y="304" on="1"/>
      </contour>
    </TTGlyph>
    <TTGlyph name="Euro.lin" xMin="11" yMin="-11" xMax="449" yMax="730">
      <contour>
        <pt x="102" y="470" on="1"/>
        <pt x="118" y="524" on="0"/>
        <pt x="165" y="618" on="0"/>
        <pt x="225" y="689" on="0"/>
        <pt x="298" y="730" on="0"/>
        <pt x="340" y="730" on="1"/>
        <pt x="372" y="730" on="0"/>
        <pt x="425" y="707" on="0"/>
        <pt x="449" y="684" on="1"/>
        <pt x="412" y="628" on="1"/>
        <pt x="395" y="643" on="0"/>
        <pt x="359" y="665" on="0"/>
        <pt x="333" y="665" on="1"/>
        <pt x="309" y="665" on="0"/>
        <pt x="263" y="635" on="0"/>
        <pt x="222" y="582" on="0"/>
        <pt x="188" y="511" on="0"/>
        <pt x="175" y="470" on="1"/>
        <pt x="358" y="470" on="1"/>
        <pt x="348" y="412" on="1"/>
        <pt x="159" y="412" on="1"/>
        <pt x="153" y="386" on="0"/>
        <pt x="144" y="331" on="0"/>
        <pt x="141" y="304" on="1"/>
        <pt x="329" y="304" on="1"/>
        <pt x="319" y="246" on="1"/>
        <pt x="138" y="246" on="1"/>
        <pt x="138" y="233" on="1"/>
        <pt x="138" y="143" on="0"/>
        <pt x="191" y="54" on="0"/>
        <pt x="239" y="54" on="1"/>
        <pt x="261" y="54" on="0"/>
        <pt x="303" y="71" on="0"/>
        <pt x="315" y="79" on="1"/>
        <pt x="332" y="18" on="1"/>
        <pt x="307" y="1" on="0"/>
        <pt x="252" y="-11" on="0"/>
        <pt x="236" y="-11" on="1"/>
        <pt x="152" y="-11" on="0"/>
        <pt x="68" y="121" on="0"/>
        <pt x="68" y="238" on="1"/>
        <pt x="68" y="246" on="1"/>
        <pt x="11" y="246" on="1"/>
        <pt x="21" y="304" on="1"/>
        <pt x="71" y="304" on="1"/>
        <pt x="73" y="331" on="0"/>
        <pt x="81" y="385" on="0"/>
        <pt x="87" y="412" on="1"/>
        <pt x="40" y="412" on="1"/>
        <pt x="50" y="470" on="1"/>
      </contour>
    </TTGlyph>
    <TTGlyph name="F" xMin="16" yMin="0" xMax="396" yMax="733">
      <contour>
        <pt x="385" y="667" on="1"/>
        <pt x="204" y="667" on="1"/>
        <pt x="158" y="410" on="1"/>
        <pt x="321" y="410" on="1"/>
        <pt x="310" y="344" on="1"/>
        <pt x="147" y="344" on="1"/>
        <pt x="86" y="0" on="1"/>
        <pt x="16" y="0" on="1"/>
        <pt x="145" y="733" on="1"/>
        <pt x="396" y="733" on="1"/>
      </contour>
    </TTGlyph>
    <TTGlyph name="G" xMin="46" yMin="-11" xMax="432" yMax="744">
      <contour>
        <pt x="326" y="22" on="1"/>
        <pt x="307" y="8" on="0"/>
        <pt x="254" y="-11" on="0"/>
        <pt x="224" y="-11" on="1"/>
        <pt x="143" y="-11" on="0"/>
        <pt x="46" y="118" on="0"/>
        <pt x="46" y="245" on="1"/>
        <pt x="46" y="306" on="0"/>
        <pt x="64" y="427" on="0"/>
        <pt x="97" y="538" on="0"/>
        <pt x="146" y="634" on="0"/>
        <pt x="207" y="704" on="0"/>
        <pt x="281" y="744" on="0"/>
        <pt x="323" y="744" on="1"/>
        <pt x="358" y="744" on="0"/>
        <pt x="414" y="713" on="0"/>
        <pt x="432" y="695" on="1"/>
        <pt x="395" y="639" on="1"/>
        <pt x="384" y="650" on="0"/>
        <pt x="346" y="678" on="0"/>
        <pt x="317" y="678" on="1"/>
        <pt x="275" y="678" on="0"/>
        <pt x="202" y="603" on="0"/>
        <pt x="149" y="480" on="0"/>
        <pt x="118" y="323" on="0"/>
        <pt x="118" y="241" on="1"/>
        <pt x="118" y="144" on="0"/>
        <pt x="179" y="53" on="0"/>
        <pt x="232" y="53" on="1"/>
        <pt x="243" y="53" on="0"/>
        <pt x="260" y="58" on="0"/>
        <pt x="265" y="60" on="1"/>
        <pt x="317" y="331" on="1"/>
        <pt x="220" y="331" on="1"/>
        <pt x="231" y="397" on="1"/>
        <pt x="395" y="397" on="1"/>
      </contour>
    </TTGlyph>
    <TTGlyph name="G.alt" xMin="46" yMin="-11" xMax="432" yMax="744">
      <contour>
        <pt x="406" y="397" on="1"/>
        <pt x="398" y="309" on="0"/>
        <pt x="367" y="159" on="0"/>
        <pt x="316" y="50" on="0"/>
        <pt x="245" y="-11" on="0"/>
        <pt x="198" y="-11" on="1"/>
        <pt x="126" y="-11" on="0"/>
        <pt x="46" y="118" on="0"/>
        <pt x="46" y="245" on="1"/>
        <pt x="46" y="306" on="0"/>
        <pt x="64" y="427" on="0"/>
        <pt x="97" y="538" on="0"/>
        <pt x="146" y="634" on="0"/>
        <pt x="207" y="704" on="0"/>
        <pt x="281" y="744" on="0"/>
        <pt x="323" y="744" on="1"/>
        <pt x="358" y="744" on="0"/>
        <pt x="414" y="713" on="0"/>
        <pt x="432" y="695" on="1"/>
        <pt x="395" y="639" on="1"/>
        <pt x="384" y="650" on="0"/>
        <pt x="346" y="678" on="0"/>
        <pt x="317" y="678" on="1"/>
        <pt x="275" y="678" on="0"/>
        <pt x="202" y="603" on="0"/>
        <pt x="149" y="480" on="0"/>
        <pt x="118" y="323" on="0"/>
        <pt x="118" y="241" on="1"/>
        <pt x="118" y="144" on="0"/>
        <pt x="164" y="51" on="0"/>
        <pt x="199" y="51" on="1"/>
        <pt x="226" y="51" on="0"/>
        <pt x="270" y="102" on="0"/>
        <pt x="303" y="183" on="0"/>
        <pt x="324" y="283" on="0"/>
        <pt x="329" y="331" on="1"/>
        <pt x="213" y="331" on="1"/>
        <pt x="224" y="397" on="1"/>
        <pt x="406" y="397" on="1"/>
      </contour>
    </TTGlyph>
    <TTGlyph name="Gbreve" xMin="46" yMin="-11" xMax="436" yMax="880">
      <component glyphName="G" x="0" y="0" flags="0x204"/>
      <component glyphName="breve" x="79" y="290" flags="0x4"/>
    </TTGlyph>
    <TTGlyph name="Gbreve.alt" xMin="46" yMin="-11" xMax="436" yMax="880">
      <component glyphName="G.alt" x="0" y="0" flags="0x204"/>
      <component glyphName="breve" x="79" y="290" flags="0x4"/>
    </TTGlyph>
    <TTGlyph name="Gcommaaccent" xMin="46" yMin="-242" xMax="432" yMax="744">
      <component glyphName="G" x="0" y="0" flags="0x204"/>
      <component glyphName="commaaccent" x="84" y="0" flags="0x4"/>
    </TTGlyph>
    <TTGlyph name="Gcommaaccent.alt" xMin="46" yMin="-242" xMax="432" yMax="744">
      <component glyphName="G.alt" x="0" y="0" flags="0x204"/>
      <component glyphName="commaaccent" x="79" y="0" flags="0x4"/>
    </TTGlyph>
    <TTGlyph name="Gdotaccent" xMin="46" yMin="-11" xMax="432" yMax="865">
      <component glyphName="G" x="0" y="0" flags="0x204"/>
      <component glyphName="dotaccent" x="78" y="290" flags="0x4"/>
    </TTGlyph>
    <TTGlyph name="Gdotaccent.alt" xMin="46" yMin="-11" xMax="432" yMax="865">
      <component glyphName="G.alt" x="0" y="0" flags="0x204"/>
      <component glyphName="dotaccent" x="78" y="290" flags="0x4"/>
    </TTGlyph>
    <TTGlyph name="H" xMin="17" yMin="0" xMax="478" yMax="733">
      <contour>
        <pt x="349" y="0" on="1"/>
        <pt x="279" y="0" on="1"/>
        <pt x="339" y="340" on="1"/>
        <pt x="148" y="340" on="1"/>
        <pt x="87" y="0" on="1"/>
        <pt x="17" y="0" on="1"/>
        <pt x="146" y="733" on="1"/>
        <pt x="216" y="733" on="1"/>
        <pt x="160" y="406" on="1"/>
        <pt x="351" y="406" on="1"/>
        <pt x="408" y="733" on="1"/>
        <pt x="478" y="733" on="1"/>
      </contour>
    </TTGlyph>
    <TTGlyph name="Hbar" xMin="17" yMin="0" xMax="505" yMax="733">
      <contour>
        <pt x="455" y="604" on="1"/>
        <pt x="505" y="604" on="1"/>
        <pt x="496" y="551" on="1"/>
        <pt x="446" y="551" on="1"/>
        <pt x="349" y="0" on="1"/>
        <pt x="279" y="0" on="1"/>
        <pt x="339" y="340" on="1"/>
        <pt x="148" y="340" on="1"/>
        <pt x="87" y="0" on="1"/>
        <pt x="17" y="0" on="1"/>
        <pt x="114" y="551" on="1"/>
        <pt x="64" y="551" on="1"/>
        <pt x="73" y="604" on="1"/>
        <pt x="123" y="604" on="1"/>
        <pt x="146" y="733" on="1"/>
        <pt x="216" y="733" on="1"/>
        <pt x="194" y="604" on="1"/>
        <pt x="385" y="604" on="1"/>
        <pt x="408" y="733" on="1"/>
        <pt x="478" y="733" on="1"/>
      </contour>
      <contour>
        <pt x="351" y="406" on="1"/>
        <pt x="376" y="551" on="1"/>
        <pt x="185" y="551" on="1"/>
        <pt x="160" y="406" on="1"/>
      </contour>
    </TTGlyph>
    <TTGlyph name="I" xMin="21" yMin="0" xMax="221" yMax="733">
      <contour>
        <pt x="91" y="0" on="1"/>
        <pt x="21" y="0" on="1"/>
        <pt x="151" y="733" on="1"/>
        <pt x="221" y="733" on="1"/>
      </contour>
    </TTGlyph>
    <TTGlyph name="Iacute" xMin="21" yMin="0" xMax="326" yMax="900">
      <component glyphName="I" x="0" y="0" flags="0x204"/>
      <component glyphName="acute" x="-5" y="280" flags="0x4"/>
    </TTGlyph>
    <TTGlyph name="Ibreve" xMin="21" yMin="0" xMax="305" yMax="870">
      <component glyphName="I" x="0" y="0" flags="0x204"/>
      <component glyphName="breve" x="-52" y="280" flags="0x4"/>
    </TTGlyph>
    <TTGlyph name="Icircumflex" xMin="21" yMin="0" xMax="302" yMax="899">
      <component glyphName="I" x="0" y="0" flags="0x204"/>
      <component glyphName="circumflex" x="-61" y="280" flags="0x4"/>
    </TTGlyph>
    <TTGlyph name="Idieresis" xMin="21" yMin="0" xMax="300" yMax="855">
      <component glyphName="I" x="0" y="0" flags="0x204"/>
      <component glyphName="dieresis" x="-53" y="280" flags="0x4"/>
    </TTGlyph>
    <TTGlyph name="Idotaccent" xMin="21" yMin="0" xMax="239" yMax="855">
      <component glyphName="I" x="0" y="0" flags="0x204"/>
      <component glyphName="dotaccent" x="-54" y="280" flags="0x4"/>
    </TTGlyph>
    <TTGlyph name="Igrave" xMin="21" yMin="0" xMax="240" yMax="900">
      <component glyphName="I" x="0" y="0" flags="0x204"/>
      <component glyphName="grave" x="-117" y="280" flags="0x4"/>
    </TTGlyph>
    <TTGlyph name="Imacron" xMin="21" yMin="0" xMax="308" yMax="830">
      <component glyphName="I" x="0" y="0" flags="0x204"/>
      <component glyphName="macron" x="-54" y="280" flags="0x4"/>
    </TTGlyph>
    <TTGlyph name="Iogonek" xMin="-38" yMin="-188" xMax="221" yMax="733">
      <contour>
        <pt x="91" y="0" on="1"/>
        <pt x="77" y="0" on="1"/>
        <pt x="52" y="-26" on="0"/>
        <pt x="14" y="-85" on="0"/>
        <pt x="14" y="-116" on="1"/>
        <pt x="14" y="-141" on="0"/>
        <pt x="35" y="-141" on="1"/>
        <pt x="43" y="-141" on="0"/>
        <pt x="60" y="-135" on="0"/>
        <pt x="66" y="-130" on="1"/>
        <pt x="78" y="-165" on="1"/>
        <pt x="65" y="-176" on="0"/>
        <pt x="37" y="-188" on="0"/>
        <pt x="18" y="-188" on="1"/>
        <pt x="-8" y="-188" on="0"/>
        <pt x="-38" y="-157" on="0"/>
        <pt x="-38" y="-131" on="1"/>
        <pt x="-38" y="-94" on="0"/>
        <pt x="1" y="-32" on="0"/>
        <pt x="33" y="0" on="1"/>
        <pt x="21" y="0" on="1"/>
        <pt x="151" y="733" on="1"/>
        <pt x="221" y="733" on="1"/>
      </contour>
    </TTGlyph>
    <TTGlyph name="J" xMin="-27" yMin="-9" xMax="327" yMax="733">
      <contour>
        <pt x="220" y="135" on="1"/>
        <pt x="208" y="67" on="0"/>
        <pt x="137" y="-9" on="0"/>
        <pt x="82" y="-9" on="1"/>
        <pt x="47" y="-9" on="0"/>
        <pt x="-3" y="16" on="0"/>
        <pt x="-27" y="36" on="1"/>
        <pt x="11" y="89" on="1"/>
        <pt x="31" y="72" on="0"/>
        <pt x="64" y="58" on="0"/>
        <pt x="81" y="58" on="1"/>
        <pt x="110" y="58" on="0"/>
        <pt x="145" y="103" on="0"/>
        <pt x="153" y="148" on="1"/>
        <pt x="257" y="733" on="1"/>
        <pt x="327" y="733" on="1"/>
      </contour>
    </TTGlyph>
    <TTGlyph name="K" xMin="16" yMin="0" xMax="461" yMax="733">
      <contour>
        <pt x="216" y="372" on="1"/>
        <pt x="330" y="0" on="1"/>
        <pt x="258" y="0" on="1"/>
        <pt x="150" y="363" on="1"/>
        <pt x="86" y="0" on="1"/>
        <pt x="16" y="0" on="1"/>
        <pt x="145" y="733" on="1"/>
        <pt x="215" y="733" on="1"/>
        <pt x="154" y="388" on="1"/>
        <pt x="384" y="733" on="1"/>
        <pt x="461" y="733" on="1"/>
      </contour>
    </TTGlyph>
    <TTGlyph name="Kcommaaccent" xMin="16" yMin="-232" xMax="461" yMax="733">
      <component glyphName="K" x="0" y="0" flags="0x204"/>
      <component glyphName="commaaccent" x="67" y="10" flags="0x4"/>
    </TTGlyph>
    <TTGlyph name="L" xMin="16" yMin="0" xMax="268" yMax="733">
      <contour>
        <pt x="256" y="0" on="1"/>
        <pt x="16" y="0" on="1"/>
        <pt x="145" y="733" on="1"/>
        <pt x="215" y="733" on="1"/>
        <pt x="98" y="66" on="1"/>
        <pt x="268" y="66" on="1"/>
      </contour>
    </TTGlyph>
    <TTGlyph name="Lacute" xMin="16" yMin="0" xMax="328" yMax="900">
      <component glyphName="L" x="0" y="0" flags="0x204"/>
      <component glyphName="acute" x="-3" y="280" flags="0x4"/>
    </TTGlyph>
    <TTGlyph name="Lcaron" xMin="16" yMin="0" xMax="331" yMax="734">
      <component glyphName="L" x="0" y="0" flags="0x204"/>
      <component glyphName="caron.alt" x="193" y="-6" flags="0x4"/>
    </TTGlyph>
    <TTGlyph name="Lcommaaccent" xMin="16" yMin="-242" xMax="268" yMax="733">
      <component glyphName="L" x="0" y="0" flags="0x204"/>
      <component glyphName="commaaccent" x="33" y="0" flags="0x4"/>
    </TTGlyph>
    <TTGlyph name="Ldot" xMin="16" yMin="0" xMax="307" yMax="733">
      <component glyphName="L" x="0" y="0" flags="0x204"/>
      <component glyphName="dotaccent" x="14" y="-169" flags="0x4"/>
    </TTGlyph>
    <TTGlyph name="Lslash" xMin="17" yMin="0" xMax="278" yMax="733">
      <contour>
        <pt x="266" y="0" on="1"/>
        <pt x="26" y="0" on="1"/>
        <pt x="80" y="306" on="1"/>
        <pt x="17" y="280" on="1"/>
        <pt x="29" y="350" on="1"/>
        <pt x="46" y="357" on="0"/>
        <pt x="60" y="363" on="1"/>
        <pt x="66" y="365" on="0"/>
        <pt x="77" y="370" on="0"/>
        <pt x="82" y="372" on="1"/>
        <pt x="87" y="374" on="0"/>
        <pt x="92" y="376" on="1"/>
        <pt x="155" y="733" on="1"/>
        <pt x="225" y="733" on="1"/>
        <pt x="168" y="408" on="1"/>
        <pt x="220" y="430" on="1"/>
        <pt x="272" y="452" on="1"/>
        <pt x="260" y="382" on="1"/>
        <pt x="156" y="338" on="1"/>
        <pt x="108" y="66" on="1"/>
        <pt x="278" y="66" on="1"/>
      </contour>
    </TTGlyph>
    <TTGlyph name="M" xMin="8" yMin="0" xMax="507" yMax="736">
      <contour>
        <pt x="413" y="0" on="1"/>
        <pt x="344" y="0" on="1"/>
        <pt x="416" y="492" on="1"/>
        <pt x="248" y="136" on="1"/>
        <pt x="231" y="136" on="1"/>
        <pt x="173" y="492" on="1"/>
        <pt x="76" y="0" on="1"/>
        <pt x="8" y="0" on="1"/>
        <pt x="157" y="733" on="1"/>
        <pt x="190" y="736" on="1"/>
        <pt x="265" y="286" on="1"/>
        <pt x="474" y="736" on="1"/>
        <pt x="507" y="733" on="1"/>
      </contour>
    </TTGlyph>
    <TTGlyph name="M.alt" xMin="8" yMin="0" xMax="507" yMax="736">
      <contour>
        <pt x="413" y="0" on="1"/>
        <pt x="344" y="0" on="1"/>
        <pt x="416" y="492" on="1"/>
        <pt x="248" y="136" on="1"/>
        <pt x="231" y="136" on="1"/>
        <pt x="173" y="492" on="1"/>
        <pt x="76" y="0" on="1"/>
        <pt x="8" y="0" on="1"/>
        <pt x="157" y="733" on="1"/>
        <pt x="190" y="736" on="1"/>
        <pt x="265" y="286" on="1"/>
        <pt x="474" y="736" on="1"/>
        <pt x="507" y="733" on="1"/>
      </contour>
    </TTGlyph>
    <TTGlyph name="N" xMin="16" yMin="-2" xMax="476" yMax="735">
      <contour>
        <pt x="346" y="0" on="1"/>
        <pt x="315" y="-2" on="1"/>
        <pt x="175" y="511" on="1"/>
        <pt x="84" y="0" on="1"/>
        <pt x="16" y="0" on="1"/>
        <pt x="146" y="733" on="1"/>
        <pt x="177" y="735" on="1"/>
        <pt x="318" y="225" on="1"/>
        <pt x="408" y="733" on="1"/>
        <pt x="476" y="733" on="1"/>
      </contour>
    </TTGlyph>
    <TTGlyph name="Nacute" xMin="16" yMin="-2" xMax="476" yMax="900">
      <component glyphName="N" x="0" y="0" flags="0x204"/>
      <component glyphName="acute" x="119" y="280" flags="0x4"/>
    </TTGlyph>
    <TTGlyph name="Ncaron" xMin="16" yMin="-2" xMax="476" yMax="894">
      <component glyphName="N" x="0" y="0" flags="0x204"/>
      <component glyphName="caron" x="73" y="280" flags="0x4"/>
    </TTGlyph>
    <TTGlyph name="Ncommaaccent" xMin="16" yMin="-251" xMax="476" yMax="735">
      <component glyphName="N" x="0" y="0" flags="0x204"/>
      <component glyphName="commaaccent" x="78" y="-9" flags="0x4"/>
    </TTGlyph>
    <TTGlyph name="Ntilde" xMin="16" yMin="-2" xMax="476" yMax="856">
      <component glyphName="N" x="0" y="0" flags="0x204"/>
      <component glyphName="tilde" x="67" y="280" flags="0x4"/>
    </TTGlyph>
    <TTGlyph name="O" xMin="46" yMin="-11" xMax="444" yMax="744">
      <contour>
        <pt x="444" y="499" on="1"/>
        <pt x="444" y="454" on="0"/>
        <pt x="431" y="343" on="0"/>
        <pt x="403" y="230" on="0"/>
        <pt x="361" y="123" on="0"/>
        <pt x="304" y="39" on="0"/>
        <pt x="232" y="-11" on="0"/>
        <pt x="188" y="-11" on="1"/>
        <pt x="150" y="-11" on="0"/>
        <pt x="97" y="26" on="0"/>
        <pt x="62" y="91" on="0"/>
        <pt x="46" y="181" on="0"/>
        <pt x="46" y="234" on="1"/>
        <pt x="46" y="279" on="0"/>
        <pt x="59" y="390" on="0"/>
        <pt x="87" y="503" on="0"/>
        <pt x="129" y="610" on="0"/>
        <pt x="186" y="694" on="0"/>
        <pt x="258" y="744" on="0"/>
        <pt x="302" y="744" on="1"/>
        <pt x="339" y="744" on="0"/>
        <pt x="393" y="707" on="0"/>
        <pt x="428" y="642" on="0"/>
        <pt x="444" y="552" on="0"/>
      </contour>
      <contour>
        <pt x="374" y="497" on="1"/>
        <pt x="374" y="586" on="0"/>
        <pt x="332" y="682" on="0"/>
        <pt x="296" y="682" on="1"/>
        <pt x="268" y="682" on="0"/>
        <pt x="220" y="637" on="0"/>
        <pt x="180" y="564" on="0"/>
        <pt x="149" y="469" on="0"/>
        <pt x="127" y="370" on="0"/>
        <pt x="116" y="274" on="0"/>
        <pt x="116" y="236" on="1"/>
        <pt x="116" y="147" on="0"/>
        <pt x="158" y="51" on="0"/>
        <pt x="194" y="51" on="1"/>
        <pt x="222" y="51" on="0"/>
        <pt x="270" y="96" on="0"/>
        <pt x="310" y="169" on="0"/>
        <pt x="341" y="264" on="0"/>
        <pt x="363" y="363" on="0"/>
        <pt x="374" y="459" on="0"/>
      </contour>
    </TTGlyph>
    <TTGlyph name="OE" xMin="48" yMin="-6" xMax="655" yMax="741">
      <contour>
        <pt x="643" y="667" on="1"/>
        <pt x="455" y="667" on="1"/>
        <pt x="410" y="410" on="1"/>
        <pt x="586" y="410" on="1"/>
        <pt x="574" y="344" on="1"/>
        <pt x="398" y="344" on="1"/>
        <pt x="349" y="66" on="1"/>
        <pt x="537" y="66" on="1"/>
        <pt x="526" y="0" on="1"/>
        <pt x="337" y="0" on="1"/>
        <pt x="332" y="-2" on="0"/>
        <pt x="294" y="-6" on="0"/>
        <pt x="277" y="-6" on="1"/>
        <pt x="218" y="-6" on="0"/>
        <pt x="132" y="35" on="0"/>
        <pt x="75" y="109" on="0"/>
        <pt x="48" y="214" on="0"/>
        <pt x="48" y="278" on="1"/>
        <pt x="48" y="365" on="0"/>
        <pt x="93" y="531" on="0"/>
        <pt x="180" y="661" on="0"/>
        <pt x="305" y="741" on="0"/>
        <pt x="385" y="741" on="1"/>
        <pt x="403" y="741" on="0"/>
        <pt x="438" y="736" on="0"/>
        <pt x="451" y="733" on="1"/>
        <pt x="452" y="733" on="0"/>
        <pt x="471" y="732" on="0"/>
        <pt x="500" y="732" on="0"/>
        <pt x="536" y="732" on="0"/>
        <pt x="555" y="732" on="1"/>
        <pt x="599" y="732" on="0"/>
        <pt x="655" y="733" on="1"/>
      </contour>
      <contour>
        <pt x="277" y="58" on="1"/>
        <pt x="387" y="674" on="1"/>
        <pt x="382" y="675" on="0"/>
        <pt x="373" y="677" on="0"/>
        <pt x="366" y="677" on="1"/>
        <pt x="309" y="677" on="0"/>
        <pt x="218" y="605" on="0"/>
        <pt x="154" y="491" on="0"/>
        <pt x="120" y="350" on="0"/>
        <pt x="120" y="281" on="1"/>
        <pt x="120" y="216" on="0"/>
        <pt x="146" y="122" on="0"/>
        <pt x="175" y="93" on="1"/>
        <pt x="195" y="73" on="0"/>
        <pt x="241" y="58" on="0"/>
        <pt x="266" y="58" on="1"/>
      </contour>
    </TTGlyph>
    <TTGlyph name="Oacute" xMin="46" yMin="-11" xMax="450" yMax="910">
      <component glyphName="O" x="0" y="0" flags="0x204"/>
      <component glyphName="acute" x="119" y="290" flags="0x4"/>
    </TTGlyph>
    <TTGlyph name="Obreve" xMin="46" yMin="-11" xMax="444" yMax="880">
      <component glyphName="O" x="0" y="0" flags="0x204"/>
      <component glyphName="breve" x="72" y="290" flags="0x4"/>
    </TTGlyph>
    <TTGlyph name="Ocircumflex" xMin="46" yMin="-11" xMax="444" yMax="909">
      <component glyphName="O" x="0" y="0" flags="0x204"/>
      <component glyphName="circumflex" x="64" y="290" flags="0x4"/>
    </TTGlyph>
    <TTGlyph name="Odieresis" xMin="46" yMin="-11" xMax="444" yMax="865">
      <component glyphName="O" x="0" y="0" flags="0x204"/>
      <component glyphName="dieresis" x="72" y="290" flags="0x4"/>
    </TTGlyph>
    <TTGlyph name="Ograve" xMin="46" yMin="-11" xMax="444" yMax="910">
      <component glyphName="O" x="0" y="0" flags="0x204"/>
      <component glyphName="grave" x="7" y="290" flags="0x4"/>
    </TTGlyph>
    <TTGlyph name="Ohungarumlaut" xMin="46" yMin="-11" xMax="490" yMax="947">
      <component glyphName="O" x="0" y="0" flags="0x204"/>
      <component glyphName="hungarumlaut" x="98" y="290" flags="0x4"/>
    </TTGlyph>
    <TTGlyph name="Omacron" xMin="46" yMin="-11" xMax="444" yMax="840">
      <component glyphName="O" x="0" y="0" flags="0x204"/>
      <component glyphName="macron" x="71" y="290" flags="0x4"/>
    </TTGlyph>
    <TTGlyph name="Oslash" xMin="-17" yMin="-11" xMax="501" yMax="744">
      <contour>
        <pt x="444" y="499" on="1"/>
        <pt x="444" y="454" on="0"/>
        <pt x="431" y="343" on="0"/>
        <pt x="403" y="230" on="0"/>
        <pt x="361" y="123" on="0"/>
        <pt x="304" y="39" on="0"/>
        <pt x="232" y="-11" on="0"/>
        <pt x="188" y="-11" on="1"/>
        <pt x="147" y="-11" on="0"/>
        <pt x="91" y="32" on="0"/>
        <pt x="74" y="70" on="1"/>
        <pt x="21" y="-11" on="1"/>
        <pt x="-17" y="10" on="1"/>
        <pt x="57" y="123" on="1"/>
        <pt x="51" y="148" on="0"/>
        <pt x="46" y="203" on="0"/>
        <pt x="46" y="234" on="1"/>
        <pt x="46" y="279" on="0"/>
        <pt x="59" y="390" on="0"/>
        <pt x="87" y="503" on="0"/>
        <pt x="129" y="610" on="0"/>
        <pt x="186" y="694" on="0"/>
        <pt x="258" y="744" on="0"/>
        <pt x="302" y="744" on="1"/>
        <pt x="341" y="744" on="0"/>
        <pt x="396" y="704" on="0"/>
        <pt x="413" y="669" on="1"/>
        <pt x="462" y="744" on="1"/>
        <pt x="501" y="723" on="1"/>
        <pt x="489" y="704" on="0"/>
        <pt x="477" y="686" on="1"/>
        <pt x="431" y="617" on="1"/>
        <pt x="444" y="566" on="0"/>
      </contour>
      <contour>
        <pt x="374" y="497" on="1"/>
        <pt x="374" y="505" on="0"/>
        <pt x="373" y="520" on="0"/>
        <pt x="373" y="528" on="1"/>
        <pt x="123" y="146" on="1"/>
        <pt x="132" y="100" on="0"/>
        <pt x="168" y="51" on="0"/>
        <pt x="194" y="51" on="1"/>
        <pt x="222" y="51" on="0"/>
        <pt x="270" y="96" on="0"/>
        <pt x="310" y="169" on="0"/>
        <pt x="341" y="264" on="0"/>
        <pt x="363" y="363" on="0"/>
        <pt x="374" y="459" on="0"/>
      </contour>
      <contour>
        <pt x="116" y="214" on="1"/>
        <pt x="365" y="595" on="1"/>
        <pt x="355" y="637" on="0"/>
        <pt x="320" y="682" on="0"/>
        <pt x="296" y="682" on="1"/>
        <pt x="268" y="682" on="0"/>
        <pt x="220" y="637" on="0"/>
        <pt x="180" y="564" on="0"/>
        <pt x="149" y="469" on="0"/>
        <pt x="127" y="370" on="0"/>
        <pt x="116" y="274" on="0"/>
        <pt x="116" y="236" on="1"/>
      </contour>
    </TTGlyph>
    <TTGlyph name="Oslashacute" xMin="-17" yMin="-11" xMax="501" yMax="910">
      <component glyphName="Oslash" x="0" y="0" flags="0x204"/>
      <component glyphName="acute" x="116" y="290" flags="0x4"/>
    </TTGlyph>
    <TTGlyph name="Otilde" xMin="46" yMin="-11" xMax="444" yMax="866">
      <component glyphName="O" x="0" y="0" flags="0x204"/>
      <component glyphName="tilde" x="68" y="290" flags="0x4"/>
    </TTGlyph>
    <TTGlyph name="P" xMin="16" yMin="0" xMax="417" yMax="740">
      <contour>
        <pt x="417" y="548" on="1"/>
        <pt x="417" y="496" on="0"/>
        <pt x="384" y="394" on="0"/>
        <pt x="319" y="314" on="0"/>
        <pt x="224" y="265" on="0"/>
        <pt x="161" y="265" on="1"/>
        <pt x="156" y="265" on="0"/>
        <pt x="138" y="266" on="0"/>
        <pt x="133" y="267" on="1"/>
        <pt x="86" y="0" on="1"/>
        <pt x="16" y="0" on="1"/>
        <pt x="145" y="731" on="1"/>
        <pt x="162" y="735" on="0"/>
        <pt x="201" y="740" on="0"/>
        <pt x="221" y="740" on="1"/>
        <pt x="273" y="740" on="0"/>
        <pt x="348" y="709" on="0"/>
        <pt x="395" y="656" on="0"/>
        <pt x="417" y="587" on="0"/>
      </contour>
      <contour>
        <pt x="345" y="540" on="1"/>
        <pt x="345" y="606" on="0"/>
        <pt x="283" y="676" on="0"/>
        <pt x="226" y="676" on="1"/>
        <pt x="221" y="676" on="0"/>
        <pt x="210" y="675" on="0"/>
        <pt x="205" y="674" on="1"/>
        <pt x="144" y="331" on="1"/>
        <pt x="149" y="330" on="0"/>
        <pt x="164" y="329" on="0"/>
        <pt x="172" y="329" on="1"/>
        <pt x="216" y="329" on="0"/>
        <pt x="281" y="365" on="0"/>
        <pt x="324" y="424" on="0"/>
        <pt x="345" y="500" on="0"/>
      </contour>
    </TTGlyph>
    <TTGlyph name="Q" xMin="46" yMin="-23" xMax="444" yMax="744">
      <contour>
        <pt x="444" y="499" on="1"/>
        <pt x="444" y="455" on="0"/>
        <pt x="431" y="350" on="0"/>
        <pt x="406" y="240" on="0"/>
        <pt x="367" y="136" on="0"/>
        <pt x="341" y="94" on="1"/>
        <pt x="388" y="4" on="1"/>
        <pt x="334" y="-23" on="1"/>
        <pt x="324" y="-5" on="0"/>
        <pt x="317" y="9" on="1"/>
        <pt x="314" y="15" on="0"/>
        <pt x="307" y="26" on="0"/>
        <pt x="305" y="31" on="1"/>
        <pt x="300" y="41" on="1"/>
        <pt x="277" y="17" on="0"/>
        <pt x="220" y="-11" on="0"/>
        <pt x="188" y="-11" on="1"/>
        <pt x="150" y="-11" on="0"/>
        <pt x="97" y="26" on="0"/>
        <pt x="62" y="91" on="0"/>
        <pt x="46" y="181" on="0"/>
        <pt x="46" y="234" on="1"/>
        <pt x="46" y="279" on="0"/>
        <pt x="59" y="390" on="0"/>
        <pt x="87" y="503" on="0"/>
        <pt x="129" y="610" on="0"/>
        <pt x="186" y="694" on="0"/>
        <pt x="258" y="744" on="0"/>
        <pt x="302" y="744" on="1"/>
        <pt x="339" y="744" on="0"/>
        <pt x="393" y="707" on="0"/>
        <pt x="428" y="642" on="0"/>
        <pt x="444" y="552" on="0"/>
      </contour>
      <contour>
        <pt x="374" y="497" on="1"/>
        <pt x="374" y="586" on="0"/>
        <pt x="332" y="682" on="0"/>
        <pt x="296" y="682" on="1"/>
        <pt x="268" y="682" on="0"/>
        <pt x="220" y="637" on="0"/>
        <pt x="180" y="564" on="0"/>
        <pt x="149" y="469" on="0"/>
        <pt x="127" y="370" on="0"/>
        <pt x="116" y="274" on="0"/>
        <pt x="116" y="236" on="1"/>
        <pt x="116" y="147" on="0"/>
        <pt x="158" y="51" on="0"/>
        <pt x="194" y="51" on="1"/>
        <pt x="215" y="51" on="0"/>
        <pt x="253" y="77" on="0"/>
        <pt x="270" y="100" on="1"/>
        <pt x="199" y="238" on="1"/>
        <pt x="250" y="269" on="1"/>
        <pt x="305" y="164" on="1"/>
        <pt x="321" y="201" on="0"/>
        <pt x="347" y="289" on="0"/>
        <pt x="365" y="378" on="0"/>
        <pt x="374" y="462" on="0"/>
      </contour>
    </TTGlyph>
    <TTGlyph name="R" xMin="16" yMin="0" xMax="417" yMax="740">
      <contour>
        <pt x="417" y="556" on="1"/>
        <pt x="417" y="515" on="0"/>
        <pt x="397" y="440" on="0"/>
        <pt x="360" y="377" on="0"/>
        <pt x="306" y="327" on="0"/>
        <pt x="272" y="312" on="1"/>
        <pt x="351" y="0" on="1"/>
        <pt x="277" y="0" on="1"/>
        <pt x="206" y="295" on="1"/>
        <pt x="199" y="294" on="0"/>
        <pt x="185" y="293" on="0"/>
        <pt x="177" y="293" on="1"/>
        <pt x="164" y="293" on="0"/>
        <pt x="144" y="293" on="0"/>
        <pt x="139" y="295" on="1"/>
        <pt x="139" y="295" on="0"/>
        <pt x="134" y="269" on="0"/>
        <pt x="127" y="228" on="0"/>
        <pt x="117" y="175" on="0"/>
        <pt x="112" y="147" on="1"/>
        <pt x="101" y="82" on="0"/>
        <pt x="86" y="0" on="1"/>
        <pt x="16" y="0" on="1"/>
        <pt x="145" y="731" on="1"/>
        <pt x="162" y="735" on="0"/>
        <pt x="204" y="740" on="0"/>
        <pt x="224" y="740" on="1"/>
        <pt x="276" y="740" on="0"/>
        <pt x="349" y="710" on="0"/>
        <pt x="395" y="659" on="0"/>
        <pt x="417" y="592" on="0"/>
      </contour>
      <contour>
        <pt x="345" y="548" on="1"/>
        <pt x="345" y="609" on="0"/>
        <pt x="285" y="676" on="0"/>
        <pt x="229" y="676" on="1"/>
        <pt x="224" y="676" on="0"/>
        <pt x="210" y="675" on="0"/>
        <pt x="205" y="674" on="1"/>
        <pt x="149" y="356" on="1"/>
        <pt x="158" y="354" on="0"/>
        <pt x="173" y="353" on="0"/>
        <pt x="183" y="353" on="1"/>
        <pt x="221" y="353" on="0"/>
        <pt x="281" y="383" on="0"/>
        <pt x="323" y="435" on="0"/>
        <pt x="345" y="506" on="0"/>
      </contour>
    </TTGlyph>
    <TTGlyph name="Racute" xMin="16" yMin="0" xMax="418" yMax="900">
      <component glyphName="R" x="0" y="0" flags="0x204"/>
      <component glyphName="acute" x="87" y="280" flags="0x4"/>
    </TTGlyph>
    <TTGlyph name="Rcaron" xMin="16" yMin="0" xMax="421" yMax="894">
      <component glyphName="R" x="0" y="0" flags="0x204"/>
      <component glyphName="caron" x="41" y="280" flags="0x4"/>
    </TTGlyph>
    <TTGlyph name="Rcommaaccent" xMin="16" yMin="-232" xMax="417" yMax="740">
      <component glyphName="R" x="0" y="0" flags="0x204"/>
      <component glyphName="commaaccent" x="48" y="10" flags="0x4"/>
    </TTGlyph>
    <TTGlyph name="S" xMin="-12" yMin="-11" xMax="399" yMax="744">
      <contour>
        <pt x="365" y="624" on="1"/>
        <pt x="341" y="650" on="0"/>
        <pt x="287" y="679" on="0"/>
        <pt x="258" y="679" on="1"/>
        <pt x="233" y="679" on="0"/>
        <pt x="197" y="660" on="0"/>
        <pt x="173" y="628" on="0"/>
        <pt x="162" y="589" on="0"/>
        <pt x="162" y="570" on="1"/>
        <pt x="162" y="524" on="0"/>
        <pt x="209" y="436" on="0"/>
        <pt x="239" y="393" on="1"/>
        <pt x="257" y="367" on="0"/>
        <pt x="289" y="317" on="0"/>
        <pt x="313" y="265" on="0"/>
        <pt x="327" y="209" on="0"/>
        <pt x="327" y="178" on="1"/>
        <pt x="327" y="134" on="0"/>
        <pt x="298" y="64" on="0"/>
        <pt x="251" y="15" on="0"/>
        <pt x="190" y="-11" on="0"/>
        <pt x="159" y="-11" on="1"/>
        <pt x="127" y="-11" on="0"/>
        <pt x="76" y="4" on="0"/>
        <pt x="35" y="27" on="0"/>
        <pt x="2" y="56" on="0"/>
        <pt x="-12" y="70" on="1"/>
        <pt x="26" y="128" on="1"/>
        <pt x="58" y="95" on="0"/>
        <pt x="119" y="54" on="0"/>
        <pt x="159" y="54" on="1"/>
        <pt x="182" y="54" on="0"/>
        <pt x="218" y="74" on="0"/>
        <pt x="244" y="108" on="0"/>
        <pt x="257" y="151" on="0"/>
        <pt x="257" y="175" on="1"/>
        <pt x="257" y="202" on="0"/>
        <pt x="240" y="253" on="0"/>
        <pt x="215" y="300" on="0"/>
        <pt x="184" y="344" on="0"/>
        <pt x="170" y="366" on="1"/>
        <pt x="155" y="390" on="0"/>
        <pt x="127" y="435" on="0"/>
        <pt x="106" y="482" on="0"/>
        <pt x="93" y="534" on="0"/>
        <pt x="93" y="565" on="1"/>
        <pt x="93" y="604" on="0"/>
        <pt x="118" y="669" on="0"/>
        <pt x="162" y="717" on="0"/>
        <pt x="224" y="744" on="0"/>
        <pt x="260" y="744" on="1"/>
        <pt x="285" y="744" on="0"/>
        <pt x="327" y="732" on="0"/>
        <pt x="362" y="713" on="0"/>
        <pt x="389" y="691" on="0"/>
        <pt x="399" y="681" on="1"/>
      </contour>
    </TTGlyph>
    <TTGlyph name="Sacute" xMin="-12" yMin="-11" xMax="408" yMax="910">
      <component glyphName="S" x="0" y="0" flags="0x204"/>
      <component glyphName="acute" x="77" y="290" flags="0x4"/>
    </TTGlyph>
    <TTGlyph name="Scaron" xMin="-12" yMin="-11" xMax="412" yMax="904">
      <component glyphName="S" x="0" y="0" flags="0x204"/>
      <component glyphName="caron" x="32" y="290" flags="0x4"/>
    </TTGlyph>
    <TTGlyph name="Scedilla" xMin="-12" yMin="-179" xMax="399" yMax="744">
      <contour>
        <pt x="211" y="-104" on="1"/>
        <pt x="211" y="-137" on="0"/>
        <pt x="166" y="-179" on="0"/>
        <pt x="129" y="-179" on="1"/>
        <pt x="87" y="-179" on="0"/>
        <pt x="46" y="-153" on="1"/>
        <pt x="68" y="-117" on="1"/>
        <pt x="85" y="-129" on="0"/>
        <pt x="116" y="-139" on="0"/>
        <pt x="131" y="-139" on="1"/>
        <pt x="146" y="-139" on="0"/>
        <pt x="166" y="-121" on="0"/>
        <pt x="166" y="-108" on="1"/>
        <pt x="166" y="-94" on="0"/>
        <pt x="133" y="-72" on="0"/>
        <pt x="95" y="-70" on="1"/>
        <pt x="94" y="-64" on="1"/>
        <pt x="117" y="-7" on="1"/>
        <pt x="72" y="1" on="0"/>
        <pt x="11" y="47" on="0"/>
        <pt x="-12" y="70" on="1"/>
        <pt x="26" y="128" on="1"/>
        <pt x="58" y="95" on="0"/>
        <pt x="119" y="54" on="0"/>
        <pt x="159" y="54" on="1"/>
        <pt x="182" y="54" on="0"/>
        <pt x="218" y="74" on="0"/>
        <pt x="244" y="108" on="0"/>
        <pt x="257" y="151" on="0"/>
        <pt x="257" y="175" on="1"/>
        <pt x="257" y="202" on="0"/>
        <pt x="240" y="253" on="0"/>
        <pt x="215" y="300" on="0"/>
        <pt x="184" y="344" on="0"/>
        <pt x="170" y="366" on="1"/>
        <pt x="155" y="390" on="0"/>
        <pt x="127" y="435" on="0"/>
        <pt x="106" y="482" on="0"/>
        <pt x="93" y="534" on="0"/>
        <pt x="93" y="565" on="1"/>
        <pt x="93" y="604" on="0"/>
        <pt x="118" y="669" on="0"/>
        <pt x="162" y="717" on="0"/>
        <pt x="224" y="744" on="0"/>
        <pt x="260" y="744" on="1"/>
        <pt x="285" y="744" on="0"/>
        <pt x="327" y="732" on="0"/>
        <pt x="362" y="713" on="0"/>
        <pt x="389" y="691" on="0"/>
        <pt x="399" y="681" on="1"/>
        <pt x="365" y="624" on="1"/>
        <pt x="341" y="650" on="0"/>
        <pt x="287" y="679" on="0"/>
        <pt x="258" y="679" on="1"/>
        <pt x="233" y="679" on="0"/>
        <pt x="197" y="660" on="0"/>
        <pt x="173" y="628" on="0"/>
        <pt x="162" y="589" on="0"/>
        <pt x="162" y="570" on="1"/>
        <pt x="162" y="524" on="0"/>
        <pt x="209" y="436" on="0"/>
        <pt x="239" y="393" on="1"/>
        <pt x="257" y="367" on="0"/>
        <pt x="289" y="317" on="0"/>
        <pt x="313" y="265" on="0"/>
        <pt x="327" y="209" on="0"/>
        <pt x="327" y="178" on="1"/>
        <pt x="327" y="134" on="0"/>
        <pt x="298" y="64" on="0"/>
        <pt x="251" y="15" on="0"/>
        <pt x="190" y="-11" on="0"/>
        <pt x="159" y="-11" on="1"/>
        <pt x="154" y="-11" on="1"/>
        <pt x="144" y="-37" on="1"/>
        <pt x="183" y="-45" on="0"/>
        <pt x="211" y="-84" on="0"/>
      </contour>
    </TTGlyph>
    <TTGlyph name="Scommaaccent" xMin="-12" yMin="-242" xMax="399" yMax="744">
      <component glyphName="S" x="0" y="0" flags="0x204"/>
      <component glyphName="commaaccent" x="35" y="0" flags="0x4"/>
    </TTGlyph>
    <TTGlyph name="T" xMin="90" yMin="0" xMax="404" yMax="733">
      <contour>
        <pt x="393" y="667" on="1"/>
        <pt x="278" y="667" on="1"/>
        <pt x="160" y="0" on="1"/>
        <pt x="90" y="0" on="1"/>
        <pt x="208" y="667" on="1"/>
        <pt x="93" y="667" on="1"/>
        <pt x="104" y="733" on="1"/>
        <pt x="404" y="733" on="1"/>
      </contour>
    </TTGlyph>
    <TTGlyph name="Tcaron" xMin="90" yMin="0" xMax="404" yMax="894">
      <component glyphName="T" x="0" y="0" flags="0x204"/>
      <component glyphName="caron" x="19" y="280" flags="0x4"/>
    </TTGlyph>
    <TTGlyph name="Tcommaaccent" xMin="42" yMin="-242" xMax="404" yMax="733">
      <component glyphName="T" x="0" y="0" flags="0x204"/>
      <component glyphName="commaaccent" x="24" y="0" flags="0x4"/>
    </TTGlyph>
    <TTGlyph name="Thorn" xMin="16" yMin="0" xMax="398" yMax="733">
      <contour>
        <pt x="146" y="733" on="1"/>
        <pt x="216" y="733" on="1"/>
        <pt x="198" y="630" on="1"/>
        <pt x="202" y="630" on="1"/>
        <pt x="254" y="630" on="0"/>
        <pt x="329" y="599" on="0"/>
        <pt x="376" y="546" on="0"/>
        <pt x="398" y="477" on="0"/>
        <pt x="398" y="438" on="1"/>
        <pt x="398" y="386" on="0"/>
        <pt x="365" y="284" on="0"/>
        <pt x="300" y="204" on="0"/>
        <pt x="205" y="155" on="0"/>
        <pt x="142" y="155" on="1"/>
        <pt x="137" y="155" on="0"/>
        <pt x="119" y="156" on="0"/>
        <pt x="114" y="157" on="1"/>
        <pt x="86" y="0" on="1"/>
        <pt x="16" y="0" on="1"/>
      </contour>
      <contour>
        <pt x="326" y="430" on="1"/>
        <pt x="326" y="496" on="0"/>
        <pt x="264" y="566" on="0"/>
        <pt x="207" y="566" on="1"/>
        <pt x="202" y="566" on="0"/>
        <pt x="191" y="565" on="0"/>
        <pt x="186" y="564" on="1"/>
        <pt x="125" y="221" on="1"/>
        <pt x="130" y="220" on="0"/>
        <pt x="145" y="219" on="0"/>
        <pt x="153" y="219" on="1"/>
        <pt x="197" y="219" on="0"/>
        <pt x="262" y="255" on="0"/>
        <pt x="305" y="314" on="0"/>
        <pt x="326" y="390" on="0"/>
      </contour>
    </TTGlyph>
    <TTGlyph name="U" xMin="41" yMin="-11" xMax="467" yMax="733">
      <contour>
        <pt x="373" y="197" on="1"/>
        <pt x="359" y="91" on="0"/>
        <pt x="263" y="-11" on="0"/>
        <pt x="189" y="-11" on="1"/>
        <pt x="124" y="-11" on="0"/>
        <pt x="41" y="63" on="0"/>
        <pt x="41" y="132" on="1"/>
        <pt x="41" y="145" on="0"/>
        <pt x="45" y="179" on="0"/>
        <pt x="47" y="192" on="1"/>
        <pt x="142" y="733" on="1"/>
        <pt x="212" y="733" on="1"/>
        <pt x="116" y="191" on="1"/>
        <pt x="114" y="179" on="0"/>
        <pt x="111" y="148" on="0"/>
        <pt x="111" y="138" on="1"/>
        <pt x="111" y="93" on="0"/>
        <pt x="158" y="51" on="0"/>
        <pt x="195" y="51" on="1"/>
        <pt x="231" y="51" on="0"/>
        <pt x="287" y="110" on="0"/>
        <pt x="301" y="187" on="1"/>
        <pt x="397" y="733" on="1"/>
        <pt x="467" y="733" on="1"/>
      </contour>
    </TTGlyph>
    <TTGlyph name="Uacute" xMin="41" yMin="-11" xMax="467" yMax="900">
      <component glyphName="U" x="0" y="0" flags="0x204"/>
      <component glyphName="acute" x="112" y="280" flags="0x4"/>
    </TTGlyph>
    <TTGlyph name="Ubreve" xMin="41" yMin="-11" xMax="467" yMax="870">
      <component glyphName="U" x="0" y="0" flags="0x204"/>
      <component glyphName="breve" x="64" y="280" flags="0x4"/>
    </TTGlyph>
    <TTGlyph name="Ucircumflex" xMin="41" yMin="-11" xMax="467" yMax="899">
      <component glyphName="U" x="0" y="0" flags="0x204"/>
      <component glyphName="circumflex" x="56" y="280" flags="0x4"/>
    </TTGlyph>
    <TTGlyph name="Udieresis" xMin="41" yMin="-11" xMax="467" yMax="855">
      <component glyphName="U" x="0" y="0" flags="0x204"/>
      <component glyphName="dieresis" x="64" y="280" flags="0x4"/>
    </TTGlyph>
    <TTGlyph name="Ugrave" xMin="41" yMin="-11" xMax="467" yMax="900">
      <component glyphName="U" x="0" y="0" flags="0x204"/>
      <component glyphName="grave" x="0" y="280" flags="0x4"/>
    </TTGlyph>
    <TTGlyph name="Uhungarumlaut" xMin="41" yMin="-11" xMax="482" yMax="937">
      <component glyphName="U" x="0" y="0" flags="0x204"/>
      <component glyphName="hungarumlaut" x="90" y="280" flags="0x4"/>
    </TTGlyph>
    <TTGlyph name="Umacron" xMin="41" yMin="-11" xMax="467" yMax="830">
      <component glyphName="U" x="0" y="0" flags="0x204"/>
      <component glyphName="macron" x="63" y="280" flags="0x4"/>
    </TTGlyph>
    <TTGlyph name="Uogonek" xMin="41" yMin="-188" xMax="467" yMax="733">
      <contour>
        <pt x="373" y="197" on="1"/>
        <pt x="359" y="95" on="0"/>
        <pt x="269" y="-7" on="0"/>
        <pt x="199" y="-11" on="1"/>
        <pt x="177" y="-35" on="0"/>
        <pt x="146" y="-88" on="0"/>
        <pt x="146" y="-116" on="1"/>
        <pt x="146" y="-141" on="0"/>
        <pt x="167" y="-141" on="1"/>
        <pt x="175" y="-141" on="0"/>
        <pt x="192" y="-135" on="0"/>
        <pt x="198" y="-130" on="1"/>
        <pt x="210" y="-165" on="1"/>
        <pt x="197" y="-176" on="0"/>
        <pt x="169" y="-188" on="0"/>
        <pt x="150" y="-188" on="1"/>
        <pt x="124" y="-188" on="0"/>
        <pt x="94" y="-157" on="0"/>
        <pt x="94" y="-131" on="1"/>
        <pt x="94" y="-97" on="0"/>
        <pt x="127" y="-37" on="0"/>
        <pt x="156" y="-8" on="1"/>
        <pt x="105" y="0" on="0"/>
        <pt x="41" y="72" on="0"/>
        <pt x="41" y="132" on="1"/>
        <pt x="41" y="145" on="0"/>
        <pt x="45" y="179" on="0"/>
        <pt x="47" y="192" on="1"/>
        <pt x="142" y="733" on="1"/>
        <pt x="212" y="733" on="1"/>
        <pt x="116" y="191" on="1"/>
        <pt x="114" y="179" on="0"/>
        <pt x="111" y="148" on="0"/>
        <pt x="111" y="138" on="1"/>
        <pt x="111" y="93" on="0"/>
        <pt x="158" y="51" on="0"/>
        <pt x="195" y="51" on="1"/>
        <pt x="231" y="51" on="0"/>
        <pt x="287" y="110" on="0"/>
        <pt x="301" y="187" on="1"/>
        <pt x="397" y="733" on="1"/>
        <pt x="467" y="733" on="1"/>
      </contour>
    </TTGlyph>
    <TTGlyph name="Uring" xMin="41" yMin="-11" xMax="467" yMax="945">
      <component glyphName="U" x="0" y="0" flags="0x204"/>
      <component glyphName="ring" x="57" y="280" flags="0x4"/>
    </TTGlyph>
    <TTGlyph name="V" xMin="103" yMin="-7" xMax="463" yMax="733">
      <contour>
        <pt x="163" y="-7" on="1"/>
        <pt x="130" y="-7" on="1"/>
        <pt x="103" y="733" on="1"/>
        <pt x="172" y="733" on="1"/>
        <pt x="184" y="187" on="1"/>
        <pt x="390" y="733" on="1"/>
        <pt x="463" y="733" on="1"/>
      </contour>
    </TTGlyph>
    <TTGlyph name="W" xMin="69" yMin="-4" xMax="632" yMax="733">
      <contour>
        <pt x="371" y="-4" on="1"/>
        <pt x="337" y="-4" on="1"/>
        <pt x="329" y="539" on="1"/>
        <pt x="103" y="-4" on="1"/>
        <pt x="69" y="-4" on="1"/>
        <pt x="108" y="733" on="1"/>
        <pt x="177" y="733" on="1"/>
        <pt x="140" y="214" on="1"/>
        <pt x="352" y="733" on="1"/>
        <pt x="386" y="733" on="1"/>
        <pt x="393" y="214" on="1"/>
        <pt x="559" y="733" on="1"/>
        <pt x="632" y="733" on="1"/>
      </contour>
    </TTGlyph>
    <TTGlyph name="Wacute" xMin="69" yMin="-4" xMax="632" yMax="900">
      <component glyphName="W" x="0" y="0" flags="0x204"/>
      <component glyphName="acute" x="171" y="280" flags="0x4"/>
    </TTGlyph>
    <TTGlyph name="Wcircumflex" xMin="69" yMin="-4" xMax="632" yMax="899">
      <component glyphName="W" x="0" y="0" flags="0x204"/>
      <component glyphName="circumflex" x="116" y="280" flags="0x4"/>
    </TTGlyph>
    <TTGlyph name="Wdieresis" xMin="69" yMin="-4" xMax="632" yMax="855">
      <component glyphName="W" x="0" y="0" flags="0x204"/>
      <component glyphName="dieresis" x="124" y="280" flags="0x4"/>
    </TTGlyph>
    <TTGlyph name="Wgrave" xMin="69" yMin="-4" xMax="632" yMax="900">
      <component glyphName="W" x="0" y="0" flags="0x204"/>
      <component glyphName="grave" x="59" y="280" flags="0x4"/>
    </TTGlyph>
    <TTGlyph name="X" xMin="-42" yMin="0" xMax="440" yMax="733">
      <contour>
        <pt x="239" y="366" on="1"/>
        <pt x="314" y="0" on="1"/>
        <pt x="245" y="0" on="1"/>
        <pt x="191" y="304" on="1"/>
        <pt x="31" y="0" on="1"/>
        <pt x="-42" y="0" on="1"/>
        <pt x="167" y="377" on="1"/>
        <pt x="94" y="733" on="1"/>
        <pt x="161" y="733" on="1"/>
        <pt x="215" y="438" on="1"/>
        <pt x="368" y="733" on="1"/>
        <pt x="440" y="733" on="1"/>
      </contour>
    </TTGlyph>
    <TTGlyph name="Y" xMin="92" yMin="0" xMax="456" yMax="733">
      <contour>
        <pt x="230" y="284" on="1"/>
        <pt x="180" y="0" on="1"/>
        <pt x="110" y="0" on="1"/>
        <pt x="160" y="285" on="1"/>
        <pt x="92" y="733" on="1"/>
        <pt x="160" y="733" on="1"/>
        <pt x="211" y="369" on="1"/>
        <pt x="381" y="733" on="1"/>
        <pt x="456" y="733" on="1"/>
      </contour>
    </TTGlyph>
    <TTGlyph name="Yacute" xMin="92" yMin="0" xMax="456" yMax="900">
      <component glyphName="Y" x="0" y="0" flags="0x204"/>
      <component glyphName="acute" x="85" y="280" flags="0x4"/>
    </TTGlyph>
    <TTGlyph name="Ycircumflex" xMin="92" yMin="0" xMax="456" yMax="899">
      <component glyphName="Y" x="0" y="0" flags="0x204"/>
      <component glyphName="circumflex" x="29" y="280" flags="0x4"/>
    </TTGlyph>
    <TTGlyph name="Ydieresis" xMin="92" yMin="0" xMax="456" yMax="855">
      <component glyphName="Y" x="0" y="0" flags="0x204"/>
      <component glyphName="dieresis" x="37" y="280" flags="0x4"/>
    </TTGlyph>
    <TTGlyph name="Ygrave" xMin="92" yMin="0" xMax="456" yMax="900">
      <component glyphName="Y" x="0" y="0" flags="0x204"/>
      <component glyphName="grave" x="-26" y="280" flags="0x4"/>
    </TTGlyph>
    <TTGlyph name="Z" xMin="-24" yMin="0" xMax="419" yMax="733">
      <contour>
        <pt x="78" y="67" on="1"/>
        <pt x="302" y="67" on="1"/>
        <pt x="290" y="0" on="1"/>
        <pt x="-20" y="0" on="1"/>
        <pt x="-24" y="11" on="1"/>
        <pt x="317" y="666" on="1"/>
        <pt x="105" y="666" on="1"/>
        <pt x="117" y="733" on="1"/>
        <pt x="415" y="733" on="1"/>
        <pt x="419" y="721" on="1"/>
      </contour>
    </TTGlyph>
    <TTGlyph name="Zacute" xMin="-24" yMin="0" xMax="419" yMax="900">
      <component glyphName="Z" x="0" y="0" flags="0x204"/>
      <component glyphName="acute" x="70" y="280" flags="0x4"/>
    </TTGlyph>
    <TTGlyph name="Zcaron" xMin="-24" yMin="0" xMax="419" yMax="894">
      <component glyphName="Z" x="0" y="0" flags="0x204"/>
      <component glyphName="caron" x="24" y="280" flags="0x4"/>
    </TTGlyph>
    <TTGlyph name="Zdotaccent" xMin="-24" yMin="0" xMax="419" yMax="855">
      <component glyphName="Z" x="0" y="0" flags="0x204"/>
      <component glyphName="dotaccent" x="21" y="280" flags="0x4"/>
    </TTGlyph>
    <TTGlyph name="a" xMin="6" yMin="-9" xMax="301" yMax="457">
      <contour>
        <pt x="301" y="360" on="1"/>
        <pt x="301" y="351" on="0"/>
        <pt x="298" y="319" on="0"/>
        <pt x="296" y="307" on="1"/>
        <pt x="242" y="0" on="1"/>
        <pt x="178" y="0" on="1"/>
        <pt x="186" y="48" on="1"/>
        <pt x="175" y="29" on="0"/>
        <pt x="127" y="-9" on="0"/>
        <pt x="95" y="-9" on="1"/>
        <pt x="60" y="-9" on="0"/>
        <pt x="6" y="46" on="0"/>
        <pt x="6" y="105" on="1"/>
        <pt x="6" y="138" on="0"/>
        <pt x="24" y="201" on="0"/>
        <pt x="57" y="250" on="0"/>
        <pt x="105" y="280" on="0"/>
        <pt x="134" y="280" on="1"/>
        <pt x="161" y="280" on="0"/>
        <pt x="201" y="254" on="0"/>
        <pt x="217" y="234" on="1"/>
        <pt x="228" y="297" on="1"/>
        <pt x="230" y="305" on="0"/>
        <pt x="233" y="331" on="0"/>
        <pt x="233" y="341" on="1"/>
        <pt x="233" y="369" on="0"/>
        <pt x="201" y="394" on="0"/>
        <pt x="175" y="394" on="1"/>
        <pt x="142" y="394" on="0"/>
        <pt x="98" y="374" on="1"/>
        <pt x="90" y="432" on="1"/>
        <pt x="103" y="438" on="0"/>
        <pt x="163" y="457" on="0"/>
        <pt x="195" y="457" on="1"/>
        <pt x="214" y="457" on="0"/>
        <pt x="251" y="447" on="0"/>
        <pt x="281" y="425" on="0"/>
        <pt x="301" y="388" on="0"/>
      </contour>
      <contour>
        <pt x="209" y="188" on="1"/>
        <pt x="198" y="207" on="0"/>
        <pt x="166" y="230" on="0"/>
        <pt x="146" y="230" on="1"/>
        <pt x="129" y="230" on="0"/>
        <pt x="102" y="211" on="0"/>
        <pt x="82" y="180" on="0"/>
        <pt x="71" y="138" on="0"/>
        <pt x="71" y="114" on="1"/>
        <pt x="71" y="87" on="0"/>
        <pt x="94" y="46" on="0"/>
        <pt x="122" y="46" on="1"/>
        <pt x="142" y="46" on="0"/>
        <pt x="179" y="73" on="0"/>
        <pt x="192" y="92" on="1"/>
      </contour>
    </TTGlyph>
    <TTGlyph name="aacute" xMin="6" yMin="-9" xMax="348" yMax="620">
      <component glyphName="a" x="0" y="0" flags="0x204"/>
      <component glyphName="acute" x="17" y="0" flags="0x4"/>
    </TTGlyph>
    <TTGlyph name="abreve" xMin="6" yMin="-9" xMax="328" yMax="590">
      <component glyphName="a" x="0" y="0" flags="0x204"/>
      <component glyphName="breve" x="-29" y="0" flags="0x4"/>
    </TTGlyph>
    <TTGlyph name="acircumflex" xMin="6" yMin="-9" xMax="326" yMax="619">
      <component glyphName="a" x="0" y="0" flags="0x204"/>
      <component glyphName="circumflex" x="-37" y="0" flags="0x4"/>
    </TTGlyph>
    <TTGlyph name="acute" xMin="165" yMin="491" xMax="331" yMax="620">
      <contour>
        <pt x="185" y="491" on="1"/>
        <pt x="165" y="521" on="1"/>
        <pt x="298" y="620" on="1"/>
        <pt x="331" y="562" on="1"/>
      </contour>
    </TTGlyph>
    <TTGlyph name="adieresis" xMin="6" yMin="-9" xMax="324" yMax="575">
      <component glyphName="a" x="0" y="0" flags="0x204"/>
      <component glyphName="dieresis" x="-29" y="0" flags="0x4"/>
    </TTGlyph>
    <TTGlyph name="ae" xMin="6" yMin="-11" xMax="496" yMax="457">
      <contour>
        <pt x="105" y="-11" on="1"/>
        <pt x="87" y="-11" on="0"/>
        <pt x="51" y="3" on="0"/>
        <pt x="23" y="31" on="0"/>
        <pt x="6" y="75" on="0"/>
        <pt x="6" y="104" on="1"/>
        <pt x="6" y="138" on="0"/>
        <pt x="24" y="201" on="0"/>
        <pt x="57" y="250" on="0"/>
        <pt x="105" y="280" on="0"/>
        <pt x="134" y="280" on="1"/>
        <pt x="161" y="280" on="0"/>
        <pt x="201" y="254" on="0"/>
        <pt x="217" y="234" on="1"/>
        <pt x="228" y="296" on="1"/>
        <pt x="230" y="304" on="0"/>
        <pt x="233" y="331" on="0"/>
        <pt x="233" y="341" on="1"/>
        <pt x="233" y="369" on="0"/>
        <pt x="201" y="394" on="0"/>
        <pt x="175" y="394" on="1"/>
        <pt x="142" y="394" on="0"/>
        <pt x="98" y="374" on="1"/>
        <pt x="90" y="432" on="1"/>
        <pt x="103" y="438" on="0"/>
        <pt x="163" y="457" on="0"/>
        <pt x="195" y="457" on="1"/>
        <pt x="225" y="457" on="0"/>
        <pt x="276" y="431" on="0"/>
        <pt x="286" y="394" on="1"/>
        <pt x="308" y="426" on="0"/>
        <pt x="363" y="457" on="0"/>
        <pt x="394" y="457" on="1"/>
        <pt x="445" y="457" on="0"/>
        <pt x="496" y="384" on="0"/>
        <pt x="496" y="318" on="1"/>
        <pt x="496" y="295" on="0"/>
        <pt x="487" y="236" on="0"/>
        <pt x="476" y="199" on="1"/>
        <pt x="278" y="199" on="1"/>
        <pt x="277" y="189" on="0"/>
        <pt x="276" y="166" on="0"/>
        <pt x="276" y="153" on="1"/>
        <pt x="276" y="105" on="0"/>
        <pt x="315" y="46" on="0"/>
        <pt x="354" y="46" on="1"/>
        <pt x="368" y="46" on="0"/>
        <pt x="406" y="59" on="0"/>
        <pt x="420" y="68" on="1"/>
        <pt x="434" y="16" on="1"/>
        <pt x="392" y="-11" on="0"/>
        <pt x="344" y="-11" on="1"/>
        <pt x="307" y="-11" on="0"/>
        <pt x="240" y="31" on="0"/>
        <pt x="226" y="82" on="1"/>
        <pt x="218" y="66" on="0"/>
        <pt x="197" y="33" on="0"/>
        <pt x="168" y="6" on="0"/>
        <pt x="130" y="-11" on="0"/>
      </contour>
      <contour>
        <pt x="121" y="45" on="1"/>
        <pt x="128" y="45" on="0"/>
        <pt x="153" y="56" on="0"/>
        <pt x="179" y="88" on="0"/>
        <pt x="203" y="143" on="0"/>
        <pt x="209" y="188" on="1"/>
        <pt x="198" y="207" on="0"/>
        <pt x="166" y="230" on="0"/>
        <pt x="146" y="230" on="1"/>
        <pt x="129" y="230" on="0"/>
        <pt x="102" y="211" on="0"/>
        <pt x="82" y="180" on="0"/>
        <pt x="71" y="137" on="0"/>
        <pt x="71" y="113" on="1"/>
        <pt x="71" y="86" on="0"/>
        <pt x="93" y="45" on="0"/>
      </contour>
      <contour>
        <pt x="423" y="251" on="1"/>
        <pt x="428" y="268" on="0"/>
        <pt x="433" y="317" on="0"/>
        <pt x="433" y="334" on="1"/>
        <pt x="433" y="360" on="0"/>
        <pt x="415" y="400" on="0"/>
        <pt x="390" y="400" on="1"/>
        <pt x="373" y="400" on="0"/>
        <pt x="342" y="376" on="0"/>
        <pt x="315" y="335" on="0"/>
        <pt x="295" y="281" on="0"/>
        <pt x="288" y="251" on="1"/>
      </contour>
    </TTGlyph>
    <TTGlyph name="aeacute" xMin="6" yMin="-11" xMax="496" yMax="620">
      <component glyphName="ae" x="0" y="0" flags="0x204"/>
      <component glyphName="acute" x="105" y="0" flags="0x4"/>
    </TTGlyph>
    <TTGlyph name="agrave" xMin="6" yMin="-9" xMax="301" yMax="620">
      <component glyphName="a" x="0" y="0" flags="0x204"/>
      <component glyphName="grave" x="-94" y="0" flags="0x4"/>
    </TTGlyph>
    <TTGlyph name="amacron" xMin="6" yMin="-9" xMax="332" yMax="550">
      <component glyphName="a" x="0" y="0" flags="0x204"/>
      <component glyphName="macron" x="-30" y="0" flags="0x4"/>
    </TTGlyph>
    <TTGlyph name="ampersand" xMin="12" yMin="-13" xMax="422" yMax="737">
      <contour>
        <pt x="422" y="317" on="1"/>
        <pt x="396" y="256" on="0"/>
        <pt x="348" y="156" on="0"/>
        <pt x="324" y="117" on="1"/>
        <pt x="341" y="85" on="0"/>
        <pt x="368" y="34" on="0"/>
        <pt x="377" y="18" on="1"/>
        <pt x="322" y="-13" on="1"/>
        <pt x="282" y="60" on="1"/>
        <pt x="251" y="25" on="0"/>
        <pt x="184" y="-11" on="0"/>
        <pt x="145" y="-11" on="1"/>
        <pt x="115" y="-11" on="0"/>
        <pt x="66" y="13" on="0"/>
        <pt x="31" y="55" on="0"/>
        <pt x="12" y="110" on="0"/>
        <pt x="12" y="141" on="1"/>
        <pt x="12" y="216" on="0"/>
        <pt x="82" y="335" on="0"/>
        <pt x="157" y="389" on="1"/>
        <pt x="143" y="456" on="0"/>
        <pt x="143" y="520" on="1"/>
        <pt x="143" y="559" on="0"/>
        <pt x="160" y="637" on="0"/>
        <pt x="194" y="699" on="0"/>
        <pt x="245" y="737" on="0"/>
        <pt x="280" y="737" on="1"/>
        <pt x="307" y="737" on="0"/>
        <pt x="346" y="714" on="0"/>
        <pt x="371" y="677" on="0"/>
        <pt x="383" y="631" on="0"/>
        <pt x="383" y="608" on="1"/>
        <pt x="383" y="559" on="0"/>
        <pt x="353" y="481" on="0"/>
        <pt x="307" y="418" on="0"/>
        <pt x="253" y="371" on="0"/>
        <pt x="229" y="354" on="1"/>
        <pt x="242" y="307" on="0"/>
        <pt x="276" y="219" on="0"/>
        <pt x="294" y="178" on="1"/>
        <pt x="314" y="212" on="0"/>
        <pt x="353" y="296" on="0"/>
        <pt x="374" y="347" on="1"/>
      </contour>
      <contour>
        <pt x="254" y="117" on="1"/>
        <pt x="230" y="165" on="0"/>
        <pt x="188" y="271" on="0"/>
        <pt x="172" y="326" on="1"/>
        <pt x="134" y="297" on="0"/>
        <pt x="77" y="212" on="0"/>
        <pt x="77" y="151" on="1"/>
        <pt x="77" y="111" on="0"/>
        <pt x="116" y="52" on="0"/>
        <pt x="154" y="52" on="1"/>
        <pt x="202" y="52" on="0"/>
      </contour>
      <contour>
        <pt x="321" y="610" on="1"/>
        <pt x="321" y="639" on="0"/>
        <pt x="300" y="677" on="0"/>
        <pt x="277" y="677" on="1"/>
        <pt x="257" y="677" on="0"/>
        <pt x="230" y="647" on="0"/>
        <pt x="214" y="599" on="0"/>
        <pt x="206" y="540" on="0"/>
        <pt x="206" y="511" on="1"/>
        <pt x="206" y="487" on="0"/>
        <pt x="211" y="439" on="0"/>
        <pt x="216" y="414" on="1"/>
        <pt x="267" y="455" on="0"/>
        <pt x="321" y="552" on="0"/>
      </contour>
    </TTGlyph>
    <TTGlyph name="ampersand.cap" xMin="12" yMin="-13" xMax="422" yMax="737">
      <contour>
        <pt x="422" y="317" on="1"/>
        <pt x="396" y="256" on="0"/>
        <pt x="348" y="156" on="0"/>
        <pt x="324" y="117" on="1"/>
        <pt x="341" y="85" on="0"/>
        <pt x="368" y="34" on="0"/>
        <pt x="377" y="18" on="1"/>
        <pt x="322" y="-13" on="1"/>
        <pt x="282" y="60" on="1"/>
        <pt x="251" y="25" on="0"/>
        <pt x="184" y="-11" on="0"/>
        <pt x="145" y="-11" on="1"/>
        <pt x="115" y="-11" on="0"/>
        <pt x="66" y="13" on="0"/>
        <pt x="31" y="55" on="0"/>
        <pt x="12" y="110" on="0"/>
        <pt x="12" y="141" on="1"/>
        <pt x="12" y="216" on="0"/>
        <pt x="82" y="335" on="0"/>
        <pt x="157" y="389" on="1"/>
        <pt x="143" y="456" on="0"/>
        <pt x="143" y="520" on="1"/>
        <pt x="143" y="559" on="0"/>
        <pt x="160" y="637" on="0"/>
        <pt x="194" y="699" on="0"/>
        <pt x="245" y="737" on="0"/>
        <pt x="280" y="737" on="1"/>
        <pt x="307" y="737" on="0"/>
        <pt x="346" y="714" on="0"/>
        <pt x="371" y="677" on="0"/>
        <pt x="383" y="631" on="0"/>
        <pt x="383" y="608" on="1"/>
        <pt x="383" y="559" on="0"/>
        <pt x="353" y="481" on="0"/>
        <pt x="307" y="418" on="0"/>
        <pt x="253" y="371" on="0"/>
        <pt x="229" y="354" on="1"/>
        <pt x="242" y="307" on="0"/>
        <pt x="276" y="219" on="0"/>
        <pt x="294" y="178" on="1"/>
        <pt x="314" y="212" on="0"/>
        <pt x="353" y="296" on="0"/>
        <pt x="374" y="347" on="1"/>
      </contour>
      <contour>
        <pt x="254" y="117" on="1"/>
        <pt x="230" y="165" on="0"/>
        <pt x="188" y="271" on="0"/>
        <pt x="172" y="326" on="1"/>
        <pt x="134" y="297" on="0"/>
        <pt x="77" y="212" on="0"/>
        <pt x="77" y="151" on="1"/>
        <pt x="77" y="111" on="0"/>
        <pt x="116" y="52" on="0"/>
        <pt x="154" y="52" on="1"/>
        <pt x="202" y="52" on="0"/>
      </contour>
      <contour>
        <pt x="216" y="414" on="1"/>
        <pt x="267" y="455" on="0"/>
        <pt x="321" y="552" on="0"/>
        <pt x="321" y="610" on="1"/>
        <pt x="321" y="639" on="0"/>
        <pt x="300" y="677" on="0"/>
        <pt x="277" y="677" on="1"/>
        <pt x="257" y="677" on="0"/>
        <pt x="230" y="647" on="0"/>
        <pt x="214" y="599" on="0"/>
        <pt x="206" y="540" on="0"/>
        <pt x="206" y="511" on="1"/>
        <pt x="206" y="487" on="0"/>
        <pt x="211" y="439" on="0"/>
      </contour>
    </TTGlyph>
    <TTGlyph name="aogonek" xMin="6" yMin="-188" xMax="301" yMax="457">
      <contour>
        <pt x="222" y="-165" on="1"/>
        <pt x="209" y="-176" on="0"/>
        <pt x="181" y="-188" on="0"/>
        <pt x="162" y="-188" on="1"/>
        <pt x="136" y="-188" on="0"/>
        <pt x="106" y="-157" on="0"/>
        <pt x="106" y="-131" on="1"/>
        <pt x="106" y="-94" on="0"/>
        <pt x="145" y="-32" on="0"/>
        <pt x="178" y="0" on="1"/>
        <pt x="186" y="48" on="1"/>
        <pt x="175" y="29" on="0"/>
        <pt x="127" y="-9" on="0"/>
        <pt x="95" y="-9" on="1"/>
        <pt x="60" y="-9" on="0"/>
        <pt x="6" y="46" on="0"/>
        <pt x="6" y="105" on="1"/>
        <pt x="6" y="138" on="0"/>
        <pt x="24" y="201" on="0"/>
        <pt x="57" y="250" on="0"/>
        <pt x="105" y="280" on="0"/>
        <pt x="134" y="280" on="1"/>
        <pt x="161" y="280" on="0"/>
        <pt x="201" y="254" on="0"/>
        <pt x="217" y="234" on="1"/>
        <pt x="228" y="297" on="1"/>
        <pt x="230" y="305" on="0"/>
        <pt x="233" y="331" on="0"/>
        <pt x="233" y="341" on="1"/>
        <pt x="233" y="369" on="0"/>
        <pt x="201" y="394" on="0"/>
        <pt x="175" y="394" on="1"/>
        <pt x="142" y="394" on="0"/>
        <pt x="98" y="374" on="1"/>
        <pt x="90" y="432" on="1"/>
        <pt x="103" y="438" on="0"/>
        <pt x="163" y="457" on="0"/>
        <pt x="195" y="457" on="1"/>
        <pt x="214" y="457" on="0"/>
        <pt x="251" y="447" on="0"/>
        <pt x="281" y="425" on="0"/>
        <pt x="301" y="388" on="0"/>
        <pt x="301" y="360" on="1"/>
        <pt x="301" y="351" on="0"/>
        <pt x="298" y="319" on="0"/>
        <pt x="296" y="307" on="1"/>
        <pt x="242" y="0" on="1"/>
        <pt x="221" y="0" on="1"/>
        <pt x="196" y="-26" on="0"/>
        <pt x="158" y="-85" on="0"/>
        <pt x="158" y="-116" on="1"/>
        <pt x="158" y="-141" on="0"/>
        <pt x="179" y="-141" on="1"/>
        <pt x="187" y="-141" on="0"/>
        <pt x="204" y="-135" on="0"/>
        <pt x="210" y="-130" on="1"/>
      </contour>
      <contour>
        <pt x="209" y="188" on="1"/>
        <pt x="198" y="207" on="0"/>
        <pt x="166" y="230" on="0"/>
        <pt x="146" y="230" on="1"/>
        <pt x="129" y="230" on="0"/>
        <pt x="102" y="211" on="0"/>
        <pt x="82" y="180" on="0"/>
        <pt x="71" y="138" on="0"/>
        <pt x="71" y="114" on="1"/>
        <pt x="71" y="87" on="0"/>
        <pt x="94" y="46" on="0"/>
        <pt x="122" y="46" on="1"/>
        <pt x="142" y="46" on="0"/>
        <pt x="179" y="73" on="0"/>
        <pt x="192" y="92" on="1"/>
      </contour>
    </TTGlyph>
    <TTGlyph name="aring" xMin="6" yMin="-9" xMax="322" yMax="665">
      <component glyphName="a" x="0" y="0" flags="0x204"/>
      <component glyphName="ring" x="-36" y="0" flags="0x4"/>
    </TTGlyph>
    <TTGlyph name="aringacute" xMin="6" yMin="-9" xMax="384" yMax="828">
      <component glyphName="acute" x="53" y="208" flags="0x4"/>
      <component glyphName="a" x="0" y="0" flags="0x4"/>
      <component glyphName="ring" x="-36" y="0" flags="0x4"/>
    </TTGlyph>
    <TTGlyph name="arrowleft" xMin="27" yMin="59" xMax="409" yMax="477">
      <contour>
        <pt x="117" y="236" on="1"/>
        <pt x="192" y="98" on="1"/>
        <pt x="136" y="59" on="1"/>
        <pt x="27" y="262" on="1"/>
        <pt x="30" y="274" on="1"/>
        <pt x="209" y="477" on="1"/>
        <pt x="258" y="432" on="1"/>
        <pt x="138" y="300" on="1"/>
        <pt x="409" y="300" on="1"/>
        <pt x="398" y="236" on="1"/>
      </contour>
    </TTGlyph>
    <TTGlyph name="arrowleft.cap" xMin="45" yMin="162" xMax="427" yMax="580">
      <component glyphName="arrowleft" x="18" y="103" flags="0x204"/>
    </TTGlyph>
    <TTGlyph name="arrowright" xMin="33" yMin="59" xMax="415" yMax="477">
      <contour>
        <pt x="325" y="300" on="1"/>
        <pt x="250" y="438" on="1"/>
        <pt x="306" y="477" on="1"/>
        <pt x="415" y="274" on="1"/>
        <pt x="412" y="262" on="1"/>
        <pt x="233" y="59" on="1"/>
        <pt x="184" y="104" on="1"/>
        <pt x="304" y="236" on="1"/>
        <pt x="33" y="236" on="1"/>
        <pt x="44" y="300" on="1"/>
      </contour>
    </TTGlyph>
    <TTGlyph name="arrowright.cap" xMin="51" yMin="162" xMax="433" yMax="580">
      <component glyphName="arrowright" x="18" y="103" flags="0x204"/>
    </TTGlyph>
    <TTGlyph name="asciicircum" xMin="152" yMin="574" xMax="376" yMax="696">
      <contour>
        <pt x="317" y="574" on="1"/>
        <pt x="277" y="640" on="1"/>
        <pt x="217" y="574" on="1"/>
        <pt x="152" y="574" on="1"/>
        <pt x="273" y="696" on="1"/>
        <pt x="295" y="696" on="1"/>
        <pt x="376" y="574" on="1"/>
      </contour>
    </TTGlyph>
    <TTGlyph name="asciitilde" xMin="86" yMin="192" xMax="312" yMax="272">
      <contour>
        <pt x="312" y="235" on="1"/>
        <pt x="297" y="214" on="0"/>
        <pt x="259" y="192" on="0"/>
        <pt x="240" y="192" on="1"/>
        <pt x="228" y="192" on="0"/>
        <pt x="205" y="201" on="0"/>
        <pt x="194" y="207" on="1"/>
        <pt x="183" y="214" on="0"/>
        <pt x="164" y="222" on="0"/>
        <pt x="156" y="222" on="1"/>
        <pt x="144" y="222" on="0"/>
        <pt x="124" y="207" on="0"/>
        <pt x="113" y="193" on="1"/>
        <pt x="86" y="229" on="1"/>
        <pt x="101" y="250" on="0"/>
        <pt x="140" y="272" on="0"/>
        <pt x="158" y="272" on="1"/>
        <pt x="170" y="272" on="0"/>
        <pt x="193" y="263" on="0"/>
        <pt x="204" y="257" on="1"/>
        <pt x="215" y="250" on="0"/>
        <pt x="233" y="242" on="0"/>
        <pt x="242" y="242" on="1"/>
        <pt x="264" y="242" on="0"/>
        <pt x="285" y="271" on="1"/>
        <pt x="312" y="235" on="1"/>
      </contour>
    </TTGlyph>
    <TTGlyph name="asterisk" xMin="85" yMin="543" xMax="270" yMax="734">
      <contour>
        <pt x="203" y="622" on="1"/>
        <pt x="236" y="559" on="1"/>
        <pt x="196" y="543" on="1"/>
        <pt x="171" y="608" on="1"/>
        <pt x="125" y="556" on="1"/>
        <pt x="94" y="584" on="1"/>
        <pt x="146" y="632" on="1"/>
        <pt x="85" y="663" on="1"/>
        <pt x="106" y="697" on="1"/>
        <pt x="162" y="662" on="1"/>
        <pt x="171" y="734" on="1"/>
        <pt x="215" y="727" on="1"/>
        <pt x="198" y="656" on="1"/>
        <pt x="263" y="669" on="1"/>
        <pt x="270" y="631" on="1"/>
      </contour>
    </TTGlyph>
    <TTGlyph name="at" xMin="52" yMin="-11" xMax="511" yMax="632">
      <contour>
        <pt x="511" y="410" on="1"/>
        <pt x="511" y="360" on="0"/>
        <pt x="491" y="267" on="0"/>
        <pt x="456" y="193" on="0"/>
        <pt x="408" y="149" on="0"/>
        <pt x="381" y="149" on="1"/>
        <pt x="358" y="149" on="0"/>
        <pt x="329" y="178" on="0"/>
        <pt x="324" y="204" on="1"/>
        <pt x="303" y="176" on="0"/>
        <pt x="262" y="151" on="0"/>
        <pt x="239" y="151" on="1"/>
        <pt x="212" y="151" on="0"/>
        <pt x="171" y="191" on="0"/>
        <pt x="171" y="231" on="1"/>
        <pt x="171" y="253" on="0"/>
        <pt x="183" y="293" on="0"/>
        <pt x="207" y="324" on="0"/>
        <pt x="241" y="342" on="0"/>
        <pt x="262" y="342" on="1"/>
        <pt x="282" y="342" on="0"/>
        <pt x="314" y="324" on="0"/>
        <pt x="326" y="309" on="1"/>
        <pt x="331" y="334" on="0"/>
        <pt x="334" y="355" on="0"/>
        <pt x="334" y="363" on="1"/>
        <pt x="334" y="383" on="0"/>
        <pt x="310" y="402" on="0"/>
        <pt x="290" y="402" on="1"/>
        <pt x="276" y="402" on="0"/>
        <pt x="250" y="395" on="0"/>
        <pt x="232" y="388" on="1"/>
        <pt x="226" y="432" on="1"/>
        <pt x="237" y="436" on="0"/>
        <pt x="281" y="450" on="0"/>
        <pt x="306" y="450" on="1"/>
        <pt x="320" y="450" on="0"/>
        <pt x="349" y="443" on="0"/>
        <pt x="372" y="426" on="0"/>
        <pt x="386" y="399" on="0"/>
        <pt x="386" y="379" on="1"/>
        <pt x="386" y="370" on="0"/>
        <pt x="382" y="340" on="0"/>
        <pt x="380" y="331" on="1"/>
        <pt x="369" y="269" on="1"/>
        <pt x="361" y="225" on="0"/>
        <pt x="374" y="192" on="0"/>
        <pt x="388" y="192" on="1"/>
        <pt x="402" y="192" on="0"/>
        <pt x="431" y="227" on="0"/>
        <pt x="454" y="287" on="0"/>
        <pt x="468" y="367" on="0"/>
        <pt x="468" y="412" on="1"/>
        <pt x="468" y="443" on="0"/>
        <pt x="455" y="506" on="0"/>
        <pt x="423" y="557" on="0"/>
        <pt x="370" y="589" on="0"/>
        <pt x="330" y="589" on="1"/>
        <pt x="280" y="589" on="0"/>
        <pt x="194" y="532" on="0"/>
        <pt x="130" y="435" on="0"/>
        <pt x="94" y="309" on="0"/>
        <pt x="94" y="240" on="1"/>
        <pt x="94" y="144" on="0"/>
        <pt x="178" y="32" on="0"/>
        <pt x="254" y="32" on="1"/>
        <pt x="277" y="32" on="0"/>
        <pt x="317" y="42" on="0"/>
        <pt x="334" y="50" on="1"/>
        <pt x="342" y="9" on="1"/>
        <pt x="326" y="1" on="0"/>
        <pt x="278" y="-11" on="0"/>
        <pt x="252" y="-11" on="1"/>
        <pt x="204" y="-11" on="0"/>
        <pt x="129" y="25" on="0"/>
        <pt x="78" y="91" on="0"/>
        <pt x="52" y="182" on="0"/>
        <pt x="52" y="237" on="1"/>
        <pt x="52" y="319" on="0"/>
        <pt x="97" y="463" on="0"/>
        <pt x="174" y="570" on="0"/>
        <pt x="276" y="632" on="0"/>
        <pt x="333" y="632" on="1"/>
        <pt x="379" y="632" on="0"/>
        <pt x="446" y="598" on="0"/>
        <pt x="490" y="538" on="0"/>
        <pt x="511" y="457" on="0"/>
      </contour>
      <contour>
        <pt x="319" y="273" on="1"/>
        <pt x="312" y="287" on="0"/>
        <pt x="286" y="306" on="0"/>
        <pt x="269" y="306" on="1"/>
        <pt x="248" y="306" on="0"/>
        <pt x="220" y="268" on="0"/>
        <pt x="220" y="238" on="1"/>
        <pt x="220" y="219" on="0"/>
        <pt x="236" y="194" on="0"/>
        <pt x="256" y="194" on="1"/>
        <pt x="272" y="194" on="0"/>
        <pt x="300" y="214" on="0"/>
        <pt x="311" y="228" on="1"/>
      </contour>
    </TTGlyph>
    <TTGlyph name="at.cap" xMin="58" yMin="-11" xMax="527" yMax="744">
      <contour>
        <pt x="342" y="9" on="1"/>
        <pt x="324" y="-1" on="0"/>
        <pt x="280" y="-11" on="0"/>
        <pt x="258" y="-11" on="1"/>
        <pt x="208" y="-11" on="0"/>
        <pt x="133" y="31" on="0"/>
        <pt x="83" y="105" on="0"/>
        <pt x="58" y="205" on="0"/>
        <pt x="58" y="263" on="1"/>
        <pt x="58" y="356" on="0"/>
        <pt x="105" y="530" on="0"/>
        <pt x="186" y="664" on="0"/>
        <pt x="294" y="744" on="0"/>
        <pt x="355" y="744" on="1"/>
        <pt x="401" y="744" on="0"/>
        <pt x="466" y="706" on="0"/>
        <pt x="508" y="642" on="0"/>
        <pt x="527" y="556" on="0"/>
        <pt x="527" y="507" on="1"/>
        <pt x="527" y="449" on="0"/>
        <pt x="506" y="334" on="0"/>
        <pt x="468" y="242" on="0"/>
        <pt x="416" y="185" on="0"/>
        <pt x="385" y="185" on="1"/>
        <pt x="365" y="185" on="0"/>
        <pt x="336" y="214" on="0"/>
        <pt x="331" y="240" on="1"/>
        <pt x="310" y="212" on="0"/>
        <pt x="269" y="187" on="0"/>
        <pt x="244" y="187" on="1"/>
        <pt x="218" y="187" on="0"/>
        <pt x="178" y="228" on="0"/>
        <pt x="178" y="273" on="1"/>
        <pt x="178" y="298" on="0"/>
        <pt x="191" y="345" on="0"/>
        <pt x="217" y="382" on="0"/>
        <pt x="252" y="404" on="0"/>
        <pt x="275" y="404" on="1"/>
        <pt x="295" y="404" on="0"/>
        <pt x="325" y="386" on="0"/>
        <pt x="337" y="371" on="1"/>
        <pt x="341" y="392" on="0"/>
        <pt x="345" y="420" on="0"/>
        <pt x="347" y="437" on="0"/>
        <pt x="348" y="447" on="0"/>
        <pt x="348" y="451" on="1"/>
        <pt x="348" y="471" on="0"/>
        <pt x="324" y="490" on="0"/>
        <pt x="304" y="490" on="1"/>
        <pt x="290" y="490" on="0"/>
        <pt x="264" y="483" on="0"/>
        <pt x="246" y="476" on="1"/>
        <pt x="240" y="520" on="1"/>
        <pt x="251" y="524" on="0"/>
        <pt x="295" y="538" on="0"/>
        <pt x="320" y="538" on="1"/>
        <pt x="334" y="538" on="0"/>
        <pt x="363" y="531" on="0"/>
        <pt x="386" y="514" on="0"/>
        <pt x="400" y="485" on="0"/>
        <pt x="400" y="464" on="1"/>
        <pt x="400" y="458" on="0"/>
        <pt x="398" y="434" on="0"/>
        <pt x="396" y="425" on="1"/>
        <pt x="375" y="303" on="1"/>
        <pt x="371" y="281" on="0"/>
        <pt x="372" y="252" on="0"/>
        <pt x="378" y="235" on="0"/>
        <pt x="389" y="228" on="0"/>
        <pt x="395" y="228" on="1"/>
        <pt x="410" y="228" on="0"/>
        <pt x="442" y="275" on="0"/>
        <pt x="467" y="352" on="0"/>
        <pt x="484" y="453" on="0"/>
        <pt x="484" y="507" on="1"/>
        <pt x="484" y="543" on="0"/>
        <pt x="471" y="612" on="0"/>
        <pt x="440" y="668" on="0"/>
        <pt x="389" y="702" on="0"/>
        <pt x="351" y="702" on="1"/>
        <pt x="299" y="702" on="0"/>
        <pt x="207" y="625" on="0"/>
        <pt x="139" y="502" on="0"/>
        <pt x="100" y="345" on="0"/>
        <pt x="100" y="266" on="1"/>
        <pt x="100" y="218" on="0"/>
        <pt x="120" y="133" on="0"/>
        <pt x="160" y="69" on="0"/>
        <pt x="221" y="32" on="0"/>
        <pt x="263" y="32" on="1"/>
        <pt x="285" y="32" on="0"/>
        <pt x="315" y="40" on="0"/>
        <pt x="334" y="50" on="1"/>
      </contour>
      <contour>
        <pt x="329" y="335" on="1"/>
        <pt x="322" y="349" on="0"/>
        <pt x="298" y="368" on="0"/>
        <pt x="282" y="368" on="1"/>
        <pt x="257" y="368" on="0"/>
        <pt x="227" y="316" on="0"/>
        <pt x="227" y="280" on="1"/>
        <pt x="227" y="260" on="0"/>
        <pt x="244" y="230" on="0"/>
        <pt x="264" y="230" on="1"/>
        <pt x="279" y="230" on="0"/>
        <pt x="307" y="250" on="0"/>
        <pt x="318" y="264" on="1"/>
      </contour>
    </TTGlyph>
    <TTGlyph name="atilde" xMin="6" yMin="-9" xMax="339" yMax="576">
      <component glyphName="a" x="0" y="0" flags="0x204"/>
      <component glyphName="tilde" x="-33" y="0" flags="0x4"/>
    </TTGlyph>
    <TTGlyph name="b" xMin="3" yMin="-9" xMax="317" yMax="733">
      <contour>
        <pt x="317" y="322" on="1"/>
        <pt x="317" y="252" on="0"/>
        <pt x="290" y="131" on="0"/>
        <pt x="244" y="42" on="0"/>
        <pt x="185" y="-9" on="0"/>
        <pt x="153" y="-9" on="1"/>
        <pt x="130" y="-9" on="0"/>
        <pt x="92" y="11" on="0"/>
        <pt x="77" y="37" on="1"/>
        <pt x="70" y="0" on="1"/>
        <pt x="3" y="0" on="1"/>
        <pt x="132" y="733" on="1"/>
        <pt x="200" y="733" on="1"/>
        <pt x="143" y="408" on="1"/>
        <pt x="160" y="428" on="0"/>
        <pt x="202" y="455" on="0"/>
        <pt x="227" y="455" on="1"/>
        <pt x="264" y="455" on="0"/>
        <pt x="317" y="393" on="0"/>
      </contour>
      <contour>
        <pt x="250" y="317" on="1"/>
        <pt x="250" y="362" on="0"/>
        <pt x="224" y="399" on="0"/>
        <pt x="200" y="399" on="1"/>
        <pt x="182" y="399" on="0"/>
        <pt x="146" y="375" on="0"/>
        <pt x="134" y="361" on="1"/>
        <pt x="85" y="82" on="1"/>
        <pt x="93" y="67" on="0"/>
        <pt x="120" y="46" on="0"/>
        <pt x="137" y="46" on="1"/>
        <pt x="161" y="46" on="0"/>
        <pt x="203" y="98" on="0"/>
        <pt x="233" y="177" on="0"/>
        <pt x="250" y="273" on="0"/>
      </contour>
    </TTGlyph>
    <TTGlyph name="backslash" xMin="77" yMin="-216" xMax="194" yMax="733">
      <contour>
        <pt x="135" y="-216" on="1"/>
        <pt x="77" y="733" on="1"/>
        <pt x="136" y="733" on="1"/>
        <pt x="194" y="-216" on="1"/>
      </contour>
    </TTGlyph>
    <TTGlyph name="backslash.cap" xMin="96" yMin="-111" xMax="213" yMax="838">
      <component glyphName="backslash" x="19" y="105" flags="0x204"/>
    </TTGlyph>
    <TTGlyph name="bar" xMin="-20" yMin="-215" xMax="202" yMax="734">
      <contour>
        <pt x="-20" y="-215" on="1"/>
        <pt x="147" y="734" on="1"/>
        <pt x="202" y="734" on="1"/>
        <pt x="35" y="-215" on="1"/>
      </contour>
    </TTGlyph>
    <TTGlyph name="bar.cap" xMin="-1" yMin="-111" xMax="221" yMax="838">
      <component glyphName="bar" x="19" y="104" flags="0x204"/>
    </TTGlyph>
    <TTGlyph name="braceleft" xMin="23" yMin="-223" xMax="312" yMax="740">
      <contour>
        <pt x="302" y="681" on="1"/>
        <pt x="300" y="681" on="1"/>
        <pt x="271" y="681" on="0"/>
        <pt x="230" y="658" on="0"/>
        <pt x="223" y="618" on="1"/>
        <pt x="177" y="358" on="1"/>
        <pt x="173" y="333" on="0"/>
        <pt x="158" y="300" on="0"/>
        <pt x="138" y="277" on="0"/>
        <pt x="112" y="264" on="0"/>
        <pt x="96" y="259" on="1"/>
        <pt x="144" y="233" on="0"/>
        <pt x="144" y="188" on="1"/>
        <pt x="144" y="181" on="0"/>
        <pt x="142" y="161" on="0"/>
        <pt x="140" y="151" on="1"/>
        <pt x="102" y="-62" on="1"/>
        <pt x="100" y="-76" on="0"/>
        <pt x="95" y="-102" on="0"/>
        <pt x="95" y="-116" on="1"/>
        <pt x="95" y="-142" on="0"/>
        <pt x="129" y="-163" on="0"/>
        <pt x="153" y="-163" on="1"/>
        <pt x="143" y="-223" on="1"/>
        <pt x="96" y="-223" on="0"/>
        <pt x="33" y="-175" on="0"/>
        <pt x="33" y="-127" on="1"/>
        <pt x="33" y="-116" on="0"/>
        <pt x="35" y="-94" on="0"/>
        <pt x="37" y="-84" on="1"/>
        <pt x="81" y="161" on="1"/>
        <pt x="82" y="165" on="0"/>
        <pt x="84" y="182" on="0"/>
        <pt x="84" y="190" on="1"/>
        <pt x="84" y="210" on="0"/>
        <pt x="59" y="230" on="0"/>
        <pt x="37" y="230" on="1"/>
        <pt x="23" y="230" on="1"/>
        <pt x="34" y="293" on="1"/>
        <pt x="48" y="293" on="1"/>
        <pt x="70" y="293" on="0"/>
        <pt x="108" y="315" on="0"/>
        <pt x="114" y="348" on="1"/>
        <pt x="161" y="618" on="1"/>
        <pt x="174" y="690" on="0"/>
        <pt x="250" y="740" on="0"/>
        <pt x="311" y="740" on="1"/>
        <pt x="312" y="740" on="1"/>
      </contour>
    </TTGlyph>
    <TTGlyph name="braceleft.cap" xMin="41" yMin="-118" xMax="330" yMax="845">
      <component glyphName="braceleft" x="18" y="105" flags="0x204"/>
    </TTGlyph>
    <TTGlyph name="braceright" xMin="-82" yMin="-223" xMax="207" yMax="740">
      <contour>
        <pt x="-72" y="-164" on="1"/>
        <pt x="-70" y="-164" on="1"/>
        <pt x="-41" y="-164" on="0"/>
        <pt x="0" y="-141" on="0"/>
        <pt x="7" y="-101" on="1"/>
        <pt x="53" y="159" on="1"/>
        <pt x="57" y="184" on="0"/>
        <pt x="72" y="217" on="0"/>
        <pt x="92" y="240" on="0"/>
        <pt x="118" y="253" on="0"/>
        <pt x="134" y="258" on="1"/>
        <pt x="86" y="284" on="0"/>
        <pt x="86" y="329" on="1"/>
        <pt x="86" y="336" on="0"/>
        <pt x="88" y="356" on="0"/>
        <pt x="90" y="366" on="1"/>
        <pt x="128" y="579" on="1"/>
        <pt x="130" y="593" on="0"/>
        <pt x="135" y="619" on="0"/>
        <pt x="135" y="633" on="1"/>
        <pt x="135" y="659" on="0"/>
        <pt x="101" y="680" on="0"/>
        <pt x="77" y="680" on="1"/>
        <pt x="87" y="740" on="1"/>
        <pt x="134" y="740" on="0"/>
        <pt x="197" y="692" on="0"/>
        <pt x="197" y="644" on="1"/>
        <pt x="197" y="633" on="0"/>
        <pt x="195" y="611" on="0"/>
        <pt x="193" y="601" on="1"/>
        <pt x="149" y="356" on="1"/>
        <pt x="148" y="352" on="0"/>
        <pt x="146" y="335" on="0"/>
        <pt x="146" y="327" on="1"/>
        <pt x="146" y="307" on="0"/>
        <pt x="171" y="287" on="0"/>
        <pt x="193" y="287" on="1"/>
        <pt x="207" y="287" on="1"/>
        <pt x="196" y="224" on="1"/>
        <pt x="182" y="224" on="1"/>
        <pt x="160" y="224" on="0"/>
        <pt x="122" y="202" on="0"/>
        <pt x="116" y="169" on="1"/>
        <pt x="69" y="-101" on="1"/>
        <pt x="56" y="-173" on="0"/>
        <pt x="-20" y="-223" on="0"/>
        <pt x="-81" y="-223" on="1"/>
        <pt x="-82" y="-223" on="1"/>
      </contour>
    </TTGlyph>
    <TTGlyph name="braceright.cap" xMin="-63" yMin="-118" xMax="226" yMax="845">
      <component glyphName="braceright" x="19" y="105" flags="0x204"/>
    </TTGlyph>
    <TTGlyph name="bracketleft" xMin="-34" yMin="-216" xMax="286" yMax="733">
      <contour>
        <pt x="276" y="677" on="1"/>
        <pt x="184" y="677" on="1"/>
        <pt x="37" y="-161" on="1"/>
        <pt x="129" y="-161" on="1"/>
        <pt x="119" y="-216" on="1"/>
        <pt x="-34" y="-216" on="1"/>
        <pt x="133" y="733" on="1"/>
        <pt x="286" y="733" on="1"/>
      </contour>
    </TTGlyph>
    <TTGlyph name="bracketleft.cap" xMin="-16" yMin="-111" xMax="304" yMax="838">
      <component glyphName="bracketleft" x="18" y="105" flags="0x204"/>
    </TTGlyph>
    <TTGlyph name="bracketright" xMin="-82" yMin="-216" xMax="239" yMax="733">
      <contour>
        <pt x="71" y="-216" on="1"/>
        <pt x="-82" y="-216" on="1"/>
        <pt x="-72" y="-161" on="1"/>
        <pt x="20" y="-161" on="1"/>
        <pt x="168" y="677" on="1"/>
        <pt x="76" y="677" on="1"/>
        <pt x="86" y="733" on="1"/>
        <pt x="239" y="733" on="1"/>
      </contour>
    </TTGlyph>
    <TTGlyph name="bracketright.cap" xMin="-63" yMin="-111" xMax="258" yMax="838">
      <component glyphName="bracketright" x="19" y="105" flags="0x204"/>
    </TTGlyph>
    <TTGlyph name="breve" xMin="168" yMin="497" xMax="357" yMax="590">
      <contour>
        <pt x="357" y="587" on="1"/>
        <pt x="352" y="550" on="0"/>
        <pt x="298" y="497" on="0"/>
        <pt x="253" y="497" on="1"/>
        <pt x="213" y="497" on="0"/>
        <pt x="168" y="542" on="0"/>
        <pt x="168" y="574" on="1"/>
        <pt x="168" y="582" on="1"/>
        <pt x="168" y="585" on="0"/>
        <pt x="169" y="587" on="1"/>
        <pt x="225" y="590" on="1"/>
        <pt x="224" y="589" on="0"/>
        <pt x="224" y="587" on="1"/>
        <pt x="224" y="581" on="1"/>
        <pt x="224" y="543" on="0"/>
        <pt x="257" y="543" on="1"/>
        <pt x="296" y="543" on="0"/>
        <pt x="302" y="590" on="1"/>
        <pt x="357" y="587" on="1"/>
      </contour>
    </TTGlyph>
    <TTGlyph name="bullet" xMin="56" yMin="272" xMax="240" yMax="460">
      <contour>
        <pt x="240" y="374" on="1"/>
        <pt x="240" y="353" on="0"/>
        <pt x="224" y="316" on="0"/>
        <pt x="197" y="288" on="0"/>
        <pt x="161" y="272" on="0"/>
        <pt x="142" y="272" on="1"/>
        <pt x="101" y="272" on="0"/>
        <pt x="56" y="320" on="0"/>
        <pt x="56" y="358" on="1"/>
        <pt x="56" y="379" on="0"/>
        <pt x="72" y="416" on="0"/>
        <pt x="99" y="444" on="0"/>
        <pt x="134" y="460" on="0"/>
        <pt x="154" y="460" on="1"/>
        <pt x="195" y="460" on="0"/>
        <pt x="240" y="412" on="0"/>
      </contour>
    </TTGlyph>
    <TTGlyph name="c" xMin="22" yMin="-11" xMax="296" yMax="457">
      <contour>
        <pt x="262" y="373" on="1"/>
        <pt x="248" y="384" on="0"/>
        <pt x="222" y="398" on="0"/>
        <pt x="205" y="398" on="1"/>
        <pt x="180" y="398" on="0"/>
        <pt x="137" y="357" on="0"/>
        <pt x="106" y="289" on="0"/>
        <pt x="89" y="202" on="0"/>
        <pt x="89" y="156" on="1"/>
        <pt x="89" y="136" on="0"/>
        <pt x="96" y="97" on="0"/>
        <pt x="111" y="67" on="0"/>
        <pt x="135" y="48" on="0"/>
        <pt x="153" y="48" on="1"/>
        <pt x="169" y="48" on="0"/>
        <pt x="200" y="62" on="0"/>
        <pt x="215" y="74" on="1"/>
        <pt x="234" y="19" on="1"/>
        <pt x="213" y="3" on="0"/>
        <pt x="165" y="-11" on="0"/>
        <pt x="148" y="-11" on="1"/>
        <pt x="116" y="-11" on="0"/>
        <pt x="68" y="15" on="0"/>
        <pt x="37" y="60" on="0"/>
        <pt x="22" y="119" on="0"/>
        <pt x="22" y="152" on="1"/>
        <pt x="22" y="211" on="0"/>
        <pt x="48" y="321" on="0"/>
        <pt x="97" y="406" on="0"/>
        <pt x="166" y="457" on="0"/>
        <pt x="210" y="457" on="1"/>
        <pt x="236" y="457" on="0"/>
        <pt x="276" y="440" on="0"/>
        <pt x="296" y="423" on="1"/>
      </contour>
    </TTGlyph>
    <TTGlyph name="cacute" xMin="22" yMin="-11" xMax="349" yMax="620">
      <component glyphName="c" x="0" y="0" flags="0x204"/>
      <component glyphName="acute" x="18" y="0" flags="0x4"/>
    </TTGlyph>
    <TTGlyph name="caron" xMin="156" yMin="492" xMax="380" yMax="614">
      <contour>
        <pt x="258" y="492" on="1"/>
        <pt x="232" y="492" on="1"/>
        <pt x="156" y="614" on="1"/>
        <pt x="215" y="614" on="1"/>
        <pt x="253" y="548" on="1"/>
        <pt x="315" y="614" on="1"/>
        <pt x="380" y="614" on="1"/>
      </contour>
    </TTGlyph>
    <TTGlyph name="caron.alt" xMin="11" yMin="531" xMax="138" yMax="740">
      <contour>
        <pt x="138" y="732" on="1"/>
        <pt x="127" y="666" on="0"/>
        <pt x="80" y="569" on="0"/>
        <pt x="35" y="531" on="1"/>
        <pt x="11" y="551" on="1"/>
        <pt x="44" y="594" on="0"/>
        <pt x="72" y="688" on="0"/>
        <pt x="81" y="740" on="1"/>
      </contour>
    </TTGlyph>
    <TTGlyph name="ccaron" xMin="22" yMin="-11" xMax="353" yMax="614">
      <component glyphName="c" x="0" y="0" flags="0x204"/>
      <component glyphName="caron" x="-27" y="0" flags="0x4"/>
    </TTGlyph>
    <TTGlyph name="ccedilla" xMin="22" yMin="-179" xMax="296" yMax="457">
      <contour>
        <pt x="191" y="-104" on="1"/>
        <pt x="191" y="-137" on="0"/>
        <pt x="146" y="-179" on="0"/>
        <pt x="109" y="-179" on="1"/>
        <pt x="67" y="-179" on="0"/>
        <pt x="26" y="-153" on="1"/>
        <pt x="48" y="-117" on="1"/>
        <pt x="65" y="-129" on="0"/>
        <pt x="96" y="-139" on="0"/>
        <pt x="111" y="-139" on="1"/>
        <pt x="126" y="-139" on="0"/>
        <pt x="146" y="-121" on="0"/>
        <pt x="146" y="-108" on="1"/>
        <pt x="146" y="-94" on="0"/>
        <pt x="113" y="-72" on="0"/>
        <pt x="75" y="-70" on="1"/>
        <pt x="74" y="-64" on="1"/>
        <pt x="99" y="-1" on="1"/>
        <pt x="60" y="16" on="0"/>
        <pt x="22" y="100" on="0"/>
        <pt x="22" y="152" on="1"/>
        <pt x="22" y="211" on="0"/>
        <pt x="48" y="321" on="0"/>
        <pt x="97" y="406" on="0"/>
        <pt x="166" y="457" on="0"/>
        <pt x="210" y="457" on="1"/>
        <pt x="236" y="457" on="0"/>
        <pt x="276" y="440" on="0"/>
        <pt x="296" y="423" on="1"/>
        <pt x="262" y="373" on="1"/>
        <pt x="248" y="384" on="0"/>
        <pt x="222" y="398" on="0"/>
        <pt x="205" y="398" on="1"/>
        <pt x="180" y="398" on="0"/>
        <pt x="137" y="357" on="0"/>
        <pt x="106" y="289" on="0"/>
        <pt x="89" y="202" on="0"/>
        <pt x="89" y="156" on="1"/>
        <pt x="89" y="136" on="0"/>
        <pt x="96" y="97" on="0"/>
        <pt x="111" y="67" on="0"/>
        <pt x="135" y="48" on="0"/>
        <pt x="153" y="48" on="1"/>
        <pt x="169" y="48" on="0"/>
        <pt x="200" y="62" on="0"/>
        <pt x="215" y="74" on="1"/>
        <pt x="234" y="19" on="1"/>
        <pt x="213" y="3" on="0"/>
        <pt x="165" y="-11" on="0"/>
        <pt x="148" y="-11" on="1"/>
        <pt x="139" y="-11" on="0"/>
        <pt x="135" y="-10" on="1"/>
        <pt x="124" y="-37" on="1"/>
        <pt x="163" y="-45" on="0"/>
        <pt x="191" y="-84" on="0"/>
      </contour>
    </TTGlyph>
    <TTGlyph name="cdotaccent" xMin="22" yMin="-11" xMax="296" yMax="575">
      <component glyphName="c" x="0" y="0" flags="0x204"/>
      <component glyphName="dotaccent" x="-30" y="0" flags="0x4"/>
    </TTGlyph>
    <TTGlyph name="cedilla" xMin="74" yMin="-179" xMax="239" yMax="14">
      <contour>
        <pt x="239" y="-104" on="1"/>
        <pt x="239" y="-137" on="0"/>
        <pt x="194" y="-179" on="0"/>
        <pt x="157" y="-179" on="1"/>
        <pt x="115" y="-179" on="0"/>
        <pt x="74" y="-153" on="1"/>
        <pt x="96" y="-117" on="1"/>
        <pt x="113" y="-129" on="0"/>
        <pt x="144" y="-139" on="0"/>
        <pt x="159" y="-139" on="1"/>
        <pt x="174" y="-139" on="0"/>
        <pt x="194" y="-121" on="0"/>
        <pt x="194" y="-108" on="1"/>
        <pt x="194" y="-94" on="0"/>
        <pt x="161" y="-72" on="0"/>
        <pt x="123" y="-70" on="1"/>
        <pt x="122" y="-64" on="1"/>
        <pt x="154" y="14" on="1"/>
        <pt x="189" y="5" on="1"/>
        <pt x="172" y="-37" on="1"/>
        <pt x="211" y="-45" on="0"/>
        <pt x="239" y="-84" on="0"/>
      </contour>
    </TTGlyph>
    <TTGlyph name="cent" xMin="28" yMin="-79" xMax="310" yMax="540">
      <contour>
        <pt x="263" y="451" on="1"/>
        <pt x="288" y="442" on="0"/>
        <pt x="310" y="423" on="1"/>
        <pt x="276" y="373" on="1"/>
        <pt x="268" y="378" on="0"/>
        <pt x="255" y="388" on="0"/>
        <pt x="247" y="392" on="1"/>
        <pt x="153" y="50" on="1"/>
        <pt x="156" y="49" on="0"/>
        <pt x="164" y="48" on="0"/>
        <pt x="170" y="48" on="1"/>
        <pt x="185" y="48" on="0"/>
        <pt x="214" y="62" on="0"/>
        <pt x="229" y="74" on="1"/>
        <pt x="248" y="19" on="1"/>
        <pt x="227" y="3" on="0"/>
        <pt x="179" y="-11" on="0"/>
        <pt x="162" y="-11" on="1"/>
        <pt x="155" y="-11" on="0"/>
        <pt x="143" y="-10" on="0"/>
        <pt x="137" y="-9" on="1"/>
        <pt x="118" y="-79" on="1"/>
        <pt x="73" y="-72" on="1"/>
        <pt x="94" y="6" on="1"/>
        <pt x="59" y="27" on="0"/>
        <pt x="28" y="107" on="0"/>
        <pt x="28" y="155" on="1"/>
        <pt x="28" y="213" on="0"/>
        <pt x="54" y="320" on="0"/>
        <pt x="102" y="403" on="0"/>
        <pt x="173" y="454" on="0"/>
        <pt x="218" y="456" on="1"/>
        <pt x="241" y="540" on="1"/>
        <pt x="286" y="534" on="1"/>
      </contour>
      <contour>
        <pt x="93" y="150" on="1"/>
        <pt x="93" y="97" on="0"/>
        <pt x="112" y="71" on="1"/>
        <pt x="202" y="400" on="1"/>
        <pt x="178" y="394" on="0"/>
        <pt x="137" y="346" on="0"/>
        <pt x="109" y="277" on="0"/>
        <pt x="93" y="193" on="0"/>
      </contour>
    </TTGlyph>
    <TTGlyph name="cent.lin" xMin="53" yMin="61" xMax="335" yMax="680">
      <component glyphName="cent" x="25" y="140" flags="0x204"/>
    </TTGlyph>
    <TTGlyph name="circumflex" xMin="139" yMin="497" xMax="363" yMax="619">
      <contour>
        <pt x="304" y="497" on="1"/>
        <pt x="266" y="563" on="1"/>
        <pt x="204" y="497" on="1"/>
        <pt x="139" y="497" on="1"/>
        <pt x="261" y="619" on="1"/>
        <pt x="287" y="619" on="1"/>
        <pt x="363" y="497" on="1"/>
      </contour>
    </TTGlyph>
    <TTGlyph name="colon" xMin="-8" yMin="-11" xMax="139" yMax="400">
      <contour>
        <pt x="139" y="357" on="1"/>
        <pt x="139" y="336" on="0"/>
        <pt x="110" y="306" on="0"/>
        <pt x="90" y="306" on="1"/>
        <pt x="70" y="306" on="0"/>
        <pt x="47" y="330" on="0"/>
        <pt x="47" y="349" on="1"/>
        <pt x="47" y="370" on="0"/>
        <pt x="76" y="400" on="0"/>
        <pt x="96" y="400" on="1"/>
        <pt x="116" y="400" on="0"/>
        <pt x="139" y="376" on="0"/>
      </contour>
      <contour>
        <pt x="84" y="40" on="1"/>
        <pt x="84" y="19" on="0"/>
        <pt x="55" y="-11" on="0"/>
        <pt x="35" y="-11" on="1"/>
        <pt x="15" y="-11" on="0"/>
        <pt x="-8" y="13" on="0"/>
        <pt x="-8" y="32" on="1"/>
        <pt x="-8" y="53" on="0"/>
        <pt x="21" y="83" on="0"/>
        <pt x="41" y="83" on="1"/>
        <pt x="61" y="83" on="0"/>
        <pt x="84" y="59" on="0"/>
      </contour>
    </TTGlyph>
    <TTGlyph name="comma" xMin="-39" yMin="-104" xMax="82" yMax="85">
      <contour>
        <pt x="82" y="33" on="1"/>
        <pt x="82" y="14" on="0"/>
        <pt x="61" y="-28" on="0"/>
        <pt x="28" y="-66" on="0"/>
        <pt x="-12" y="-97" on="0"/>
        <pt x="-31" y="-104" on="1"/>
        <pt x="-39" y="-91" on="1"/>
        <pt x="-8" y="-68" on="0"/>
        <pt x="21" y="-28" on="0"/>
        <pt x="28" y="-7" on="1"/>
        <pt x="9" y="-5" on="0"/>
        <pt x="-12" y="18" on="0"/>
        <pt x="-12" y="34" on="1"/>
        <pt x="-12" y="55" on="0"/>
        <pt x="17" y="85" on="0"/>
        <pt x="37" y="85" on="1"/>
        <pt x="57" y="85" on="0"/>
        <pt x="82" y="58" on="0"/>
      </contour>
    </TTGlyph>
    <TTGlyph name="commaaccent" xMin="18" yMin="-242" xMax="126" yMax="-73">
      <contour>
        <pt x="126" y="-120" on="1"/>
        <pt x="126" y="-137" on="0"/>
        <pt x="107" y="-174" on="0"/>
        <pt x="78" y="-208" on="0"/>
        <pt x="42" y="-235" on="0"/>
        <pt x="26" y="-242" on="1"/>
        <pt x="18" y="-230" on="1"/>
        <pt x="46" y="-210" on="0"/>
        <pt x="72" y="-174" on="0"/>
        <pt x="78" y="-155" on="1"/>
        <pt x="61" y="-153" on="0"/>
        <pt x="43" y="-133" on="0"/>
        <pt x="43" y="-119" on="1"/>
        <pt x="43" y="-100" on="0"/>
        <pt x="68" y="-73" on="0"/>
        <pt x="86" y="-73" on="1"/>
        <pt x="103" y="-73" on="0"/>
        <pt x="126" y="-97" on="0"/>
      </contour>
    </TTGlyph>
    <TTGlyph name="copyright" xMin="46" yMin="-12" xMax="511" yMax="744">
      <contour>
        <pt x="319" y="196" on="1"/>
        <pt x="304" y="186" on="0"/>
        <pt x="275" y="180" on="0"/>
        <pt x="267" y="180" on="1"/>
        <pt x="222" y="180" on="0"/>
        <pt x="173" y="251" on="0"/>
        <pt x="173" y="314" on="1"/>
        <pt x="173" y="359" on="0"/>
        <pt x="194" y="446" on="0"/>
        <pt x="233" y="515" on="0"/>
        <pt x="285" y="558" on="0"/>
        <pt x="317" y="558" on="1"/>
        <pt x="349" y="558" on="0"/>
        <pt x="377" y="535" on="1"/>
        <pt x="351" y="492" on="1"/>
        <pt x="344" y="499" on="0"/>
        <pt x="327" y="509" on="0"/>
        <pt x="316" y="509" on="1"/>
        <pt x="298" y="509" on="0"/>
        <pt x="265" y="474" on="0"/>
        <pt x="241" y="419" on="0"/>
        <pt x="226" y="349" on="0"/>
        <pt x="226" y="313" on="1"/>
        <pt x="226" y="271" on="0"/>
        <pt x="252" y="229" on="0"/>
        <pt x="273" y="229" on="1"/>
        <pt x="283" y="229" on="0"/>
        <pt x="300" y="236" on="0"/>
        <pt x="307" y="240" on="1"/>
      </contour>
      <contour>
        <pt x="468" y="462" on="1"/>
        <pt x="468" y="513" on="0"/>
        <pt x="450" y="601" on="0"/>
        <pt x="414" y="666" on="0"/>
        <pt x="362" y="704" on="0"/>
        <pt x="328" y="704" on="1"/>
        <pt x="296" y="704" on="0"/>
        <pt x="235" y="669" on="0"/>
        <pt x="182" y="607" on="0"/>
        <pt x="138" y="524" on="0"/>
        <pt x="106" y="428" on="0"/>
        <pt x="89" y="322" on="0"/>
        <pt x="89" y="270" on="1"/>
        <pt x="89" y="219" on="0"/>
        <pt x="107" y="131" on="0"/>
        <pt x="143" y="66" on="0"/>
        <pt x="195" y="28" on="0"/>
        <pt x="229" y="28" on="1"/>
        <pt x="261" y="28" on="0"/>
        <pt x="322" y="63" on="0"/>
        <pt x="375" y="125" on="0"/>
        <pt x="419" y="208" on="0"/>
        <pt x="451" y="304" on="0"/>
        <pt x="468" y="409" on="0"/>
      </contour>
      <contour>
        <pt x="511" y="463" on="1"/>
        <pt x="511" y="404" on="0"/>
        <pt x="491" y="287" on="0"/>
        <pt x="454" y="182" on="0"/>
        <pt x="402" y="92" on="0"/>
        <pt x="338" y="25" on="0"/>
        <pt x="265" y="-12" on="0"/>
        <pt x="225" y="-12" on="1"/>
        <pt x="183" y="-12" on="0"/>
        <pt x="116" y="30" on="0"/>
        <pt x="70" y="105" on="0"/>
        <pt x="46" y="208" on="0"/>
        <pt x="46" y="269" on="1"/>
        <pt x="46" y="328" on="0"/>
        <pt x="66" y="445" on="0"/>
        <pt x="103" y="550" on="0"/>
        <pt x="155" y="640" on="0"/>
        <pt x="219" y="707" on="0"/>
        <pt x="292" y="744" on="0"/>
        <pt x="332" y="744" on="1"/>
        <pt x="374" y="744" on="0"/>
        <pt x="441" y="702" on="0"/>
        <pt x="487" y="627" on="0"/>
        <pt x="511" y="524" on="0"/>
      </contour>
    </TTGlyph>
    <TTGlyph name="d" xMin="16" yMin="-9" xMax="381" yMax="733">
      <contour>
        <pt x="252" y="0" on="1"/>
        <pt x="185" y="0" on="1"/>
        <pt x="193" y="44" on="1"/>
        <pt x="177" y="23" on="0"/>
        <pt x="135" y="-9" on="0"/>
        <pt x="107" y="-9" on="1"/>
        <pt x="69" y="-9" on="0"/>
        <pt x="16" y="55" on="0"/>
        <pt x="16" y="129" on="1"/>
        <pt x="16" y="196" on="0"/>
        <pt x="43" y="315" on="0"/>
        <pt x="89" y="404" on="0"/>
        <pt x="149" y="455" on="0"/>
        <pt x="182" y="455" on="1"/>
        <pt x="202" y="455" on="0"/>
        <pt x="240" y="437" on="0"/>
        <pt x="257" y="413" on="1"/>
        <pt x="313" y="733" on="1"/>
        <pt x="381" y="733" on="1"/>
      </contour>
      <contour>
        <pt x="248" y="366" on="1"/>
        <pt x="223" y="400" on="0"/>
        <pt x="193" y="400" on="1"/>
        <pt x="168" y="400" on="0"/>
        <pt x="127" y="349" on="0"/>
        <pt x="99" y="270" on="0"/>
        <pt x="83" y="176" on="0"/>
        <pt x="83" y="133" on="1"/>
        <pt x="83" y="86" on="0"/>
        <pt x="110" y="47" on="0"/>
        <pt x="133" y="47" on="1"/>
        <pt x="150" y="47" on="0"/>
        <pt x="187" y="72" on="0"/>
        <pt x="200" y="89" on="1"/>
      </contour>
    </TTGlyph>
    <TTGlyph name="dagger" xMin="73" yMin="216" xMax="323" yMax="733">
      <contour>
        <pt x="313" y="527" on="1"/>
        <pt x="225" y="527" on="1"/>
        <pt x="170" y="216" on="1"/>
        <pt x="108" y="216" on="1"/>
        <pt x="163" y="527" on="1"/>
        <pt x="73" y="527" on="1"/>
        <pt x="83" y="585" on="1"/>
        <pt x="173" y="585" on="1"/>
        <pt x="199" y="733" on="1"/>
        <pt x="261" y="733" on="1"/>
        <pt x="235" y="585" on="1"/>
        <pt x="323" y="585" on="1"/>
      </contour>
    </TTGlyph>
    <TTGlyph name="daggerdbl" xMin="41" yMin="216" xMax="327" yMax="733">
      <contour>
        <pt x="317" y="547" on="1"/>
        <pt x="229" y="547" on="1"/>
        <pt x="203" y="402" on="1"/>
        <pt x="291" y="402" on="1"/>
        <pt x="281" y="344" on="1"/>
        <pt x="193" y="344" on="1"/>
        <pt x="171" y="216" on="1"/>
        <pt x="109" y="216" on="1"/>
        <pt x="131" y="344" on="1"/>
        <pt x="41" y="344" on="1"/>
        <pt x="51" y="402" on="1"/>
        <pt x="141" y="402" on="1"/>
        <pt x="167" y="547" on="1"/>
        <pt x="77" y="547" on="1"/>
        <pt x="87" y="605" on="1"/>
        <pt x="177" y="605" on="1"/>
        <pt x="200" y="733" on="1"/>
        <pt x="262" y="733" on="1"/>
        <pt x="239" y="605" on="1"/>
        <pt x="327" y="605" on="1"/>
      </contour>
    </TTGlyph>
    <TTGlyph name="dcaron" xMin="16" yMin="-9" xMax="498" yMax="736">
      <component glyphName="d" x="0" y="0" flags="0x204"/>
      <component glyphName="caron.alt" x="360" y="-4" flags="0x4"/>
    </TTGlyph>
    <TTGlyph name="dcroat" xMin="16" yMin="-9" xMax="402" yMax="733">
      <contour>
        <pt x="362" y="626" on="1"/>
        <pt x="402" y="626" on="1"/>
        <pt x="391" y="565" on="1"/>
        <pt x="351" y="565" on="1"/>
        <pt x="252" y="0" on="1"/>
        <pt x="185" y="0" on="1"/>
        <pt x="193" y="44" on="1"/>
        <pt x="177" y="23" on="0"/>
        <pt x="135" y="-9" on="0"/>
        <pt x="107" y="-9" on="1"/>
        <pt x="69" y="-9" on="0"/>
        <pt x="16" y="55" on="0"/>
        <pt x="16" y="129" on="1"/>
        <pt x="16" y="196" on="0"/>
        <pt x="43" y="315" on="0"/>
        <pt x="89" y="404" on="0"/>
        <pt x="149" y="455" on="0"/>
        <pt x="182" y="455" on="1"/>
        <pt x="202" y="455" on="0"/>
        <pt x="240" y="437" on="0"/>
        <pt x="257" y="413" on="1"/>
        <pt x="283" y="565" on="1"/>
        <pt x="193" y="565" on="1"/>
        <pt x="204" y="626" on="1"/>
        <pt x="294" y="626" on="1"/>
        <pt x="313" y="733" on="1"/>
        <pt x="381" y="733" on="1"/>
      </contour>
      <contour>
        <pt x="248" y="366" on="1"/>
        <pt x="223" y="400" on="0"/>
        <pt x="193" y="400" on="1"/>
        <pt x="168" y="400" on="0"/>
        <pt x="127" y="349" on="0"/>
        <pt x="99" y="270" on="0"/>
        <pt x="83" y="176" on="0"/>
        <pt x="83" y="133" on="1"/>
        <pt x="83" y="86" on="0"/>
        <pt x="110" y="47" on="0"/>
        <pt x="133" y="47" on="1"/>
        <pt x="150" y="47" on="0"/>
        <pt x="187" y="72" on="0"/>
        <pt x="200" y="89" on="1"/>
      </contour>
    </TTGlyph>
    <TTGlyph name="degree" xMin="113" yMin="468" xMax="371" yMax="730">
      <contour>
        <pt x="371" y="616" on="1"/>
        <pt x="371" y="587" on="0"/>
        <pt x="351" y="534" on="0"/>
        <pt x="313" y="493" on="0"/>
        <pt x="261" y="468" on="0"/>
        <pt x="228" y="468" on="1"/>
        <pt x="201" y="468" on="0"/>
        <pt x="158" y="486" on="0"/>
        <pt x="129" y="518" on="0"/>
        <pt x="113" y="559" on="0"/>
        <pt x="113" y="582" on="1"/>
        <pt x="113" y="610" on="0"/>
        <pt x="133" y="664" on="0"/>
        <pt x="171" y="705" on="0"/>
        <pt x="223" y="730" on="0"/>
        <pt x="256" y="730" on="1"/>
        <pt x="283" y="730" on="0"/>
        <pt x="326" y="712" on="0"/>
        <pt x="355" y="680" on="0"/>
        <pt x="371" y="639" on="0"/>
      </contour>
      <contour>
        <pt x="312" y="616" on="1"/>
        <pt x="312" y="651" on="0"/>
        <pt x="277" y="685" on="0"/>
        <pt x="253" y="685" on="1"/>
        <pt x="217" y="685" on="0"/>
        <pt x="172" y="624" on="0"/>
        <pt x="172" y="582" on="1"/>
        <pt x="172" y="547" on="0"/>
        <pt x="207" y="513" on="0"/>
        <pt x="231" y="513" on="1"/>
        <pt x="267" y="513" on="0"/>
        <pt x="312" y="574" on="0"/>
      </contour>
    </TTGlyph>
    <TTGlyph name="degree.lin" xMin="113" yMin="468" xMax="371" yMax="730">
      <contour>
        <pt x="371" y="616" on="1"/>
        <pt x="371" y="587" on="0"/>
        <pt x="351" y="534" on="0"/>
        <pt x="313" y="493" on="0"/>
        <pt x="261" y="468" on="0"/>
        <pt x="228" y="468" on="1"/>
        <pt x="201" y="468" on="0"/>
        <pt x="158" y="486" on="0"/>
        <pt x="129" y="518" on="0"/>
        <pt x="113" y="559" on="0"/>
        <pt x="113" y="582" on="1"/>
        <pt x="113" y="610" on="0"/>
        <pt x="133" y="664" on="0"/>
        <pt x="171" y="705" on="0"/>
        <pt x="223" y="730" on="0"/>
        <pt x="256" y="730" on="1"/>
        <pt x="283" y="730" on="0"/>
        <pt x="326" y="712" on="0"/>
        <pt x="355" y="680" on="0"/>
        <pt x="371" y="639" on="0"/>
      </contour>
      <contour>
        <pt x="312" y="616" on="1"/>
        <pt x="312" y="651" on="0"/>
        <pt x="277" y="685" on="0"/>
        <pt x="253" y="685" on="1"/>
        <pt x="217" y="685" on="0"/>
        <pt x="172" y="624" on="0"/>
        <pt x="172" y="582" on="1"/>
        <pt x="172" y="547" on="0"/>
        <pt x="207" y="513" on="0"/>
        <pt x="231" y="513" on="1"/>
        <pt x="267" y="513" on="0"/>
        <pt x="312" y="574" on="0"/>
      </contour>
    </TTGlyph>
    <TTGlyph name="dieresis" xMin="155" yMin="497" xMax="353" yMax="575">
      <contour>
        <pt x="231" y="539" on="1"/>
        <pt x="231" y="522" on="0"/>
        <pt x="207" y="497" on="0"/>
        <pt x="191" y="497" on="1"/>
        <pt x="174" y="497" on="0"/>
        <pt x="155" y="517" on="0"/>
        <pt x="155" y="533" on="1"/>
        <pt x="155" y="550" on="0"/>
        <pt x="179" y="575" on="0"/>
        <pt x="195" y="575" on="1"/>
        <pt x="212" y="575" on="0"/>
        <pt x="231" y="555" on="0"/>
      </contour>
      <contour>
        <pt x="353" y="539" on="1"/>
        <pt x="353" y="522" on="0"/>
        <pt x="329" y="497" on="0"/>
        <pt x="313" y="497" on="1"/>
        <pt x="296" y="497" on="0"/>
        <pt x="277" y="517" on="0"/>
        <pt x="277" y="533" on="1"/>
        <pt x="277" y="550" on="0"/>
        <pt x="301" y="575" on="0"/>
        <pt x="317" y="575" on="1"/>
        <pt x="334" y="575" on="0"/>
        <pt x="353" y="555" on="0"/>
      </contour>
    </TTGlyph>
    <TTGlyph name="divide" xMin="57" yMin="220" xMax="347" yMax="522">
      <contour>
        <pt x="220" y="262" on="1"/>
        <pt x="220" y="245" on="0"/>
        <pt x="196" y="220" on="0"/>
        <pt x="180" y="220" on="1"/>
        <pt x="163" y="220" on="0"/>
        <pt x="144" y="240" on="0"/>
        <pt x="144" y="256" on="1"/>
        <pt x="144" y="273" on="0"/>
        <pt x="168" y="298" on="0"/>
        <pt x="184" y="298" on="1"/>
        <pt x="201" y="298" on="0"/>
        <pt x="220" y="278" on="0"/>
      </contour>
      <contour>
        <pt x="67" y="400" on="1"/>
        <pt x="347" y="400" on="1"/>
        <pt x="337" y="342" on="1"/>
        <pt x="57" y="342" on="1"/>
      </contour>
      <contour>
        <pt x="259" y="486" on="1"/>
        <pt x="259" y="469" on="0"/>
        <pt x="235" y="444" on="0"/>
        <pt x="219" y="444" on="1"/>
        <pt x="202" y="444" on="0"/>
        <pt x="183" y="464" on="0"/>
        <pt x="183" y="480" on="1"/>
        <pt x="183" y="497" on="0"/>
        <pt x="207" y="522" on="0"/>
        <pt x="223" y="522" on="1"/>
        <pt x="240" y="522" on="0"/>
        <pt x="259" y="502" on="0"/>
      </contour>
    </TTGlyph>
    <TTGlyph name="divide.lin" xMin="57" yMin="220" xMax="347" yMax="522">
      <component glyphName="divide" x="0" y="0" flags="0x204"/>
    </TTGlyph>
    <TTGlyph name="dollar" xMin="-22" yMin="-75" xMax="382" yMax="798">
      <contour>
        <pt x="315" y="716" on="1"/>
        <pt x="337" y="706" on="0"/>
        <pt x="370" y="680" on="0"/>
        <pt x="382" y="669" on="1"/>
        <pt x="350" y="614" on="1"/>
        <pt x="325" y="641" on="0"/>
        <pt x="297" y="654" on="1"/>
        <pt x="219" y="389" on="1"/>
        <pt x="224" y="383" on="1"/>
        <pt x="242" y="357" on="0"/>
        <pt x="274" y="308" on="0"/>
        <pt x="297" y="258" on="0"/>
        <pt x="311" y="205" on="0"/>
        <pt x="311" y="174" on="1"/>
        <pt x="311" y="130" on="0"/>
        <pt x="282" y="62" on="0"/>
        <pt x="236" y="14" on="0"/>
        <pt x="177" y="-11" on="0"/>
        <pt x="146" y="-11" on="1"/>
        <pt x="135" y="-11" on="0"/>
        <pt x="114" y="-9" on="0"/>
        <pt x="104" y="-7" on="1"/>
        <pt x="84" y="-75" on="1"/>
        <pt x="36" y="-67" on="1"/>
        <pt x="58" y="8" on="1"/>
        <pt x="32" y="20" on="0"/>
        <pt x="-5" y="52" on="0"/>
        <pt x="-22" y="68" on="1"/>
        <pt x="15" y="125" on="1"/>
        <pt x="31" y="108" on="0"/>
        <pt x="60" y="81" on="0"/>
        <pt x="76" y="71" on="1"/>
        <pt x="161" y="356" on="1"/>
        <pt x="159" y="358" on="0"/>
        <pt x="157" y="362" on="1"/>
        <pt x="141" y="386" on="0"/>
        <pt x="114" y="430" on="0"/>
        <pt x="93" y="475" on="0"/>
        <pt x="81" y="525" on="0"/>
        <pt x="81" y="555" on="1"/>
        <pt x="81" y="593" on="0"/>
        <pt x="106" y="657" on="0"/>
        <pt x="149" y="704" on="0"/>
        <pt x="209" y="731" on="0"/>
        <pt x="245" y="731" on="1"/>
        <pt x="251" y="731" on="0"/>
        <pt x="263" y="730" on="0"/>
        <pt x="269" y="729" on="1"/>
        <pt x="289" y="798" on="1"/>
        <pt x="337" y="790" on="1"/>
      </contour>
      <contour>
        <pt x="244" y="173" on="1"/>
        <pt x="244" y="210" on="0"/>
        <pt x="215" y="275" on="0"/>
        <pt x="195" y="306" on="1"/>
        <pt x="121" y="53" on="1"/>
        <pt x="127" y="51" on="0"/>
        <pt x="139" y="51" on="0"/>
        <pt x="145" y="51" on="1"/>
        <pt x="168" y="51" on="0"/>
        <pt x="205" y="71" on="0"/>
        <pt x="230" y="105" on="0"/>
        <pt x="244" y="149" on="0"/>
      </contour>
      <contour>
        <pt x="146" y="558" on="1"/>
        <pt x="146" y="527" on="0"/>
        <pt x="168" y="470" on="0"/>
        <pt x="185" y="441" on="1"/>
        <pt x="251" y="667" on="1"/>
        <pt x="243" y="667" on="1"/>
        <pt x="218" y="667" on="0"/>
        <pt x="181" y="648" on="0"/>
        <pt x="157" y="616" on="0"/>
        <pt x="146" y="577" on="0"/>
      </contour>
    </TTGlyph>
    <TTGlyph name="dollar.lin" xMin="-22" yMin="-75" xMax="382" yMax="798">
      <contour>
        <pt x="315" y="716" on="1"/>
        <pt x="337" y="706" on="0"/>
        <pt x="370" y="680" on="0"/>
        <pt x="382" y="669" on="1"/>
        <pt x="350" y="614" on="1"/>
        <pt x="325" y="641" on="0"/>
        <pt x="297" y="654" on="1"/>
        <pt x="219" y="389" on="1"/>
        <pt x="224" y="383" on="1"/>
        <pt x="242" y="357" on="0"/>
        <pt x="274" y="308" on="0"/>
        <pt x="297" y="258" on="0"/>
        <pt x="311" y="205" on="0"/>
        <pt x="311" y="174" on="1"/>
        <pt x="311" y="130" on="0"/>
        <pt x="282" y="62" on="0"/>
        <pt x="236" y="14" on="0"/>
        <pt x="177" y="-11" on="0"/>
        <pt x="146" y="-11" on="1"/>
        <pt x="135" y="-11" on="0"/>
        <pt x="114" y="-9" on="0"/>
        <pt x="104" y="-7" on="1"/>
        <pt x="84" y="-75" on="1"/>
        <pt x="36" y="-67" on="1"/>
        <pt x="58" y="8" on="1"/>
        <pt x="32" y="20" on="0"/>
        <pt x="-5" y="52" on="0"/>
        <pt x="-22" y="68" on="1"/>
        <pt x="15" y="125" on="1"/>
        <pt x="31" y="108" on="0"/>
        <pt x="60" y="81" on="0"/>
        <pt x="76" y="71" on="1"/>
        <pt x="161" y="356" on="1"/>
        <pt x="159" y="358" on="0"/>
        <pt x="157" y="362" on="1"/>
        <pt x="141" y="386" on="0"/>
        <pt x="114" y="430" on="0"/>
        <pt x="93" y="475" on="0"/>
        <pt x="81" y="525" on="0"/>
        <pt x="81" y="555" on="1"/>
        <pt x="81" y="593" on="0"/>
        <pt x="106" y="657" on="0"/>
        <pt x="149" y="704" on="0"/>
        <pt x="209" y="731" on="0"/>
        <pt x="245" y="731" on="1"/>
        <pt x="251" y="731" on="0"/>
        <pt x="263" y="730" on="0"/>
        <pt x="269" y="729" on="1"/>
        <pt x="289" y="798" on="1"/>
        <pt x="337" y="790" on="1"/>
      </contour>
      <contour>
        <pt x="244" y="173" on="1"/>
        <pt x="244" y="210" on="0"/>
        <pt x="215" y="275" on="0"/>
        <pt x="195" y="306" on="1"/>
        <pt x="121" y="53" on="1"/>
        <pt x="127" y="51" on="0"/>
        <pt x="139" y="51" on="0"/>
        <pt x="145" y="51" on="1"/>
        <pt x="168" y="51" on="0"/>
        <pt x="205" y="71" on="0"/>
        <pt x="230" y="105" on="0"/>
        <pt x="244" y="149" on="0"/>
      </contour>
      <contour>
        <pt x="146" y="558" on="1"/>
        <pt x="146" y="527" on="0"/>
        <pt x="168" y="470" on="0"/>
        <pt x="185" y="441" on="1"/>
        <pt x="251" y="667" on="1"/>
        <pt x="243" y="667" on="1"/>
        <pt x="218" y="667" on="0"/>
        <pt x="181" y="648" on="0"/>
        <pt x="157" y="616" on="0"/>
        <pt x="146" y="577" on="0"/>
      </contour>
    </TTGlyph>
    <TTGlyph name="dotaccent" xMin="217" yMin="497" xMax="293" yMax="575">
      <contour>
        <pt x="293" y="539" on="1"/>
        <pt x="293" y="522" on="0"/>
        <pt x="269" y="497" on="0"/>
        <pt x="253" y="497" on="1"/>
        <pt x="236" y="497" on="0"/>
        <pt x="217" y="517" on="0"/>
        <pt x="217" y="533" on="1"/>
        <pt x="217" y="550" on="0"/>
        <pt x="241" y="575" on="0"/>
        <pt x="257" y="575" on="1"/>
        <pt x="274" y="575" on="0"/>
        <pt x="293" y="555" on="0"/>
      </contour>
    </TTGlyph>
    <TTGlyph name="dotlessi" xMin="9" yMin="0" xMax="155" yMax="446">
      <contour>
        <pt x="77" y="0" on="1"/>
        <pt x="9" y="0" on="1"/>
        <pt x="87" y="446" on="1"/>
        <pt x="155" y="446" on="1"/>
      </contour>
    </TTGlyph>
    <TTGlyph name="e" xMin="21" yMin="-11" xMax="308" yMax="457">
      <contour>
        <pt x="156" y="-11" on="1"/>
        <pt x="129" y="-11" on="0"/>
        <pt x="81" y="7" on="0"/>
        <pt x="43" y="47" on="0"/>
        <pt x="21" y="109" on="0"/>
        <pt x="21" y="154" on="1"/>
        <pt x="21" y="200" on="0"/>
        <pt x="46" y="307" on="0"/>
        <pt x="93" y="397" on="0"/>
        <pt x="162" y="457" on="0"/>
        <pt x="206" y="457" on="1"/>
        <pt x="257" y="457" on="0"/>
        <pt x="308" y="384" on="0"/>
        <pt x="308" y="318" on="1"/>
        <pt x="308" y="295" on="0"/>
        <pt x="299" y="236" on="0"/>
        <pt x="288" y="199" on="1"/>
        <pt x="90" y="199" on="1"/>
        <pt x="89" y="189" on="0"/>
        <pt x="88" y="166" on="0"/>
        <pt x="88" y="153" on="1"/>
        <pt x="88" y="105" on="0"/>
        <pt x="127" y="46" on="0"/>
        <pt x="166" y="46" on="1"/>
        <pt x="180" y="46" on="0"/>
        <pt x="218" y="59" on="0"/>
        <pt x="232" y="68" on="1"/>
        <pt x="246" y="16" on="1"/>
        <pt x="204" y="-11" on="0"/>
      </contour>
      <contour>
        <pt x="235" y="251" on="1"/>
        <pt x="240" y="268" on="0"/>
        <pt x="245" y="317" on="0"/>
        <pt x="245" y="334" on="1"/>
        <pt x="245" y="360" on="0"/>
        <pt x="227" y="400" on="0"/>
        <pt x="202" y="400" on="1"/>
        <pt x="185" y="400" on="0"/>
        <pt x="154" y="376" on="0"/>
        <pt x="127" y="335" on="0"/>
        <pt x="107" y="281" on="0"/>
        <pt x="100" y="251" on="1"/>
      </contour>
    </TTGlyph>
    <TTGlyph name="eacute" xMin="21" yMin="-11" xMax="350" yMax="620">
      <component glyphName="e" x="0" y="0" flags="0x204"/>
      <component glyphName="acute" x="19" y="0" flags="0x4"/>
    </TTGlyph>
    <TTGlyph name="ebreve" xMin="21" yMin="-11" xMax="329" yMax="590">
      <component glyphName="e" x="0" y="0" flags="0x204"/>
      <component glyphName="breve" x="-28" y="0" flags="0x4"/>
    </TTGlyph>
    <TTGlyph name="ecaron" xMin="21" yMin="-11" xMax="354" yMax="614">
      <component glyphName="e" x="0" y="0" flags="0x204"/>
      <component glyphName="caron" x="-26" y="0" flags="0x4"/>
    </TTGlyph>
    <TTGlyph name="ecircumflex" xMin="21" yMin="-11" xMax="327" yMax="619">
      <component glyphName="e" x="0" y="0" flags="0x204"/>
      <component glyphName="circumflex" x="-36" y="0" flags="0x4"/>
    </TTGlyph>
    <TTGlyph name="edieresis" xMin="21" yMin="-11" xMax="325" yMax="575">
      <component glyphName="e" x="0" y="0" flags="0x204"/>
      <component glyphName="dieresis" x="-28" y="0" flags="0x4"/>
    </TTGlyph>
    <TTGlyph name="edotaccent" xMin="21" yMin="-11" xMax="308" yMax="575">
      <component glyphName="e" x="0" y="0" flags="0x204"/>
      <component glyphName="dotaccent" x="-29" y="0" flags="0x4"/>
    </TTGlyph>
    <TTGlyph name="egrave" xMin="21" yMin="-11" xMax="308" yMax="620">
      <component glyphName="e" x="0" y="0" flags="0x204"/>
      <component glyphName="grave" x="-92" y="0" flags="0x4"/>
    </TTGlyph>
    <TTGlyph name="eight" xMin="28" yMin="-11" xMax="392" yMax="730">
      <contour>
        <pt x="392" y="573" on="1"/>
        <pt x="392" y="541" on="0"/>
        <pt x="378" y="479" on="0"/>
        <pt x="350" y="423" on="0"/>
        <pt x="307" y="377" on="0"/>
        <pt x="278" y="362" on="1"/>
        <pt x="310" y="342" on="0"/>
        <pt x="342" y="272" on="0"/>
        <pt x="342" y="228" on="1"/>
        <pt x="342" y="181" on="0"/>
        <pt x="314" y="94" on="0"/>
        <pt x="265" y="28" on="0"/>
        <pt x="199" y="-11" on="0"/>
        <pt x="162" y="-11" on="1"/>
        <pt x="128" y="-11" on="0"/>
        <pt x="78" y="15" on="0"/>
        <pt x="45" y="58" on="0"/>
        <pt x="28" y="114" on="0"/>
        <pt x="28" y="145" on="1"/>
        <pt x="28" y="179" on="0"/>
        <pt x="41" y="246" on="0"/>
        <pt x="70" y="306" on="0"/>
        <pt x="116" y="354" on="0"/>
        <pt x="148" y="370" on="1"/>
        <pt x="117" y="396" on="0"/>
        <pt x="93" y="467" on="0"/>
        <pt x="93" y="503" on="1"/>
        <pt x="93" y="551" on="0"/>
        <pt x="119" y="634" on="0"/>
        <pt x="165" y="695" on="0"/>
        <pt x="227" y="730" on="0"/>
        <pt x="263" y="730" on="1"/>
        <pt x="294" y="730" on="0"/>
        <pt x="342" y="706" on="0"/>
        <pt x="375" y="664" on="0"/>
        <pt x="392" y="606" on="0"/>
      </contour>
      <contour>
        <pt x="325" y="572" on="1"/>
        <pt x="325" y="615" on="0"/>
        <pt x="291" y="669" on="0"/>
        <pt x="261" y="669" on="1"/>
        <pt x="240" y="669" on="0"/>
        <pt x="202" y="642" on="0"/>
        <pt x="174" y="594" on="0"/>
        <pt x="158" y="530" on="0"/>
        <pt x="158" y="493" on="1"/>
        <pt x="158" y="450" on="0"/>
        <pt x="192" y="396" on="0"/>
        <pt x="222" y="396" on="1"/>
        <pt x="243" y="396" on="0"/>
        <pt x="281" y="423" on="0"/>
        <pt x="309" y="471" on="0"/>
        <pt x="325" y="535" on="0"/>
      </contour>
      <contour>
        <pt x="276" y="236" on="1"/>
        <pt x="276" y="281" on="0"/>
        <pt x="237" y="335" on="0"/>
        <pt x="205" y="335" on="1"/>
        <pt x="181" y="335" on="0"/>
        <pt x="140" y="306" on="0"/>
        <pt x="111" y="256" on="0"/>
        <pt x="94" y="189" on="0"/>
        <pt x="94" y="150" on="1"/>
        <pt x="94" y="104" on="0"/>
        <pt x="133" y="51" on="0"/>
        <pt x="165" y="51" on="1"/>
        <pt x="189" y="51" on="0"/>
        <pt x="230" y="80" on="0"/>
        <pt x="259" y="129" on="0"/>
        <pt x="276" y="197" on="0"/>
      </contour>
    </TTGlyph>
    <TTGlyph name="eight.lin" xMin="28" yMin="-11" xMax="392" yMax="730">
      <contour>
        <pt x="162" y="-11" on="1"/>
        <pt x="128" y="-11" on="0"/>
        <pt x="78" y="15" on="0"/>
        <pt x="45" y="58" on="0"/>
        <pt x="28" y="114" on="0"/>
        <pt x="28" y="145" on="1"/>
        <pt x="28" y="179" on="0"/>
        <pt x="41" y="246" on="0"/>
        <pt x="70" y="306" on="0"/>
        <pt x="116" y="354" on="0"/>
        <pt x="148" y="370" on="1"/>
        <pt x="117" y="396" on="0"/>
        <pt x="93" y="467" on="0"/>
        <pt x="93" y="503" on="1"/>
        <pt x="93" y="551" on="0"/>
        <pt x="119" y="634" on="0"/>
        <pt x="165" y="695" on="0"/>
        <pt x="227" y="730" on="0"/>
        <pt x="263" y="730" on="1"/>
        <pt x="294" y="730" on="0"/>
        <pt x="342" y="706" on="0"/>
        <pt x="375" y="664" on="0"/>
        <pt x="392" y="606" on="0"/>
        <pt x="392" y="573" on="1"/>
        <pt x="392" y="541" on="0"/>
        <pt x="378" y="479" on="0"/>
        <pt x="350" y="423" on="0"/>
        <pt x="307" y="377" on="0"/>
        <pt x="278" y="362" on="1"/>
        <pt x="310" y="342" on="0"/>
        <pt x="342" y="272" on="0"/>
        <pt x="342" y="228" on="1"/>
        <pt x="342" y="181" on="0"/>
        <pt x="314" y="94" on="0"/>
        <pt x="265" y="28" on="0"/>
        <pt x="199" y="-11" on="0"/>
      </contour>
      <contour>
        <pt x="276" y="236" on="1"/>
        <pt x="276" y="281" on="0"/>
        <pt x="237" y="335" on="0"/>
        <pt x="205" y="335" on="1"/>
        <pt x="181" y="335" on="0"/>
        <pt x="140" y="306" on="0"/>
        <pt x="111" y="256" on="0"/>
        <pt x="94" y="189" on="0"/>
        <pt x="94" y="150" on="1"/>
        <pt x="94" y="104" on="0"/>
        <pt x="133" y="51" on="0"/>
        <pt x="165" y="51" on="1"/>
        <pt x="189" y="51" on="0"/>
        <pt x="230" y="80" on="0"/>
        <pt x="259" y="129" on="0"/>
        <pt x="276" y="197" on="0"/>
      </contour>
      <contour>
        <pt x="325" y="572" on="1"/>
        <pt x="325" y="615" on="0"/>
        <pt x="291" y="669" on="0"/>
        <pt x="261" y="669" on="1"/>
        <pt x="240" y="669" on="0"/>
        <pt x="202" y="642" on="0"/>
        <pt x="174" y="594" on="0"/>
        <pt x="158" y="530" on="0"/>
        <pt x="158" y="493" on="1"/>
        <pt x="158" y="450" on="0"/>
        <pt x="192" y="396" on="0"/>
        <pt x="222" y="396" on="1"/>
        <pt x="243" y="396" on="0"/>
        <pt x="281" y="423" on="0"/>
        <pt x="309" y="471" on="0"/>
        <pt x="325" y="535" on="0"/>
      </contour>
    </TTGlyph>
    <TTGlyph name="ellipsis" xMin="-1" yMin="-11" xMax="401" yMax="83">
      <contour>
        <pt x="91" y="40" on="1"/>
        <pt x="91" y="19" on="0"/>
        <pt x="62" y="-11" on="0"/>
        <pt x="42" y="-11" on="1"/>
        <pt x="22" y="-11" on="0"/>
        <pt x="-1" y="13" on="0"/>
        <pt x="-1" y="32" on="1"/>
        <pt x="-1" y="53" on="0"/>
        <pt x="28" y="83" on="0"/>
        <pt x="48" y="83" on="1"/>
        <pt x="68" y="83" on="0"/>
        <pt x="91" y="59" on="0"/>
      </contour>
      <contour>
        <pt x="246" y="40" on="1"/>
        <pt x="246" y="19" on="0"/>
        <pt x="217" y="-11" on="0"/>
        <pt x="197" y="-11" on="1"/>
        <pt x="177" y="-11" on="0"/>
        <pt x="154" y="13" on="0"/>
        <pt x="154" y="32" on="1"/>
        <pt x="154" y="53" on="0"/>
        <pt x="183" y="83" on="0"/>
        <pt x="203" y="83" on="1"/>
        <pt x="223" y="83" on="0"/>
        <pt x="246" y="59" on="0"/>
      </contour>
      <contour>
        <pt x="401" y="40" on="1"/>
        <pt x="401" y="19" on="0"/>
        <pt x="372" y="-11" on="0"/>
        <pt x="352" y="-11" on="1"/>
        <pt x="332" y="-11" on="0"/>
        <pt x="309" y="13" on="0"/>
        <pt x="309" y="32" on="1"/>
        <pt x="309" y="53" on="0"/>
        <pt x="338" y="83" on="0"/>
        <pt x="358" y="83" on="1"/>
        <pt x="378" y="83" on="0"/>
        <pt x="401" y="59" on="0"/>
      </contour>
    </TTGlyph>
    <TTGlyph name="emacron" xMin="21" yMin="-11" xMax="333" yMax="550">
      <component glyphName="e" x="0" y="0" flags="0x204"/>
      <component glyphName="macron" x="-29" y="0" flags="0x4"/>
    </TTGlyph>
    <TTGlyph name="emdash" xMin="33" yMin="236" xMax="434" yMax="300">
      <contour>
        <pt x="423" y="236" on="1"/>
        <pt x="33" y="236" on="1"/>
        <pt x="44" y="300" on="1"/>
        <pt x="434" y="300" on="1"/>
      </contour>
    </TTGlyph>
    <TTGlyph name="emdash.cap" xMin="51" yMin="339" xMax="452" yMax="403">
      <component glyphName="emdash" x="18" y="103" flags="0x204"/>
    </TTGlyph>
    <TTGlyph name="endash" xMin="32" yMin="236" xMax="284" yMax="300">
      <contour>
        <pt x="272" y="236" on="1"/>
        <pt x="32" y="236" on="1"/>
        <pt x="44" y="300" on="1"/>
        <pt x="284" y="300" on="1"/>
      </contour>
    </TTGlyph>
    <TTGlyph name="endash.cap" xMin="50" yMin="339" xMax="302" yMax="403">
      <component glyphName="endash" x="18" y="103" flags="0x204"/>
    </TTGlyph>
    <TTGlyph name="eogonek" xMin="21" yMin="-188" xMax="308" yMax="457">
      <contour>
        <pt x="156" y="-11" on="1"/>
        <pt x="129" y="-11" on="0"/>
        <pt x="81" y="7" on="0"/>
        <pt x="43" y="47" on="0"/>
        <pt x="21" y="109" on="0"/>
        <pt x="21" y="154" on="1"/>
        <pt x="21" y="200" on="0"/>
        <pt x="46" y="307" on="0"/>
        <pt x="93" y="397" on="0"/>
        <pt x="162" y="457" on="0"/>
        <pt x="206" y="457" on="1"/>
        <pt x="257" y="457" on="0"/>
        <pt x="308" y="384" on="0"/>
        <pt x="308" y="318" on="1"/>
        <pt x="308" y="295" on="0"/>
        <pt x="299" y="236" on="0"/>
        <pt x="288" y="199" on="1"/>
        <pt x="90" y="199" on="1"/>
        <pt x="89" y="189" on="0"/>
        <pt x="88" y="166" on="0"/>
        <pt x="88" y="153" on="1"/>
        <pt x="88" y="105" on="0"/>
        <pt x="127" y="46" on="0"/>
        <pt x="166" y="46" on="1"/>
        <pt x="180" y="46" on="0"/>
        <pt x="218" y="59" on="0"/>
        <pt x="232" y="68" on="1"/>
        <pt x="246" y="16" on="1"/>
        <pt x="208" y="-13" on="0"/>
        <pt x="159" y="-84" on="0"/>
        <pt x="159" y="-116" on="1"/>
        <pt x="159" y="-141" on="0"/>
        <pt x="180" y="-141" on="1"/>
        <pt x="188" y="-141" on="0"/>
        <pt x="205" y="-135" on="0"/>
        <pt x="211" y="-130" on="1"/>
        <pt x="223" y="-165" on="1"/>
        <pt x="210" y="-176" on="0"/>
        <pt x="182" y="-188" on="0"/>
        <pt x="163" y="-188" on="1"/>
        <pt x="137" y="-188" on="0"/>
        <pt x="107" y="-157" on="0"/>
        <pt x="107" y="-131" on="1"/>
        <pt x="107" y="-99" on="0"/>
        <pt x="140" y="-39" on="0"/>
        <pt x="169" y="-10" on="1"/>
        <pt x="166" y="-11" on="0"/>
        <pt x="159" y="-11" on="0"/>
      </contour>
      <contour>
        <pt x="235" y="251" on="1"/>
        <pt x="240" y="268" on="0"/>
        <pt x="245" y="317" on="0"/>
        <pt x="245" y="334" on="1"/>
        <pt x="245" y="360" on="0"/>
        <pt x="227" y="400" on="0"/>
        <pt x="202" y="400" on="1"/>
        <pt x="185" y="400" on="0"/>
        <pt x="154" y="376" on="0"/>
        <pt x="127" y="335" on="0"/>
        <pt x="107" y="281" on="0"/>
        <pt x="100" y="251" on="1"/>
      </contour>
    </TTGlyph>
    <TTGlyph name="equal" xMin="44" yMin="269" xMax="267" yMax="473">
      <contour>
        <pt x="231" y="269" on="1"/>
        <pt x="44" y="269" on="1"/>
        <pt x="55" y="327" on="1"/>
        <pt x="242" y="327" on="1"/>
      </contour>
      <contour>
        <pt x="257" y="415" on="1"/>
        <pt x="70" y="415" on="1"/>
        <pt x="80" y="473" on="1"/>
        <pt x="267" y="473" on="1"/>
      </contour>
    </TTGlyph>
    <TTGlyph name="equal.lin" xMin="44" yMin="269" xMax="267" yMax="473">
      <component glyphName="equal" x="0" y="0" flags="0x204"/>
    </TTGlyph>
    <TTGlyph name="eth" xMin="18" yMin="-10" xMax="322" yMax="731">
      <contour>
        <pt x="259" y="625" on="1"/>
        <pt x="283" y="577" on="0"/>
        <pt x="318" y="451" on="0"/>
        <pt x="318" y="372" on="1"/>
        <pt x="318" y="286" on="0"/>
        <pt x="290" y="146" on="0"/>
        <pt x="240" y="45" on="0"/>
        <pt x="173" y="-10" on="0"/>
        <pt x="133" y="-10" on="1"/>
        <pt x="79" y="-10" on="0"/>
        <pt x="18" y="83" on="0"/>
        <pt x="18" y="162" on="1"/>
        <pt x="18" y="222" on="0"/>
        <pt x="46" y="329" on="0"/>
        <pt x="92" y="410" on="0"/>
        <pt x="151" y="457" on="0"/>
        <pt x="182" y="457" on="1"/>
        <pt x="207" y="457" on="0"/>
        <pt x="251" y="420" on="0"/>
        <pt x="265" y="382" on="1"/>
        <pt x="260" y="448" on="0"/>
        <pt x="230" y="548" on="0"/>
        <pt x="210" y="588" on="1"/>
        <pt x="149" y="541" on="1"/>
        <pt x="119" y="584" on="1"/>
        <pt x="183" y="634" on="1"/>
        <pt x="173" y="650" on="0"/>
        <pt x="153" y="678" on="0"/>
        <pt x="144" y="691" on="1"/>
        <pt x="190" y="731" on="1"/>
        <pt x="199" y="720" on="0"/>
        <pt x="221" y="690" on="0"/>
        <pt x="233" y="672" on="1"/>
        <pt x="291" y="717" on="1"/>
        <pt x="322" y="674" on="1"/>
      </contour>
      <contour>
        <pt x="242" y="292" on="1"/>
        <pt x="242" y="339" on="0"/>
        <pt x="214" y="397" on="0"/>
        <pt x="186" y="397" on="1"/>
        <pt x="162" y="397" on="0"/>
        <pt x="124" y="350" on="0"/>
        <pt x="97" y="277" on="0"/>
        <pt x="83" y="188" on="0"/>
        <pt x="83" y="145" on="1"/>
        <pt x="83" y="100" on="0"/>
        <pt x="108" y="47" on="0"/>
        <pt x="136" y="47" on="1"/>
        <pt x="160" y="47" on="0"/>
        <pt x="199" y="95" on="0"/>
        <pt x="227" y="168" on="0"/>
        <pt x="242" y="254" on="0"/>
      </contour>
    </TTGlyph>
    <TTGlyph name="exclam" xMin="1" yMin="-11" xMax="204" yMax="733">
      <contour>
        <pt x="91" y="182" on="1"/>
        <pt x="47" y="182" on="1"/>
        <pt x="128" y="733" on="1"/>
        <pt x="204" y="733" on="1"/>
      </contour>
      <contour>
        <pt x="93" y="40" on="1"/>
        <pt x="93" y="19" on="0"/>
        <pt x="64" y="-11" on="0"/>
        <pt x="44" y="-11" on="1"/>
        <pt x="24" y="-11" on="0"/>
        <pt x="1" y="13" on="0"/>
        <pt x="1" y="32" on="1"/>
        <pt x="1" y="53" on="0"/>
        <pt x="30" y="83" on="0"/>
        <pt x="50" y="83" on="1"/>
        <pt x="70" y="83" on="0"/>
        <pt x="93" y="59" on="0"/>
      </contour>
    </TTGlyph>
    <TTGlyph name="exclamdown" xMin="-1" yMin="0" xMax="202" yMax="744">
      <contour>
        <pt x="202" y="701" on="1"/>
        <pt x="202" y="680" on="0"/>
        <pt x="173" y="650" on="0"/>
        <pt x="153" y="650" on="1"/>
        <pt x="133" y="650" on="0"/>
        <pt x="110" y="674" on="0"/>
        <pt x="110" y="693" on="1"/>
        <pt x="110" y="714" on="0"/>
        <pt x="139" y="744" on="0"/>
        <pt x="159" y="744" on="1"/>
        <pt x="179" y="744" on="0"/>
        <pt x="202" y="720" on="0"/>
      </contour>
      <contour>
        <pt x="75" y="0" on="1"/>
        <pt x="-1" y="0" on="1"/>
        <pt x="112" y="551" on="1"/>
        <pt x="156" y="551" on="1"/>
      </contour>
    </TTGlyph>
    <TTGlyph name="f" xMin="-10" yMin="-186" xMax="323" yMax="740">
      <contour>
        <pt x="300" y="667" on="1"/>
        <pt x="292" y="671" on="0"/>
        <pt x="269" y="678" on="0"/>
        <pt x="258" y="678" on="1"/>
        <pt x="232" y="678" on="0"/>
        <pt x="202" y="643" on="0"/>
        <pt x="194" y="595" on="1"/>
        <pt x="168" y="446" on="1"/>
        <pt x="244" y="446" on="1"/>
        <pt x="233" y="386" on="1"/>
        <pt x="157" y="386" on="1"/>
        <pt x="56" y="-186" on="1"/>
        <pt x="-10" y="-186" on="1"/>
        <pt x="91" y="386" on="1"/>
        <pt x="38" y="386" on="1"/>
        <pt x="41" y="401" on="1"/>
        <pt x="103" y="453" on="1"/>
        <pt x="130" y="606" on="1"/>
        <pt x="137" y="645" on="0"/>
        <pt x="161" y="697" on="0"/>
        <pt x="194" y="727" on="0"/>
        <pt x="233" y="740" on="0"/>
        <pt x="256" y="740" on="1"/>
        <pt x="280" y="740" on="0"/>
        <pt x="316" y="729" on="0"/>
        <pt x="323" y="726" on="1"/>
      </contour>
    </TTGlyph>
    <TTGlyph name="f_f" xMin="-10" yMin="-186" xMax="496" yMax="740">
      <contour>
        <pt x="300" y="667" on="1"/>
        <pt x="292" y="671" on="0"/>
        <pt x="267" y="678" on="0"/>
        <pt x="256" y="678" on="1"/>
        <pt x="230" y="678" on="0"/>
        <pt x="202" y="640" on="0"/>
        <pt x="195" y="600" on="1"/>
        <pt x="168" y="446" on="1"/>
        <pt x="275" y="446" on="1"/>
        <pt x="302" y="599" on="1"/>
        <pt x="315" y="672" on="0"/>
        <pt x="377" y="740" on="0"/>
        <pt x="431" y="740" on="1"/>
        <pt x="451" y="740" on="0"/>
        <pt x="489" y="729" on="0"/>
        <pt x="496" y="726" on="1"/>
        <pt x="473" y="667" on="1"/>
        <pt x="465" y="671" on="0"/>
        <pt x="440" y="678" on="0"/>
        <pt x="429" y="678" on="1"/>
        <pt x="403" y="678" on="0"/>
        <pt x="375" y="640" on="0"/>
        <pt x="368" y="600" on="1"/>
        <pt x="341" y="446" on="1"/>
        <pt x="417" y="446" on="1"/>
        <pt x="406" y="386" on="1"/>
        <pt x="330" y="386" on="1"/>
        <pt x="229" y="-186" on="1"/>
        <pt x="163" y="-186" on="1"/>
        <pt x="264" y="386" on="1"/>
        <pt x="157" y="386" on="1"/>
        <pt x="56" y="-186" on="1"/>
        <pt x="-10" y="-186" on="1"/>
        <pt x="91" y="386" on="1"/>
        <pt x="38" y="386" on="1"/>
        <pt x="41" y="401" on="1"/>
        <pt x="103" y="453" on="1"/>
        <pt x="129" y="599" on="1"/>
        <pt x="142" y="672" on="0"/>
        <pt x="204" y="740" on="0"/>
        <pt x="258" y="740" on="1"/>
        <pt x="278" y="740" on="0"/>
        <pt x="316" y="729" on="0"/>
        <pt x="323" y="726" on="1"/>
      </contour>
    </TTGlyph>
    <TTGlyph name="f_f_i" xMin="-10" yMin="-186" xMax="568" yMax="740">
      <contour>
        <pt x="473" y="667" on="1"/>
        <pt x="465" y="671" on="0"/>
        <pt x="440" y="678" on="0"/>
        <pt x="429" y="678" on="1"/>
        <pt x="403" y="678" on="0"/>
        <pt x="375" y="640" on="0"/>
        <pt x="368" y="600" on="1"/>
        <pt x="341" y="446" on="1"/>
        <pt x="417" y="446" on="1"/>
        <pt x="406" y="386" on="1"/>
        <pt x="330" y="386" on="1"/>
        <pt x="229" y="-186" on="1"/>
        <pt x="163" y="-186" on="1"/>
        <pt x="264" y="386" on="1"/>
        <pt x="157" y="386" on="1"/>
        <pt x="56" y="-186" on="1"/>
        <pt x="-10" y="-186" on="1"/>
        <pt x="91" y="386" on="1"/>
        <pt x="38" y="386" on="1"/>
        <pt x="41" y="401" on="1"/>
        <pt x="103" y="453" on="1"/>
        <pt x="129" y="599" on="1"/>
        <pt x="142" y="672" on="0"/>
        <pt x="204" y="740" on="0"/>
        <pt x="258" y="740" on="1"/>
        <pt x="278" y="740" on="0"/>
        <pt x="316" y="729" on="0"/>
        <pt x="323" y="726" on="1"/>
        <pt x="300" y="667" on="1"/>
        <pt x="292" y="671" on="0"/>
        <pt x="267" y="678" on="0"/>
        <pt x="256" y="678" on="1"/>
        <pt x="230" y="678" on="0"/>
        <pt x="202" y="640" on="0"/>
        <pt x="195" y="600" on="1"/>
        <pt x="168" y="446" on="1"/>
        <pt x="275" y="446" on="1"/>
        <pt x="302" y="599" on="1"/>
        <pt x="315" y="672" on="0"/>
        <pt x="377" y="740" on="0"/>
        <pt x="431" y="740" on="1"/>
        <pt x="451" y="740" on="0"/>
        <pt x="489" y="729" on="0"/>
        <pt x="496" y="726" on="1"/>
      </contour>
      <contour>
        <pt x="461" y="0" on="1"/>
        <pt x="393" y="0" on="1"/>
        <pt x="471" y="446" on="1"/>
        <pt x="539" y="446" on="1"/>
      </contour>
      <contour>
        <pt x="568" y="578" on="1"/>
        <pt x="568" y="556" on="0"/>
        <pt x="541" y="525" on="0"/>
        <pt x="522" y="525" on="1"/>
        <pt x="503" y="525" on="0"/>
        <pt x="482" y="550" on="0"/>
        <pt x="482" y="570" on="1"/>
        <pt x="482" y="592" on="0"/>
        <pt x="509" y="623" on="0"/>
        <pt x="528" y="623" on="1"/>
        <pt x="547" y="623" on="0"/>
        <pt x="568" y="598" on="0"/>
      </contour>
    </TTGlyph>
    <TTGlyph name="f_f_l" xMin="-10" yMin="-186" xMax="585" yMax="740">
      <contour>
        <pt x="473" y="667" on="1"/>
        <pt x="465" y="671" on="0"/>
        <pt x="440" y="678" on="0"/>
        <pt x="429" y="678" on="1"/>
        <pt x="403" y="678" on="0"/>
        <pt x="375" y="640" on="0"/>
        <pt x="368" y="600" on="1"/>
        <pt x="341" y="446" on="1"/>
        <pt x="417" y="446" on="1"/>
        <pt x="406" y="386" on="1"/>
        <pt x="330" y="386" on="1"/>
        <pt x="229" y="-186" on="1"/>
        <pt x="163" y="-186" on="1"/>
        <pt x="264" y="386" on="1"/>
        <pt x="157" y="386" on="1"/>
        <pt x="56" y="-186" on="1"/>
        <pt x="-10" y="-186" on="1"/>
        <pt x="91" y="386" on="1"/>
        <pt x="38" y="386" on="1"/>
        <pt x="41" y="401" on="1"/>
        <pt x="103" y="453" on="1"/>
        <pt x="129" y="599" on="1"/>
        <pt x="142" y="672" on="0"/>
        <pt x="204" y="740" on="0"/>
        <pt x="258" y="740" on="1"/>
        <pt x="278" y="740" on="0"/>
        <pt x="316" y="729" on="0"/>
        <pt x="323" y="726" on="1"/>
        <pt x="300" y="667" on="1"/>
        <pt x="292" y="671" on="0"/>
        <pt x="267" y="678" on="0"/>
        <pt x="256" y="678" on="1"/>
        <pt x="230" y="678" on="0"/>
        <pt x="202" y="640" on="0"/>
        <pt x="195" y="600" on="1"/>
        <pt x="168" y="446" on="1"/>
        <pt x="275" y="446" on="1"/>
        <pt x="302" y="599" on="1"/>
        <pt x="315" y="672" on="0"/>
        <pt x="377" y="740" on="0"/>
        <pt x="431" y="740" on="1"/>
        <pt x="451" y="740" on="0"/>
        <pt x="489" y="729" on="0"/>
        <pt x="496" y="726" on="1"/>
      </contour>
      <contour>
        <pt x="455" y="0" on="1"/>
        <pt x="387" y="0" on="1"/>
        <pt x="517" y="733" on="1"/>
        <pt x="585" y="733" on="1"/>
      </contour>
    </TTGlyph>
    <TTGlyph name="fi" xMin="-10" yMin="-186" xMax="395" yMax="740">
      <contour>
        <pt x="300" y="667" on="1"/>
        <pt x="292" y="671" on="0"/>
        <pt x="269" y="678" on="0"/>
        <pt x="258" y="678" on="1"/>
        <pt x="232" y="678" on="0"/>
        <pt x="202" y="643" on="0"/>
        <pt x="194" y="595" on="1"/>
        <pt x="168" y="446" on="1"/>
        <pt x="244" y="446" on="1"/>
        <pt x="233" y="386" on="1"/>
        <pt x="157" y="386" on="1"/>
        <pt x="56" y="-186" on="1"/>
        <pt x="-10" y="-186" on="1"/>
        <pt x="91" y="386" on="1"/>
        <pt x="38" y="386" on="1"/>
        <pt x="41" y="401" on="1"/>
        <pt x="103" y="453" on="1"/>
        <pt x="130" y="606" on="1"/>
        <pt x="137" y="645" on="0"/>
        <pt x="161" y="697" on="0"/>
        <pt x="194" y="727" on="0"/>
        <pt x="233" y="740" on="0"/>
        <pt x="256" y="740" on="1"/>
        <pt x="280" y="740" on="0"/>
        <pt x="316" y="729" on="0"/>
        <pt x="323" y="726" on="1"/>
      </contour>
      <contour>
        <pt x="288" y="0" on="1"/>
        <pt x="220" y="0" on="1"/>
        <pt x="298" y="446" on="1"/>
        <pt x="366" y="446" on="1"/>
      </contour>
      <contour>
        <pt x="395" y="578" on="1"/>
        <pt x="395" y="556" on="0"/>
        <pt x="368" y="525" on="0"/>
        <pt x="349" y="525" on="1"/>
        <pt x="330" y="525" on="0"/>
        <pt x="309" y="550" on="0"/>
        <pt x="309" y="570" on="1"/>
        <pt x="309" y="592" on="0"/>
        <pt x="336" y="623" on="0"/>
        <pt x="355" y="623" on="1"/>
        <pt x="374" y="623" on="0"/>
        <pt x="395" y="598" on="0"/>
      </contour>
    </TTGlyph>
    <TTGlyph name="five" xMin="2" yMin="-11" xMax="374" yMax="719">
      <contour>
        <pt x="363" y="655" on="1"/>
        <pt x="194" y="655" on="1"/>
        <pt x="151" y="436" on="1"/>
        <pt x="156" y="437" on="0"/>
        <pt x="166" y="438" on="0"/>
        <pt x="171" y="438" on="1"/>
        <pt x="236" y="438" on="0"/>
        <pt x="308" y="347" on="0"/>
        <pt x="308" y="272" on="1"/>
        <pt x="308" y="216" on="0"/>
        <pt x="280" y="114" on="0"/>
        <pt x="229" y="36" on="0"/>
        <pt x="157" y="-11" on="0"/>
        <pt x="112" y="-11" on="1"/>
        <pt x="81" y="-11" on="0"/>
        <pt x="28" y="6" on="0"/>
        <pt x="2" y="22" on="1"/>
        <pt x="27" y="80" on="1"/>
        <pt x="47" y="68" on="0"/>
        <pt x="88" y="53" on="0"/>
        <pt x="110" y="53" on="1"/>
        <pt x="139" y="53" on="0"/>
        <pt x="186" y="88" on="0"/>
        <pt x="219" y="146" on="0"/>
        <pt x="237" y="224" on="0"/>
        <pt x="237" y="267" on="1"/>
        <pt x="237" y="321" on="0"/>
        <pt x="192" y="376" on="0"/>
        <pt x="142" y="376" on="1"/>
        <pt x="125" y="376" on="0"/>
        <pt x="95" y="371" on="0"/>
        <pt x="79" y="366" on="1"/>
        <pt x="72" y="372" on="1"/>
        <pt x="139" y="719" on="1"/>
        <pt x="374" y="719" on="1"/>
      </contour>
    </TTGlyph>
    <TTGlyph name="five.lin" xMin="2" yMin="-11" xMax="374" yMax="719">
      <contour>
        <pt x="363" y="655" on="1"/>
        <pt x="194" y="655" on="1"/>
        <pt x="151" y="436" on="1"/>
        <pt x="156" y="437" on="0"/>
        <pt x="166" y="438" on="0"/>
        <pt x="171" y="438" on="1"/>
        <pt x="236" y="438" on="0"/>
        <pt x="308" y="347" on="0"/>
        <pt x="308" y="272" on="1"/>
        <pt x="308" y="216" on="0"/>
        <pt x="280" y="114" on="0"/>
        <pt x="229" y="36" on="0"/>
        <pt x="157" y="-11" on="0"/>
        <pt x="112" y="-11" on="1"/>
        <pt x="81" y="-11" on="0"/>
        <pt x="28" y="6" on="0"/>
        <pt x="2" y="22" on="1"/>
        <pt x="27" y="80" on="1"/>
        <pt x="47" y="68" on="0"/>
        <pt x="88" y="53" on="0"/>
        <pt x="110" y="53" on="1"/>
        <pt x="139" y="53" on="0"/>
        <pt x="186" y="88" on="0"/>
        <pt x="219" y="146" on="0"/>
        <pt x="237" y="224" on="0"/>
        <pt x="237" y="267" on="1"/>
        <pt x="237" y="321" on="0"/>
        <pt x="192" y="376" on="0"/>
        <pt x="142" y="376" on="1"/>
        <pt x="125" y="376" on="0"/>
        <pt x="95" y="371" on="0"/>
        <pt x="79" y="366" on="1"/>
        <pt x="72" y="372" on="1"/>
        <pt x="139" y="719" on="1"/>
        <pt x="374" y="719" on="1"/>
      </contour>
    </TTGlyph>
    <TTGlyph name="fl" xMin="-10" yMin="-186" xMax="412" yMax="740">
      <contour>
        <pt x="282" y="0" on="1"/>
        <pt x="214" y="0" on="1"/>
        <pt x="344" y="733" on="1"/>
        <pt x="412" y="733" on="1"/>
      </contour>
      <contour>
        <pt x="300" y="667" on="1"/>
        <pt x="292" y="671" on="0"/>
        <pt x="269" y="678" on="0"/>
        <pt x="258" y="678" on="1"/>
        <pt x="232" y="678" on="0"/>
        <pt x="202" y="643" on="0"/>
        <pt x="194" y="595" on="1"/>
        <pt x="168" y="446" on="1"/>
        <pt x="244" y="446" on="1"/>
        <pt x="233" y="386" on="1"/>
        <pt x="157" y="386" on="1"/>
        <pt x="56" y="-186" on="1"/>
        <pt x="-10" y="-186" on="1"/>
        <pt x="91" y="386" on="1"/>
        <pt x="38" y="386" on="1"/>
        <pt x="41" y="401" on="1"/>
        <pt x="103" y="453" on="1"/>
        <pt x="130" y="606" on="1"/>
        <pt x="137" y="645" on="0"/>
        <pt x="161" y="697" on="0"/>
        <pt x="194" y="727" on="0"/>
        <pt x="233" y="740" on="0"/>
        <pt x="256" y="740" on="1"/>
        <pt x="280" y="740" on="0"/>
        <pt x="316" y="729" on="0"/>
        <pt x="323" y="726" on="1"/>
      </contour>
    </TTGlyph>
    <TTGlyph name="florin" xMin="0" yMin="0" xMax="350" yMax="730">
      <contour>
        <pt x="329" y="657" on="1"/>
        <pt x="321" y="661" on="0"/>
        <pt x="299" y="668" on="0"/>
        <pt x="287" y="668" on="1"/>
        <pt x="258" y="668" on="0"/>
        <pt x="228" y="630" on="0"/>
        <pt x="217" y="590" on="1"/>
        <pt x="180" y="446" on="1"/>
        <pt x="265" y="446" on="1"/>
        <pt x="256" y="386" on="1"/>
        <pt x="165" y="386" on="1"/>
        <pt x="66" y="0" on="1"/>
        <pt x="0" y="0" on="1"/>
        <pt x="99" y="386" on="1"/>
        <pt x="43" y="386" on="1"/>
        <pt x="46" y="401" on="1"/>
        <pt x="116" y="453" on="1"/>
        <pt x="151" y="589" on="1"/>
        <pt x="170" y="662" on="0"/>
        <pt x="235" y="730" on="0"/>
        <pt x="289" y="730" on="1"/>
        <pt x="309" y="730" on="0"/>
        <pt x="343" y="719" on="0"/>
        <pt x="350" y="716" on="1"/>
      </contour>
    </TTGlyph>
    <TTGlyph name="florin.lin" xMin="0" yMin="0" xMax="350" yMax="730">
      <contour>
        <pt x="329" y="657" on="1"/>
        <pt x="321" y="661" on="0"/>
        <pt x="299" y="668" on="0"/>
        <pt x="287" y="668" on="1"/>
        <pt x="258" y="668" on="0"/>
        <pt x="228" y="630" on="0"/>
        <pt x="217" y="590" on="1"/>
        <pt x="180" y="446" on="1"/>
        <pt x="265" y="446" on="1"/>
        <pt x="256" y="386" on="1"/>
        <pt x="165" y="386" on="1"/>
        <pt x="66" y="0" on="1"/>
        <pt x="0" y="0" on="1"/>
        <pt x="99" y="386" on="1"/>
        <pt x="43" y="386" on="1"/>
        <pt x="46" y="401" on="1"/>
        <pt x="116" y="453" on="1"/>
        <pt x="151" y="589" on="1"/>
        <pt x="170" y="662" on="0"/>
        <pt x="235" y="730" on="0"/>
        <pt x="289" y="730" on="1"/>
        <pt x="309" y="730" on="0"/>
        <pt x="343" y="719" on="0"/>
        <pt x="350" y="716" on="1"/>
      </contour>
    </TTGlyph>
    <TTGlyph name="four" xMin="0" yMin="0" xMax="375" yMax="722">
      <contour>
        <pt x="346" y="202" on="1"/>
        <pt x="283" y="202" on="1"/>
        <pt x="248" y="0" on="1"/>
        <pt x="186" y="0" on="1"/>
        <pt x="221" y="202" on="1"/>
        <pt x="0" y="202" on="1"/>
        <pt x="4" y="224" on="1"/>
        <pt x="328" y="722" on="1"/>
        <pt x="375" y="722" on="1"/>
        <pt x="294" y="266" on="1"/>
        <pt x="357" y="266" on="1"/>
      </contour>
      <contour>
        <pt x="283" y="557" on="1"/>
        <pt x="97" y="265" on="1"/>
        <pt x="232" y="265" on="1"/>
      </contour>
    </TTGlyph>
    <TTGlyph name="four.lin" xMin="0" yMin="0" xMax="375" yMax="722">
      <contour>
        <pt x="346" y="202" on="1"/>
        <pt x="283" y="202" on="1"/>
        <pt x="248" y="0" on="1"/>
        <pt x="186" y="0" on="1"/>
        <pt x="221" y="202" on="1"/>
        <pt x="0" y="202" on="1"/>
        <pt x="4" y="224" on="1"/>
        <pt x="328" y="722" on="1"/>
        <pt x="375" y="722" on="1"/>
        <pt x="294" y="266" on="1"/>
        <pt x="357" y="266" on="1"/>
      </contour>
      <contour>
        <pt x="283" y="557" on="1"/>
        <pt x="97" y="265" on="1"/>
        <pt x="232" y="265" on="1"/>
      </contour>
    </TTGlyph>
    <TTGlyph name="fraction" xMin="-30" yMin="-9" xMax="503" yMax="753">
      <contour>
        <pt x="8" y="-9" on="1"/>
        <pt x="-30" y="12" on="1"/>
        <pt x="465" y="753" on="1"/>
        <pt x="503" y="732" on="1"/>
      </contour>
    </TTGlyph>
    <TTGlyph name="fraction.lin" xMin="-30" yMin="-9" xMax="503" yMax="753">
      <contour>
        <pt x="8" y="-9" on="1"/>
        <pt x="-30" y="12" on="1"/>
        <pt x="465" y="753" on="1"/>
        <pt x="503" y="732" on="1"/>
      </contour>
    </TTGlyph>
    <TTGlyph name="g" xMin="6" yMin="-192" xMax="331" yMax="455">
      <contour>
        <pt x="244" y="-43" on="1"/>
        <pt x="236" y="-90" on="0"/>
        <pt x="208" y="-148" on="0"/>
        <pt x="172" y="-181" on="0"/>
        <pt x="128" y="-192" on="0"/>
        <pt x="103" y="-192" on="1"/>
        <pt x="80" y="-192" on="0"/>
        <pt x="26" y="-178" on="0"/>
        <pt x="6" y="-170" on="1"/>
        <pt x="24" y="-112" on="1"/>
        <pt x="51" y="-123" on="0"/>
        <pt x="94" y="-131" on="0"/>
        <pt x="108" y="-131" on="1"/>
        <pt x="137" y="-131" on="0"/>
        <pt x="168" y="-91" on="0"/>
        <pt x="176" y="-46" on="1"/>
        <pt x="193" y="44" on="1"/>
        <pt x="177" y="23" on="0"/>
        <pt x="135" y="-9" on="0"/>
        <pt x="107" y="-9" on="1"/>
        <pt x="69" y="-9" on="0"/>
        <pt x="16" y="55" on="0"/>
        <pt x="16" y="129" on="1"/>
        <pt x="16" y="196" on="0"/>
        <pt x="43" y="315" on="0"/>
        <pt x="89" y="404" on="0"/>
        <pt x="149" y="455" on="0"/>
        <pt x="182" y="455" on="1"/>
        <pt x="202" y="455" on="0"/>
        <pt x="241" y="437" on="0"/>
        <pt x="258" y="413" on="1"/>
        <pt x="264" y="446" on="1"/>
        <pt x="331" y="446" on="1"/>
      </contour>
      <contour>
        <pt x="248" y="366" on="1"/>
        <pt x="223" y="400" on="0"/>
        <pt x="193" y="400" on="1"/>
        <pt x="168" y="400" on="0"/>
        <pt x="127" y="349" on="0"/>
        <pt x="99" y="270" on="0"/>
        <pt x="83" y="176" on="0"/>
        <pt x="83" y="133" on="1"/>
        <pt x="83" y="86" on="0"/>
        <pt x="110" y="47" on="0"/>
        <pt x="133" y="47" on="1"/>
        <pt x="150" y="47" on="0"/>
        <pt x="187" y="72" on="0"/>
        <pt x="200" y="89" on="1"/>
      </contour>
    </TTGlyph>
    <TTGlyph name="gbreve" xMin="6" yMin="-192" xMax="333" yMax="590">
      <component glyphName="g" x="0" y="0" flags="0x204"/>
      <component glyphName="breve" x="-24" y="0" flags="0x4"/>
    </TTGlyph>
    <TTGlyph name="gcommaaccent" xMin="6" yMin="-192" xMax="331" yMax="667">
      <contour>
        <pt x="244" y="-43" on="1"/>
        <pt x="236" y="-90" on="0"/>
        <pt x="208" y="-148" on="0"/>
        <pt x="172" y="-181" on="0"/>
        <pt x="128" y="-192" on="0"/>
        <pt x="103" y="-192" on="1"/>
        <pt x="80" y="-192" on="0"/>
        <pt x="26" y="-178" on="0"/>
        <pt x="6" y="-170" on="1"/>
        <pt x="24" y="-112" on="1"/>
        <pt x="51" y="-123" on="0"/>
        <pt x="94" y="-131" on="0"/>
        <pt x="108" y="-131" on="1"/>
        <pt x="137" y="-131" on="0"/>
        <pt x="168" y="-91" on="0"/>
        <pt x="176" y="-46" on="1"/>
        <pt x="193" y="44" on="1"/>
        <pt x="177" y="23" on="0"/>
        <pt x="135" y="-9" on="0"/>
        <pt x="107" y="-9" on="1"/>
        <pt x="69" y="-9" on="0"/>
        <pt x="16" y="55" on="0"/>
        <pt x="16" y="129" on="1"/>
        <pt x="16" y="196" on="0"/>
        <pt x="43" y="315" on="0"/>
        <pt x="89" y="404" on="0"/>
        <pt x="149" y="455" on="0"/>
        <pt x="182" y="455" on="1"/>
        <pt x="202" y="455" on="0"/>
        <pt x="241" y="437" on="0"/>
        <pt x="258" y="413" on="1"/>
        <pt x="264" y="446" on="1"/>
        <pt x="331" y="446" on="1"/>
      </contour>
      <contour>
        <pt x="248" y="366" on="1"/>
        <pt x="223" y="400" on="0"/>
        <pt x="193" y="400" on="1"/>
        <pt x="168" y="400" on="0"/>
        <pt x="127" y="349" on="0"/>
        <pt x="99" y="270" on="0"/>
        <pt x="83" y="176" on="0"/>
        <pt x="83" y="133" on="1"/>
        <pt x="83" y="86" on="0"/>
        <pt x="110" y="47" on="0"/>
        <pt x="133" y="47" on="1"/>
        <pt x="150" y="47" on="0"/>
        <pt x="187" y="72" on="0"/>
        <pt x="200" y="89" on="1"/>
      </contour>
      <contour>
        <pt x="188" y="545" on="1"/>
        <pt x="188" y="561" on="0"/>
        <pt x="207" y="599" on="0"/>
        <pt x="236" y="633" on="0"/>
        <pt x="271" y="660" on="0"/>
        <pt x="288" y="667" on="1"/>
        <pt x="296" y="655" on="1"/>
        <pt x="268" y="635" on="0"/>
        <pt x="242" y="599" on="0"/>
        <pt x="236" y="580" on="1"/>
        <pt x="253" y="578" on="0"/>
        <pt x="271" y="558" on="0"/>
        <pt x="271" y="544" on="1"/>
        <pt x="271" y="525" on="0"/>
        <pt x="246" y="498" on="0"/>
        <pt x="228" y="498" on="1"/>
        <pt x="211" y="498" on="0"/>
        <pt x="188" y="522" on="0"/>
      </contour>
    </TTGlyph>
    <TTGlyph name="gdotaccent" xMin="6" yMin="-192" xMax="331" yMax="575">
      <component glyphName="g" x="0" y="0" flags="0x204"/>
      <component glyphName="dotaccent" x="-26" y="0" flags="0x4"/>
    </TTGlyph>
    <TTGlyph name="germandbls" xMin="-6" yMin="-94" xMax="340" yMax="740">
      <contour>
        <pt x="211" y="209" on="1"/>
        <pt x="276" y="176" on="0"/>
        <pt x="276" y="90" on="1"/>
        <pt x="276" y="49" on="0"/>
        <pt x="251" y="-19" on="0"/>
        <pt x="207" y="-67" on="0"/>
        <pt x="150" y="-94" on="0"/>
        <pt x="117" y="-94" on="1"/>
        <pt x="108" y="-94" on="0"/>
        <pt x="84" y="-91" on="0"/>
        <pt x="73" y="-87" on="1"/>
        <pt x="89" y="-30" on="1"/>
        <pt x="94" y="-32" on="0"/>
        <pt x="112" y="-33" on="0"/>
        <pt x="117" y="-33" on="1"/>
        <pt x="163" y="-33" on="0"/>
        <pt x="211" y="35" on="0"/>
        <pt x="211" y="86" on="1"/>
        <pt x="211" y="123" on="0"/>
        <pt x="172" y="166" on="0"/>
        <pt x="139" y="172" on="1"/>
        <pt x="139" y="173" on="1"/>
        <pt x="135" y="184" on="1"/>
        <pt x="249" y="386" on="1"/>
        <pt x="128" y="386" on="1"/>
        <pt x="60" y="0" on="1"/>
        <pt x="-6" y="0" on="1"/>
        <pt x="100" y="606" on="1"/>
        <pt x="107" y="645" on="0"/>
        <pt x="131" y="697" on="0"/>
        <pt x="164" y="727" on="0"/>
        <pt x="203" y="740" on="0"/>
        <pt x="226" y="740" on="1"/>
        <pt x="250" y="740" on="0"/>
        <pt x="286" y="729" on="0"/>
        <pt x="293" y="726" on="1"/>
        <pt x="270" y="667" on="1"/>
        <pt x="262" y="671" on="0"/>
        <pt x="239" y="678" on="0"/>
        <pt x="228" y="678" on="1"/>
        <pt x="202" y="678" on="0"/>
        <pt x="172" y="643" on="0"/>
        <pt x="164" y="595" on="1"/>
        <pt x="138" y="446" on="1"/>
        <pt x="336" y="446" on="1"/>
        <pt x="340" y="435" on="1"/>
      </contour>
    </TTGlyph>
    <TTGlyph name="grave" xMin="191" yMin="491" xMax="357" yMax="620">
      <contour>
        <pt x="337" y="491" on="1"/>
        <pt x="191" y="562" on="1"/>
        <pt x="224" y="620" on="1"/>
        <pt x="357" y="521" on="1"/>
      </contour>
    </TTGlyph>
    <TTGlyph name="greater" xMin="20" yMin="129" xMax="258" yMax="613">
      <contour>
        <pt x="64" y="129" on="1"/>
        <pt x="20" y="175" on="1"/>
        <pt x="186" y="367" on="1"/>
        <pt x="91" y="578" on="1"/>
        <pt x="144" y="613" on="1"/>
        <pt x="258" y="363" on="1"/>
      </contour>
    </TTGlyph>
    <TTGlyph name="greater.lin" xMin="20" yMin="129" xMax="258" yMax="613">
      <component glyphName="greater" x="0" y="0" flags="0x204"/>
    </TTGlyph>
    <TTGlyph name="guillemotleft" xMin="19" yMin="60" xMax="278" yMax="387">
      <contour>
        <pt x="185" y="220" on="1"/>
        <pt x="220" y="60" on="1"/>
        <pt x="160" y="60" on="1"/>
        <pt x="126" y="224" on="1"/>
        <pt x="218" y="387" on="1"/>
        <pt x="278" y="387" on="1"/>
      </contour>
      <contour>
        <pt x="78" y="220" on="1"/>
        <pt x="113" y="60" on="1"/>
        <pt x="53" y="60" on="1"/>
        <pt x="19" y="224" on="1"/>
        <pt x="111" y="387" on="1"/>
        <pt x="171" y="387" on="1"/>
      </contour>
    </TTGlyph>
    <TTGlyph name="guillemotleft.cap" xMin="45" yMin="207" xMax="304" yMax="534">
      <component glyphName="guillemotleft" x="26" y="147" flags="0x204"/>
    </TTGlyph>
    <TTGlyph name="guillemotright" xMin="-14" yMin="60" xMax="245" yMax="387">
      <contour>
        <pt x="153" y="60" on="1"/>
        <pt x="93" y="60" on="1"/>
        <pt x="186" y="227" on="1"/>
        <pt x="151" y="387" on="1"/>
        <pt x="211" y="387" on="1"/>
        <pt x="245" y="223" on="1"/>
      </contour>
      <contour>
        <pt x="46" y="60" on="1"/>
        <pt x="-14" y="60" on="1"/>
        <pt x="79" y="227" on="1"/>
        <pt x="44" y="387" on="1"/>
        <pt x="104" y="387" on="1"/>
        <pt x="138" y="223" on="1"/>
      </contour>
    </TTGlyph>
    <TTGlyph name="guillemotright.cap" xMin="12" yMin="207" xMax="271" yMax="534">
      <component glyphName="guillemotright" x="26" y="147" flags="0x204"/>
    </TTGlyph>
    <TTGlyph name="guilsinglleft" xMin="19" yMin="60" xMax="171" yMax="387">
      <contour>
        <pt x="78" y="220" on="1"/>
        <pt x="113" y="60" on="1"/>
        <pt x="53" y="60" on="1"/>
        <pt x="19" y="224" on="1"/>
        <pt x="111" y="387" on="1"/>
        <pt x="171" y="387" on="1"/>
      </contour>
    </TTGlyph>
    <TTGlyph name="guilsinglleft.cap" xMin="45" yMin="207" xMax="197" yMax="534">
      <component glyphName="guilsinglleft" x="26" y="147" flags="0x204"/>
    </TTGlyph>
    <TTGlyph name="guilsinglright" xMin="-12" yMin="60" xMax="140" yMax="387">
      <contour>
        <pt x="48" y="60" on="1"/>
        <pt x="-12" y="60" on="1"/>
        <pt x="81" y="227" on="1"/>
        <pt x="46" y="387" on="1"/>
        <pt x="106" y="387" on="1"/>
        <pt x="140" y="223" on="1"/>
      </contour>
    </TTGlyph>
    <TTGlyph name="guilsinglright.cap" xMin="14" yMin="207" xMax="166" yMax="534">
      <component glyphName="guilsinglright" x="26" y="147" flags="0x204"/>
    </TTGlyph>
    <TTGlyph name="h" xMin="3" yMin="0" xMax="324" yMax="733">
      <contour>
        <pt x="324" y="378" on="1"/>
        <pt x="324" y="368" on="0"/>
        <pt x="321" y="346" on="0"/>
        <pt x="319" y="332" on="1"/>
        <pt x="260" y="0" on="1"/>
        <pt x="192" y="0" on="1"/>
        <pt x="249" y="328" on="1"/>
        <pt x="251" y="342" on="0"/>
        <pt x="253" y="360" on="0"/>
        <pt x="253" y="366" on="1"/>
        <pt x="253" y="394" on="0"/>
        <pt x="223" y="394" on="1"/>
        <pt x="204" y="394" on="0"/>
        <pt x="157" y="369" on="0"/>
        <pt x="131" y="341" on="1"/>
        <pt x="71" y="0" on="1"/>
        <pt x="3" y="0" on="1"/>
        <pt x="132" y="733" on="1"/>
        <pt x="200" y="733" on="1"/>
        <pt x="138" y="380" on="1"/>
        <pt x="163" y="411" on="0"/>
        <pt x="218" y="455" on="0"/>
        <pt x="251" y="455" on="1"/>
        <pt x="286" y="455" on="0"/>
        <pt x="324" y="412" on="0"/>
      </contour>
    </TTGlyph>
    <TTGlyph name="hbar" xMin="3" yMin="0" xMax="324" yMax="733">
      <contour>
        <pt x="324" y="378" on="1"/>
        <pt x="324" y="368" on="0"/>
        <pt x="321" y="346" on="0"/>
        <pt x="319" y="332" on="1"/>
        <pt x="260" y="0" on="1"/>
        <pt x="192" y="0" on="1"/>
        <pt x="249" y="328" on="1"/>
        <pt x="251" y="342" on="0"/>
        <pt x="253" y="360" on="0"/>
        <pt x="253" y="366" on="1"/>
        <pt x="253" y="394" on="0"/>
        <pt x="223" y="394" on="1"/>
        <pt x="204" y="394" on="0"/>
        <pt x="157" y="369" on="0"/>
        <pt x="131" y="341" on="1"/>
        <pt x="71" y="0" on="1"/>
        <pt x="3" y="0" on="1"/>
        <pt x="102" y="565" on="1"/>
        <pt x="62" y="565" on="1"/>
        <pt x="73" y="626" on="1"/>
        <pt x="113" y="626" on="1"/>
        <pt x="132" y="733" on="1"/>
        <pt x="200" y="733" on="1"/>
        <pt x="181" y="626" on="1"/>
        <pt x="271" y="626" on="1"/>
        <pt x="260" y="565" on="1"/>
        <pt x="170" y="565" on="1"/>
        <pt x="138" y="380" on="1"/>
        <pt x="163" y="411" on="0"/>
        <pt x="218" y="455" on="0"/>
        <pt x="251" y="455" on="1"/>
        <pt x="286" y="455" on="0"/>
        <pt x="324" y="412" on="0"/>
      </contour>
    </TTGlyph>
</ttFont>
